<svg class="local-country-map" viewBox="0 0 1000 600" role="img" aria-label="Australia interactive map" xmlns="http://www.w3.org/2000/svg">
<path class="country-shape" d="M 738.50,520.64 L 739.64,539.72 L 734.13,545.26 L 732.47,558.20 L 726.85,553.80 L 715.69,565.00 L 712.36,564.14 L 702.48,563.64 L 692.57,549.87 L 690.37,539.26 L 681.09,525.26 L 681.50,517.88 L 692.02,519.31 L 707.55,524.86 L 716.31,522.65 L 728.86,519.56 L 738.50,520.64 Z M 365.51,389.67 L 351.57,393.38 L 348.47,401.81 L 342.53,408.34 L 328.89,408.73 L 318.79,410.16 L 304.58,407.23 L 293.03,408.98 L 281.99,409.72 L 272.43,418.29 L 267.74,417.57 L 259.67,422.11 L 251.94,427.22 L 240.22,426.59 L 229.44,426.59 L 212.39,416.32 L 203.74,413.26 L 204.09,404.05 L 212.08,401.86 L 214.80,398.20 L 214.23,392.43 L 216.20,381.25 L 214.40,371.72 L 205.90,355.47 L 203.26,346.29 L 203.96,337.13 L 197.56,326.67 L 197.15,321.95 L 190.03,315.54 L 188.02,302.95 L 178.83,290.22 L 176.61,283.36 L 183.67,290.32 L 178.25,275.40 L 186.22,280.06 L 190.98,286.29 L 190.71,278.05 L 182.75,265.40 L 181.21,260.33 L 177.48,255.52 L 179.23,246.22 L 182.52,242.26 L 184.72,234.22 L 183.00,224.83 L 189.64,213.26 L 190.86,225.50 L 197.65,214.44 L 210.71,209.07 L 218.54,202.21 L 230.83,196.31 L 238.14,195.05 L 242.56,197.04 L 255.23,191.04 L 264.98,189.26 L 267.42,185.74 L 271.68,184.27 L 280.57,184.65 L 297.46,179.94 L 306.20,172.80 L 310.31,164.21 L 319.74,156.05 L 320.46,149.64 L 320.88,140.90 L 332.13,127.23 L 338.90,141.11 L 345.74,137.91 L 340.02,130.31 L 345.06,122.51 L 352.16,125.99 L 354.11,113.76 L 362.89,105.85 L 366.77,99.50 L 374.85,96.77 L 375.11,92.27 L 382.17,94.15 L 382.46,90.11 L 389.53,87.81 L 397.29,85.64 L 409.17,93.02 L 418.10,102.54 L 428.16,102.65 L 438.38,104.16 L 434.97,95.33 L 442.68,82.44 L 449.92,78.23 L 447.42,74.22 L 454.40,65.04 L 464.14,59.36 L 472.36,61.27 L 485.87,58.24 L 485.58,50.03 L 473.80,44.74 L 482.36,42.40 L 493.01,46.39 L 501.55,52.98 L 515.09,57.09 L 519.68,55.47 L 529.65,60.41 L 539.04,55.80 L 545.08,57.20 L 548.85,54.12 L 556.23,62.07 L 551.94,70.68 L 545.84,77.17 L 540.31,77.71 L 542.18,84.13 L 537.45,92.17 L 531.74,100.07 L 532.89,104.61 L 545.67,113.49 L 558.06,118.64 L 566.34,124.18 L 577.96,133.70 L 582.49,133.69 L 590.90,137.80 L 593.35,142.77 L 608.70,148.22 L 619.31,142.73 L 622.46,134.10 L 625.72,126.97 L 627.72,118.16 L 632.60,105.36 L 630.37,97.59 L 631.53,92.91 L 629.67,83.71 L 631.78,71.60 L 634.86,68.33 L 632.36,62.96 L 636.24,54.44 L 639.30,45.61 L 639.70,41.02 L 645.67,35.00 L 650.21,42.86 L 651.33,52.95 L 655.33,54.89 L 656.02,61.65 L 661.86,69.83 L 663.07,78.93 L 662.50,84.77 L 668.29,97.38 L 678.61,91.32 L 683.93,98.12 L 691.65,104.40 L 689.99,111.53 L 693.42,125.31 L 695.86,133.34 L 699.91,135.30 L 704.28,149.04 L 702.72,157.38 L 707.93,168.28 L 725.35,176.68 L 736.71,184.32 L 747.49,191.32 L 745.39,195.21 L 754.58,205.29 L 760.83,222.69 L 767.25,219.16 L 773.77,226.12 L 777.70,223.65 L 780.47,240.69 L 791.88,250.56 L 799.34,256.70 L 811.91,269.71 L 816.43,282.63 L 816.84,291.80 L 815.73,301.75 L 823.39,315.41 L 822.47,329.64 L 819.69,337.09 L 815.35,351.43 L 815.68,360.65 L 812.49,372.17 L 805.39,386.79 L 793.48,394.69 L 787.61,407.15 L 782.25,415.09 L 777.49,428.97 L 771.28,436.98 L 767.22,449.01 L 765.14,460.09 L 765.96,465.17 L 756.74,470.76 L 738.75,471.34 L 723.91,477.94 L 716.52,484.16 L 706.81,491.06 L 693.49,483.96 L 683.64,481.12 L 686.14,472.74 L 677.35,475.78 L 663.27,487.43 L 649.37,483.07 L 640.26,480.52 L 631.07,479.37 L 615.50,474.72 L 605.11,464.81 L 602.13,452.61 L 598.39,444.48 L 590.49,437.96 L 575.02,436.03 L 580.31,428.23 L 576.42,416.29 L 568.57,427.42 L 554.26,430.37 L 562.67,421.48 L 565.11,412.20 L 571.32,404.32 L 570.03,392.42 L 556.95,406.13 L 546.91,411.63 L 540.75,424.42 L 528.20,417.80 L 528.70,409.27 L 518.64,397.61 L 510.16,391.59 L 513.18,387.87 L 492.55,378.13 L 481.25,377.67 L 465.79,369.84 L 437.00,371.37 L 416.19,377.12 L 397.89,382.49 L 382.55,381.42 L 365.51,389.67 Z"/>
<a href="../../region.html?country=australia&amp;region=Western%20Australia"><g class="map-marker"><circle cx="299.8" cy="265.4" r="11"/><text x="299.8" y="248.4" text-anchor="middle">Western Australia</text></g></a><a href="../../region.html?country=australia&amp;region=Northern%20Territory"><g class="map-marker"><circle cx="492.7" cy="169.0" r="11"/><text x="492.7" y="152.0" text-anchor="middle">Northern Territory</text></g></a><a href="../../region.html?country=australia&amp;region=South%20Australia"><g class="map-marker"><circle cx="540.9" cy="345.8" r="11"/><text x="540.9" y="328.8" text-anchor="middle">South Australia</text></g></a><a href="../../region.html?country=australia&amp;region=Queensland"><g class="map-marker"><circle cx="685.6" cy="217.2" r="11"/><text x="685.6" y="200.2" text-anchor="middle">Queensland</text></g></a><a href="../../region.html?country=australia&amp;region=New%20South%20Wales"><g class="map-marker"><circle cx="717.8" cy="378.0" r="11"/><text x="717.8" y="361.0" text-anchor="middle">New South Wales</text></g></a><a href="../../region.html?country=australia&amp;region=Australian%20Capital%20Territory"><g class="map-marker"><circle cx="751.5" cy="431.0" r="11"/><text x="751.5" y="414.0" text-anchor="middle">Australian Capital Territory</text></g></a><a href="../../region.html?country=australia&amp;region=Victoria"><g class="map-marker"><circle cx="685.6" cy="458.3" r="11"/><text x="685.6" y="441.3" text-anchor="middle">Victoria</text></g></a><a href="../../region.html?country=australia&amp;region=Tasmania"><g class="map-marker"><circle cx="717.8" cy="538.7" r="11"/><text x="717.8" y="521.7" text-anchor="middle">Tasmania</text></g></a>
</svg>