<svg class="defined-map" viewBox="0 0 1000 620" xmlns="http://www.w3.org/2000/svg" role="img">
<style>.background{fill:#0d1823}.outline{fill:none;stroke:#a5f3f7;stroke-width:3;vector-effect:non-scaling-stroke}.division{fill:#17384a;stroke:#39d8e3;stroke-width:1.7;vector-effect:non-scaling-stroke;transition:.15s;cursor:pointer}a:hover .division{fill:#2a8398;stroke:#fff;stroke-width:2.8}.division-label{fill:#f2fbff;font:600 13px Arial,sans-serif;pointer-events:none;paint-order:stroke;stroke:#071016;stroke-width:4px}.map-note{fill:#7790a2;font:11px Arial,sans-serif}</style>
<rect class="background" width="1000" height="620"/><defs><clipPath id="clip"><path d="M 756.5,547.3 L 757.7,567.8 L 751.8,573.8 L 750.0,587.7 L 744.0,583.0 L 732.0,595.0 L 728.4,594.1 L 717.8,593.5 L 707.1,578.7 L 704.7,567.3 L 694.8,552.3 L 695.2,544.3 L 706.5,545.9 L 723.2,551.8 L 732.6,549.5 L 746.1,546.1 L 756.5,547.3 Z M 355.4,406.4 L 340.4,410.4 L 337.0,419.5 L 330.6,426.5 L 316.0,426.9 L 305.1,428.5 L 289.8,425.3 L 277.4,427.2 L 265.5,428.0 L 255.3,437.2 L 250.2,436.4 L 241.5,441.3 L 233.2,446.8 L 220.6,446.1 L 209.0,446.1 L 190.7,435.1 L 181.4,431.8 L 181.8,421.9 L 190.3,419.5 L 193.3,415.6 L 192.7,409.4 L 194.8,397.4 L 192.8,387.1 L 183.7,369.7 L 180.9,359.8 L 181.6,349.9 L 174.7,338.7 L 174.3,333.6 L 166.6,326.7 L 164.5,313.2 L 154.6,299.5 L 152.2,292.1 L 159.8,299.6 L 154.0,283.5 L 162.5,288.6 L 167.7,295.3 L 167.4,286.4 L 158.8,272.8 L 157.2,267.3 L 153.1,262.2 L 155.0,252.2 L 158.6,247.9 L 160.9,239.3 L 159.1,229.2 L 166.2,216.7 L 167.5,229.9 L 174.8,218.0 L 188.9,212.2 L 197.3,204.8 L 210.5,198.5 L 218.4,197.1 L 223.1,199.3 L 236.8,192.8 L 247.2,190.9 L 249.9,187.1 L 254.4,185.5 L 264.0,185.9 L 282.2,180.9 L 291.6,173.2 L 296.0,164.0 L 306.1,155.2 L 306.9,148.3 L 307.4,138.9 L 319.5,124.2 L 326.7,139.1 L 334.1,135.7 L 327.9,127.5 L 333.4,119.1 L 341.0,122.9 L 343.1,109.7 L 352.5,101.2 L 356.7,94.4 L 365.4,91.4 L 365.7,86.6 L 373.3,88.6 L 373.6,84.3 L 381.2,81.8 L 389.5,79.5 L 402.3,87.4 L 411.9,97.6 L 422.7,97.8 L 433.7,99.4 L 430.1,89.9 L 438.4,76.0 L 446.1,71.5 L 443.4,67.2 L 451.0,57.3 L 461.4,51.2 L 470.3,53.3 L 484.8,50.0 L 484.5,41.2 L 471.8,35.5 L 481.0,33.0 L 492.5,37.2 L 501.7,44.3 L 516.2,48.8 L 521.2,47.0 L 531.9,52.3 L 542.0,47.4 L 548.5,48.9 L 552.5,45.6 L 560.5,54.1 L 555.9,63.4 L 549.3,70.4 L 543.4,70.9 L 545.4,77.8 L 540.3,86.5 L 534.1,95.0 L 535.4,99.9 L 549.1,109.4 L 562.4,115.0 L 571.3,120.9 L 583.8,131.2 L 588.7,131.1 L 597.8,135.6 L 600.4,140.9 L 616.9,146.8 L 628.3,140.9 L 631.7,131.6 L 635.2,123.9 L 637.4,114.4 L 642.6,100.7 L 640.2,92.3 L 641.5,87.3 L 639.5,77.4 L 641.7,64.4 L 645.0,60.8 L 642.3,55.1 L 646.5,45.9 L 649.8,36.4 L 650.2,31.5 L 656.7,25.0 L 661.5,33.5 L 662.7,44.3 L 667.1,46.4 L 667.8,53.7 L 674.1,62.5 L 675.4,72.2 L 674.8,78.5 L 681.0,92.1 L 692.1,85.6 L 697.8,92.9 L 706.1,99.6 L 704.3,107.3 L 708.0,122.1 L 710.6,130.8 L 715.0,132.9 L 719.7,147.6 L 718.0,156.6 L 723.6,168.3 L 742.4,177.4 L 754.6,185.6 L 766.2,193.1 L 763.9,197.3 L 773.8,208.1 L 780.5,226.9 L 787.4,223.1 L 794.4,230.5 L 798.7,227.9 L 801.6,246.2 L 813.9,256.8 L 821.9,263.4 L 835.4,277.4 L 840.3,291.3 L 840.8,301.2 L 839.6,311.9 L 847.8,326.6 L 846.8,341.9 L 843.8,349.9 L 839.2,365.3 L 839.5,375.2 L 836.1,387.6 L 828.4,403.3 L 815.6,411.8 L 809.3,425.2 L 803.6,433.8 L 798.4,448.7 L 791.8,457.3 L 787.4,470.3 L 785.2,482.2 L 786.0,487.6 L 776.1,493.6 L 756.8,494.3 L 740.8,501.4 L 732.9,508.1 L 722.4,515.5 L 708.1,507.8 L 697.5,504.8 L 700.2,495.8 L 690.7,499.1 L 675.6,511.6 L 660.6,506.9 L 650.8,504.1 L 641.0,502.9 L 624.2,497.9 L 613.0,487.3 L 609.8,474.1 L 605.8,465.4 L 597.3,458.4 L 580.7,456.3 L 586.4,447.9 L 582.2,435.1 L 573.7,447.0 L 558.4,450.2 L 567.4,440.6 L 570.0,430.7 L 576.7,422.2 L 575.3,409.4 L 561.3,424.1 L 550.5,430.1 L 543.8,443.8 L 530.3,436.7 L 530.9,427.5 L 520.0,415.0 L 510.9,408.5 L 514.2,404.5 L 492.0,394.0 L 479.8,393.5 L 463.2,385.1 L 432.2,386.8 L 409.9,392.9 L 390.2,398.7 L 373.7,397.6 L 355.4,406.4 Z"/></clipPath></defs>
<g clip-path="url(#clip)"><a href="../../region.html?country=australia&amp;region=Western%20Australia" data-region="Western Australia"><path class="division" d="M 423.0,389.3 L 409.9,392.9 L 390.2,398.7 L 373.7,397.6 L 355.4,406.4 L 340.4,410.4 L 337.0,419.5 L 330.6,426.5 L 316.0,426.9 L 305.1,428.5 L 289.8,425.3 L 277.4,427.2 L 265.5,428.0 L 255.3,437.2 L 250.2,436.4 L 241.5,441.3 L 233.2,446.8 L 220.6,446.1 L 209.0,446.1 L 190.7,435.1 L 181.4,431.8 L 181.8,421.9 L 190.3,419.5 L 193.3,415.6 L 192.7,409.4 L 194.8,397.4 L 192.8,387.1 L 183.7,369.7 L 180.9,359.8 L 181.6,349.9 L 174.7,338.7 L 174.3,333.6 L 166.6,326.7 L 164.5,313.2 L 154.6,299.5 L 152.2,292.1 L 159.8,299.6 L 154.0,283.5 L 162.5,288.6 L 167.7,295.3 L 167.4,286.4 L 158.8,272.8 L 157.2,267.3 L 153.1,262.2 L 155.0,252.2 L 158.6,247.9 L 160.9,239.3 L 159.1,229.2 L 166.2,216.7 L 167.5,229.9 L 174.8,218.0 L 188.9,212.2 L 197.3,204.8 L 210.5,198.5 L 218.4,197.1 L 223.1,199.3 L 236.8,192.8 L 247.2,190.9 L 249.9,187.1 L 254.4,185.5 L 264.0,185.9 L 282.2,180.9 L 291.6,173.2 L 296.0,164.0 L 306.1,155.2 L 306.9,148.3 L 307.4,138.9 L 319.5,124.2 L 326.7,139.1 L 334.1,135.7 L 327.9,127.5 L 333.4,119.1 L 341.0,122.9 L 343.1,109.7 L 352.5,101.2 L 356.7,94.4 L 365.4,91.4 L 365.7,86.6 L 373.3,88.6 L 373.6,84.3 L 381.2,81.8 L 389.5,79.5 L 402.3,87.4 L 411.9,97.6 L 422.7,97.8 L 423.0,97.8 L 423.0,389.3 Z"><title>Western Australia</title></path></a><a href="../../region.html?country=australia&amp;region=Northern%20Territory" data-region="Northern Territory"><path class="division" d="M 578.6,290.1 L 423.0,290.1 L 423.0,97.8 L 433.7,99.4 L 430.1,89.9 L 438.4,76.0 L 446.1,71.5 L 443.4,67.2 L 451.0,57.3 L 461.4,51.2 L 470.3,53.3 L 484.8,50.0 L 484.5,41.2 L 471.8,35.5 L 481.0,33.0 L 492.5,37.2 L 501.7,44.3 L 516.2,48.8 L 521.2,47.0 L 531.9,52.3 L 542.0,47.4 L 548.5,48.9 L 552.5,45.6 L 560.5,54.1 L 555.9,63.4 L 549.3,70.4 L 543.4,70.9 L 545.4,77.8 L 540.3,86.5 L 534.1,95.0 L 535.4,99.9 L 549.1,109.4 L 562.4,115.0 L 571.3,120.9 L 578.6,126.9 L 578.6,290.1 Z"><title>Northern Territory</title></path></a><a href="../../region.html?country=australia&amp;region=South%20Australia" data-region="South Australia"><path class="division" d="M 423.0,290.1 L 630.5,290.1 L 630.5,499.8 L 624.2,497.9 L 613.0,487.3 L 609.8,474.1 L 605.8,465.4 L 597.3,458.4 L 580.7,456.3 L 586.4,447.9 L 582.2,435.1 L 573.7,447.0 L 558.4,450.2 L 567.4,440.6 L 570.0,430.7 L 576.7,422.2 L 575.3,409.4 L 561.3,424.1 L 550.5,430.1 L 543.8,443.8 L 530.3,436.7 L 530.9,427.5 L 520.0,415.0 L 510.9,408.5 L 514.2,404.5 L 492.0,394.0 L 479.8,393.5 L 463.2,385.1 L 432.2,386.8 L 423.0,389.3 L 423.0,290.1 Z"><title>South Australia</title></path></a><a href="../../region.html?country=australia&amp;region=Queensland" data-region="Queensland"><path class="division" d="M 630.5,342.0 L 630.5,290.1 L 578.6,290.1 L 578.6,126.9 L 583.8,131.2 L 588.7,131.1 L 597.8,135.6 L 600.4,140.9 L 616.9,146.8 L 628.3,140.9 L 631.7,131.6 L 635.2,123.9 L 637.4,114.4 L 642.6,100.7 L 640.2,92.3 L 641.5,87.3 L 639.5,77.4 L 641.7,64.4 L 645.0,60.8 L 642.3,55.1 L 646.5,45.9 L 649.8,36.4 L 650.2,31.5 L 656.7,25.0 L 661.5,33.5 L 662.7,44.3 L 667.1,46.4 L 667.8,53.7 L 674.1,62.5 L 675.4,72.2 L 674.8,78.5 L 681.0,92.1 L 692.1,85.6 L 697.8,92.9 L 706.1,99.6 L 704.3,107.3 L 708.0,122.1 L 710.6,130.8 L 715.0,132.9 L 719.7,147.6 L 718.0,156.6 L 723.6,168.3 L 742.4,177.4 L 754.6,185.6 L 766.2,193.1 L 763.9,197.3 L 773.8,208.1 L 780.5,226.9 L 787.4,223.1 L 794.4,230.5 L 798.7,227.9 L 801.6,246.2 L 813.9,256.8 L 821.9,263.4 L 835.4,277.4 L 840.3,291.3 L 840.8,301.2 L 839.6,311.9 L 847.8,326.6 L 846.8,341.9 L 846.8,342.0 L 630.5,342.0 Z"><title>Queensland</title></path></a><a href="../../region.html?country=australia&amp;region=New%20South%20Wales" data-region="New South Wales"><path class="division" d="M 846.8,342.0 L 843.8,349.9 L 839.2,365.3 L 839.5,375.2 L 836.1,387.6 L 828.4,403.3 L 815.6,411.8 L 809.3,425.2 L 803.6,433.8 L 798.4,448.7 L 791.8,457.3 L 787.4,470.3 L 785.2,482.2 L 786.0,487.6 L 783.9,488.9 L 768.8,488.9 L 630.5,428.4 L 630.5,342.0 L 846.8,342.0 Z"><title>New South Wales</title></path></a><a href="../../region.html?country=australia&amp;region=Victoria" data-region="Victoria"><path class="division" d="M 768.8,488.9 L 771.2,493.8 L 756.8,494.3 L 740.8,501.4 L 732.9,508.1 L 722.4,515.5 L 708.1,507.8 L 697.5,504.8 L 700.2,495.8 L 690.7,499.1 L 675.6,511.6 L 660.6,506.9 L 650.8,504.1 L 641.0,502.9 L 630.5,499.8 L 630.5,428.4 L 768.8,488.9 Z"><title>Victoria</title></path></a><a href="../../region.html?country=australia&amp;region=Tasmania" data-region="Tasmania"><path class="division" d="M 757.7,567.8 L 751.8,573.8 L 750.0,587.7 L 744.0,583.0 L 732.0,595.0 L 728.4,594.1 L 717.8,593.5 L 707.1,578.7 L 704.7,567.3 L 694.8,552.3 L 695.2,544.3 L 706.5,545.9 L 723.2,551.8 L 732.6,549.5 L 746.1,546.1 L 756.5,547.3 L 757.7,567.8 Z"><title>Tasmania</title></path></a><a href="../../region.html?country=australia&amp;region=Australian%20Capital%20Territory" data-region="Australian Capital Territory"><path class="division" d="M 764.5,462.1 L 764.5,447.4 L 774.8,447.4 L 774.8,462.1 L 764.5,462.1 Z"><title>Australian Capital Territory</title></path></a></g><path class="outline" d="M 756.5,547.3 L 757.7,567.8 L 751.8,573.8 L 750.0,587.7 L 744.0,583.0 L 732.0,595.0 L 728.4,594.1 L 717.8,593.5 L 707.1,578.7 L 704.7,567.3 L 694.8,552.3 L 695.2,544.3 L 706.5,545.9 L 723.2,551.8 L 732.6,549.5 L 746.1,546.1 L 756.5,547.3 Z M 355.4,406.4 L 340.4,410.4 L 337.0,419.5 L 330.6,426.5 L 316.0,426.9 L 305.1,428.5 L 289.8,425.3 L 277.4,427.2 L 265.5,428.0 L 255.3,437.2 L 250.2,436.4 L 241.5,441.3 L 233.2,446.8 L 220.6,446.1 L 209.0,446.1 L 190.7,435.1 L 181.4,431.8 L 181.8,421.9 L 190.3,419.5 L 193.3,415.6 L 192.7,409.4 L 194.8,397.4 L 192.8,387.1 L 183.7,369.7 L 180.9,359.8 L 181.6,349.9 L 174.7,338.7 L 174.3,333.6 L 166.6,326.7 L 164.5,313.2 L 154.6,299.5 L 152.2,292.1 L 159.8,299.6 L 154.0,283.5 L 162.5,288.6 L 167.7,295.3 L 167.4,286.4 L 158.8,272.8 L 157.2,267.3 L 153.1,262.2 L 155.0,252.2 L 158.6,247.9 L 160.9,239.3 L 159.1,229.2 L 166.2,216.7 L 167.5,229.9 L 174.8,218.0 L 188.9,212.2 L 197.3,204.8 L 210.5,198.5 L 218.4,197.1 L 223.1,199.3 L 236.8,192.8 L 247.2,190.9 L 249.9,187.1 L 254.4,185.5 L 264.0,185.9 L 282.2,180.9 L 291.6,173.2 L 296.0,164.0 L 306.1,155.2 L 306.9,148.3 L 307.4,138.9 L 319.5,124.2 L 326.7,139.1 L 334.1,135.7 L 327.9,127.5 L 333.4,119.1 L 341.0,122.9 L 343.1,109.7 L 352.5,101.2 L 356.7,94.4 L 365.4,91.4 L 365.7,86.6 L 373.3,88.6 L 373.6,84.3 L 381.2,81.8 L 389.5,79.5 L 402.3,87.4 L 411.9,97.6 L 422.7,97.8 L 433.7,99.4 L 430.1,89.9 L 438.4,76.0 L 446.1,71.5 L 443.4,67.2 L 451.0,57.3 L 461.4,51.2 L 470.3,53.3 L 484.8,50.0 L 484.5,41.2 L 471.8,35.5 L 481.0,33.0 L 492.5,37.2 L 501.7,44.3 L 516.2,48.8 L 521.2,47.0 L 531.9,52.3 L 542.0,47.4 L 548.5,48.9 L 552.5,45.6 L 560.5,54.1 L 555.9,63.4 L 549.3,70.4 L 543.4,70.9 L 545.4,77.8 L 540.3,86.5 L 534.1,95.0 L 535.4,99.9 L 549.1,109.4 L 562.4,115.0 L 571.3,120.9 L 583.8,131.2 L 588.7,131.1 L 597.8,135.6 L 600.4,140.9 L 616.9,146.8 L 628.3,140.9 L 631.7,131.6 L 635.2,123.9 L 637.4,114.4 L 642.6,100.7 L 640.2,92.3 L 641.5,87.3 L 639.5,77.4 L 641.7,64.4 L 645.0,60.8 L 642.3,55.1 L 646.5,45.9 L 649.8,36.4 L 650.2,31.5 L 656.7,25.0 L 661.5,33.5 L 662.7,44.3 L 667.1,46.4 L 667.8,53.7 L 674.1,62.5 L 675.4,72.2 L 674.8,78.5 L 681.0,92.1 L 692.1,85.6 L 697.8,92.9 L 706.1,99.6 L 704.3,107.3 L 708.0,122.1 L 710.6,130.8 L 715.0,132.9 L 719.7,147.6 L 718.0,156.6 L 723.6,168.3 L 742.4,177.4 L 754.6,185.6 L 766.2,193.1 L 763.9,197.3 L 773.8,208.1 L 780.5,226.9 L 787.4,223.1 L 794.4,230.5 L 798.7,227.9 L 801.6,246.2 L 813.9,256.8 L 821.9,263.4 L 835.4,277.4 L 840.3,291.3 L 840.8,301.2 L 839.6,311.9 L 847.8,326.6 L 846.8,341.9 L 843.8,349.9 L 839.2,365.3 L 839.5,375.2 L 836.1,387.6 L 828.4,403.3 L 815.6,411.8 L 809.3,425.2 L 803.6,433.8 L 798.4,448.7 L 791.8,457.3 L 787.4,470.3 L 785.2,482.2 L 786.0,487.6 L 776.1,493.6 L 756.8,494.3 L 740.8,501.4 L 732.9,508.1 L 722.4,515.5 L 708.1,507.8 L 697.5,504.8 L 700.2,495.8 L 690.7,499.1 L 675.6,511.6 L 660.6,506.9 L 650.8,504.1 L 641.0,502.9 L 624.2,497.9 L 613.0,487.3 L 609.8,474.1 L 605.8,465.4 L 597.3,458.4 L 580.7,456.3 L 586.4,447.9 L 582.2,435.1 L 573.7,447.0 L 558.4,450.2 L 567.4,440.6 L 570.0,430.7 L 576.7,422.2 L 575.3,409.4 L 561.3,424.1 L 550.5,430.1 L 543.8,443.8 L 530.3,436.7 L 530.9,427.5 L 520.0,415.0 L 510.9,408.5 L 514.2,404.5 L 492.0,394.0 L 479.8,393.5 L 463.2,385.1 L 432.2,386.8 L 409.9,392.9 L 390.2,398.7 L 373.7,397.6 L 355.4,406.4 Z"/><text class="division-label" x="289.1" y="264.8" text-anchor="middle">WA</text><text class="division-label" x="500.8" y="208.5" text-anchor="middle">NT</text><text class="division-label" x="566.8" y="399.3" text-anchor="middle">SA</text><text class="division-label" x="663.5" y="181.5" text-anchor="middle">QLD</text><text class="division-label" x="721.5" y="418.5" text-anchor="middle">NSW</text><text class="division-label" x="665.0" y="458.7" text-anchor="middle">VIC</text><text class="division-label" x="730.1" y="570.8" text-anchor="middle">TAS</text><text class="division-label" x="769.7" y="454.8" text-anchor="middle">ACT</text>
<text class="map-note" x="20" y="600">States and territories are individually outlined and clickable.</text></svg>