<svg class="defined-map" viewBox="0 0 1000 620" xmlns="http://www.w3.org/2000/svg" role="img">
<style>.background{fill:#0d1823}.outline{fill:none;stroke:#a5f3f7;stroke-width:3;vector-effect:non-scaling-stroke}.division{fill:#17384a;stroke:#39d8e3;stroke-width:1.7;vector-effect:non-scaling-stroke;transition:.15s;cursor:pointer}a:hover .division{fill:#2a8398;stroke:#fff;stroke-width:2.8}.division-label{fill:#f2fbff;font:600 13px Arial,sans-serif;pointer-events:none;paint-order:stroke;stroke:#071016;stroke-width:4px}.map-note{fill:#7790a2;font:11px Arial,sans-serif}</style>
<rect class="background" width="1000" height="620"/><defs><clipPath id="clip"><path d="M 177.1,449.0 L 175.2,445.9 L 164.1,444.0 L 160.0,438.1 L 160.9,435.6 L 172.2,438.0 L 178.8,439.6 L 188.9,440.7 L 192.6,444.5 L 197.9,449.6 L 208.6,454.0 L 213.0,459.9 L 207.6,461.4 L 190.0,456.6 L 186.8,452.7 L 177.1,449.0 Z M 119.8,415.5 L 115.8,410.6 L 110.4,407.2 L 108.4,402.5 L 109.1,399.1 L 114.1,400.5 L 124.4,399.6 L 121.2,411.8 L 130.6,420.5 L 126.3,420.4 L 119.8,415.5 Z M 164.8,425.5 L 166.4,418.9 L 152.6,414.3 L 150.7,405.6 L 137.7,397.8 L 137.5,392.3 L 137.5,392.3 L 143.5,387.1 L 143.2,380.3 L 124.9,373.5 L 113.9,361.2 L 107.2,353.5 L 97.3,348.6 L 90.1,344.2 L 84.4,338.7 L 73.6,342.2 L 63.1,348.2 L 53.6,341.1 L 46.1,336.4 L 35.6,333.4 L 25.0,333.1 L 25.1,271.9 L 25.1,232.0 L 25.1,232.0 L 45.2,234.5 L 62.1,239.7 L 73.3,240.7 L 82.8,236.2 L 95.8,232.9 L 111.8,234.2 L 127.9,229.5 L 145.5,226.8 L 152.9,231.2 L 160.9,228.7 L 163.3,223.7 L 170.7,224.8 L 188.9,234.4 L 203.2,227.2 L 204.7,235.3 L 217.9,233.6 L 221.9,230.4 L 235.0,231.0 L 251.4,235.6 L 276.6,239.5 L 291.4,241.3 L 301.9,240.6 L 316.4,246.1 L 301.3,251.4 L 320.7,253.7 L 349.7,252.5 L 358.9,250.6 L 370.4,257.0 L 382.0,251.6 L 371.1,247.0 L 378.0,243.3 L 391.1,242.8 L 399.7,241.8 L 408.4,244.3 L 419.2,250.2 L 431.2,249.3 L 450.2,254.2 L 466.9,252.5 L 482.6,252.7 L 481.3,246.0 L 490.9,244.1 L 507.6,247.8 L 507.5,258.0 L 514.3,249.4 L 523.0,249.7 L 527.9,238.9 L 516.3,232.2 L 503.8,227.9 L 504.6,216.0 L 517.4,208.2 L 531.5,209.9 L 542.4,214.7 L 557.0,226.8 L 547.5,232.1 L 567.5,234.3 L 567.4,245.3 L 581.8,236.8 L 594.7,243.8 L 591.5,251.7 L 601.9,259.0 L 613.1,251.2 L 620.9,241.9 L 621.5,230.1 L 636.8,231.0 L 652.7,232.5 L 667.1,237.9 L 667.8,243.2 L 659.8,248.9 L 667.4,254.7 L 666.0,259.9 L 644.9,267.4 L 630.0,269.1 L 618.9,265.9 L 615.6,271.3 L 605.3,280.3 L 602.1,285.0 L 589.7,292.3 L 574.3,293.0 L 565.8,297.6 L 565.1,304.6 L 552.6,305.9 L 539.4,314.6 L 527.8,326.7 L 523.6,335.2 L 523.0,347.7 L 538.8,349.5 L 543.6,359.6 L 548.7,367.7 L 563.7,365.6 L 583.7,370.2 L 594.4,374.3 L 602.1,379.4 L 615.6,382.4 L 627.0,386.9 L 644.8,387.5 L 656.5,388.6 L 654.7,397.9 L 658.0,408.7 L 665.8,420.7 L 681.8,430.9 L 690.1,427.4 L 695.9,416.4 L 690.3,399.4 L 682.7,393.7 L 699.9,388.7 L 712.1,381.1 L 718.1,373.7 L 717.2,366.5 L 709.9,357.3 L 696.8,349.2 L 709.5,338.0 L 704.8,328.2 L 701.2,311.4 L 708.7,309.0 L 727.2,311.9 L 738.2,312.9 L 747.1,310.1 L 757.1,313.8 L 770.4,320.0 L 773.6,324.2 L 792.8,325.0 L 792.5,334.0 L 796.1,347.6 L 805.9,349.3 L 813.7,355.6 L 829.3,349.6 L 839.5,337.8 L 846.7,332.8 L 855.0,342.4 L 869.0,356.1 L 880.9,369.0 L 876.6,375.7 L 890.9,381.8 L 900.6,388.0 L 917.7,390.7 L 924.6,394.2 L 928.9,403.3 L 937.3,404.7 L 941.6,408.8 L 942.4,420.8 L 934.6,424.9 L 926.8,428.7 L 909.1,432.5 L 895.6,441.3 L 877.4,443.1 L 854.4,440.8 L 838.3,440.7 L 827.1,441.5 L 818.1,449.2 L 804.4,453.9 L 788.9,468.2 L 776.5,478.1 L 785.7,476.3 L 802.9,462.2 L 825.5,453.2 L 841.6,452.2 L 851.1,457.4 L 840.9,464.7 L 844.3,476.3 L 847.9,484.4 L 861.8,489.7 L 879.6,488.2 L 890.4,476.1 L 891.1,483.9 L 898.1,487.8 L 884.8,494.8 L 861.0,501.2 L 850.3,505.6 L 838.3,513.3 L 830.1,512.5 L 829.7,503.4 L 848.4,494.5 L 831.2,494.9 L 819.2,496.2 L 812.2,490.1 L 812.2,475.5 L 807.4,472.4 L 800.2,474.2 L 796.6,471.4 L 788.4,479.5 L 785.1,487.8 L 781.3,492.7 L 776.8,494.4 L 773.3,494.9 L 772.2,497.6 L 752.4,497.6 L 736.1,497.7 L 731.2,499.7 L 719.9,507.4 L 718.5,508.2 L 715.1,512.4 L 705.2,512.4 L 694.7,512.5 L 689.8,514.2 L 691.5,516.3 L 692.5,519.6 L 692.3,520.7 L 678.2,526.0 L 667.2,527.7 L 654.7,533.4 L 652.0,533.4 L 648.3,531.7 L 647.1,530.2 L 647.3,529.1 L 649.7,525.3 L 654.8,519.4 L 657.9,513.0 L 655.8,503.7 L 653.5,493.9 L 642.3,488.9 L 643.6,487.0 L 642.0,485.7 L 639.1,485.7 L 636.9,484.0 L 636.4,481.4 L 634.3,482.5 L 631.4,482.2 L 632.0,481.1 L 629.5,480.1 L 628.5,477.2 L 620.1,473.8 L 611.4,470.2 L 600.9,466.1 L 590.8,462.2 L 581.2,465.2 L 577.7,465.3 L 564.4,462.5 L 555.7,463.9 L 545.3,460.6 L 534.3,458.9 L 526.8,458.2 L 523.5,456.4 L 521.6,450.5 L 517.9,450.5 L 517.9,454.7 L 495.6,454.7 L 458.8,454.7 L 422.3,454.7 L 390.0,454.7 L 357.8,454.7 L 326.1,454.7 L 293.3,454.7 L 282.7,454.7 L 250.8,454.7 L 220.2,454.7 L 218.8,454.6 L 198.0,444.1 L 190.3,439.4 L 170.8,435.0 L 164.8,425.5 Z M 468.0,235.3 L 477.5,232.0 L 485.0,227.3 L 496.4,230.4 L 502.9,232.3 L 506.1,234.3 L 512.6,238.5 L 506.0,242.2 L 491.5,239.0 L 482.7,240.1 L 468.0,235.3 Z M 455.3,228.6 L 454.1,233.3 L 436.5,234.2 L 443.3,238.3 L 439.7,242.3 L 420.2,240.6 L 401.8,237.7 L 389.3,238.3 L 369.1,242.0 L 341.8,243.6 L 322.7,244.6 L 316.9,239.5 L 302.2,236.6 L 292.6,237.8 L 279.4,229.3 L 286.5,228.1 L 303.1,226.3 L 318.3,226.8 L 332.3,224.9 L 311.5,222.4 L 288.6,223.3 L 273.3,223.0 L 267.6,219.1 L 292.6,214.8 L 276.0,214.9 L 257.2,212.1 L 266.2,204.0 L 273.7,199.8 L 302.5,193.2 L 313.5,195.3 L 308.1,200.3 L 332.1,197.1 L 347.0,202.5 L 359.2,197.0 L 369.0,200.5 L 377.8,211.1 L 383.2,206.7 L 375.6,195.6 L 385.0,194.1 L 395.7,195.8 L 407.7,200.1 L 414.5,210.6 L 417.8,218.2 L 435.9,223.5 L 455.3,228.6 Z M 496.8,191.5 L 486.8,196.7 L 503.0,201.3 L 501.1,211.0 L 483.5,215.2 L 473.1,214.3 L 465.7,210.2 L 439.0,201.9 L 439.2,198.4 L 461.1,199.8 L 449.3,192.7 L 462.0,187.5 L 474.8,189.8 L 494.0,188.4 L 496.8,191.5 Z M 285.5,194.2 L 259.2,201.8 L 245.8,209.3 L 245.8,214.0 L 217.5,219.2 L 211.9,214.5 L 187.0,208.8 L 191.6,204.2 L 199.1,196.4 L 208.4,189.3 L 197.9,182.7 L 234.2,181.0 L 249.6,183.3 L 277.1,183.9 L 287.5,187.0 L 299.1,191.5 L 285.5,194.2 Z M 394.9,190.2 L 409.3,189.7 L 417.5,192.1 L 408.0,199.2 L 391.2,191.7 L 394.9,190.2 Z M 361.5,176.7 L 334.4,181.4 L 318.1,181.6 L 316.7,178.1 L 339.0,173.4 L 290.4,174.6 L 275.4,172.7 L 290.1,162.2 L 300.2,159.2 L 330.5,162.8 L 349.6,169.2 L 368.3,170.0 L 353.0,159.7 L 362.8,155.8 L 373.9,157.1 L 377.5,162.2 L 381.8,166.0 L 391.3,164.2 L 402.6,164.7 L 404.5,169.9 L 398.0,175.0 L 361.5,176.7 Z M 456.3,174.5 L 456.6,168.2 L 438.9,169.0 L 438.3,160.7 L 449.8,161.1 L 466.0,157.4 L 481.1,158.0 L 482.0,156.6 L 490.2,161.6 L 490.5,167.1 L 485.6,175.1 L 467.9,176.2 L 456.3,174.5 Z M 291.7,146.7 L 290.2,154.9 L 281.9,158.6 L 271.9,159.2 L 251.9,163.8 L 234.7,165.4 L 220.1,163.1 L 220.1,163.1 L 238.3,155.0 L 260.4,148.1 L 276.9,148.2 L 291.7,146.7 Z M 329.0,142.3 L 344.7,141.2 L 359.9,142.9 L 356.3,146.1 L 336.3,149.2 L 320.3,145.7 L 329.0,142.3 Z M 481.4,137.9 L 480.5,133.5 L 494.5,133.9 L 500.7,134.6 L 513.6,138.3 L 510.7,142.2 L 494.8,144.4 L 486.0,141.9 L 481.4,137.9 Z M 451.8,142.6 L 434.1,139.1 L 410.2,138.8 L 420.6,135.6 L 407.6,133.0 L 406.8,128.8 L 427.9,130.3 L 457.0,134.2 L 465.2,139.3 L 469.4,143.8 L 451.8,142.6 Z M 342.2,133.7 L 347.9,134.2 L 361.9,136.4 L 348.8,138.5 L 331.0,138.5 L 331.2,136.9 L 342.2,133.7 Z M 869.0,486.6 L 865.0,487.3 L 851.4,482.7 L 848.7,479.1 L 852.8,475.8 L 856.5,481.0 L 864.3,482.5 L 874.3,482.2 L 869.0,486.6 Z M 940.9,448.4 L 950.4,451.3 L 955.4,448.7 L 966.1,452.0 L 962.8,459.9 L 970.3,458.0 L 971.7,463.7 L 975.0,470.4 L 970.5,479.9 L 965.6,480.3 L 958.5,478.2 L 960.9,469.5 L 957.9,468.1 L 945.4,477.4 L 939.0,477.0 L 946.6,472.0 L 936.3,469.4 L 924.7,470.0 L 903.8,469.7 L 902.2,466.5 L 908.9,462.7 L 904.2,459.8 L 913.2,453.3 L 924.3,436.2 L 931.0,430.1 L 940.3,426.4 L 945.3,426.8 L 943.3,429.8 L 937.5,436.5 L 930.4,445.9 L 937.4,442.3 L 944.6,444.6 L 940.9,448.4 Z M 871.3,453.7 L 857.4,450.4 L 847.4,445.3 L 851.1,444.4 L 865.2,447.1 L 876.2,451.6 L 876.5,453.5 L 871.3,453.7 Z M 679.8,317.9 L 677.0,314.7 L 677.5,314.0 L 681.7,310.7 L 686.1,311.0 L 688.8,313.2 L 684.6,318.8 L 679.8,317.9 Z M 640.3,312.9 L 637.9,310.0 L 645.9,305.1 L 660.7,305.2 L 660.5,307.2 L 647.9,313.2 L 640.3,312.9 Z M 679.8,296.3 L 670.2,299.7 L 653.5,297.1 L 647.5,292.3 L 636.8,298.0 L 621.5,303.6 L 617.8,297.3 L 603.2,298.3 L 612.6,293.0 L 614.0,284.5 L 617.6,274.7 L 625.4,275.6 L 627.4,280.3 L 632.9,278.6 L 639.1,281.4 L 650.9,285.1 L 663.2,288.5 L 664.2,293.6 L 672.1,292.8 L 679.8,296.3 Z M 725.0,247.3 L 733.4,250.3 L 733.5,254.9 L 732.3,256.3 L 725.3,259.5 L 713.3,260.1 L 710.6,254.8 L 715.2,248.8 L 725.0,247.3 Z M 764.3,212.1 L 775.5,219.0 L 801.5,223.2 L 810.8,227.6 L 821.0,237.6 L 801.3,242.6 L 826.6,249.6 L 843.7,252.0 L 859.1,261.9 L 876.0,262.6 L 872.7,270.1 L 853.8,282.6 L 840.6,278.0 L 823.7,267.7 L 809.8,269.0 L 808.4,275.2 L 819.7,281.5 L 834.3,286.4 L 838.7,289.3 L 845.7,299.9 L 842.0,307.6 L 828.5,304.7 L 801.5,296.1 L 816.7,305.4 L 827.9,311.9 L 829.7,315.6 L 800.5,311.3 L 777.4,305.1 L 764.4,299.9 L 768.1,296.8 L 752.1,291.3 L 736.4,286.1 L 736.6,289.2 L 705.5,290.9 L 696.4,287.2 L 703.5,279.3 L 723.7,279.1 L 745.8,277.7 L 742.2,273.9 L 746.0,268.5 L 759.9,258.1 L 757.0,253.3 L 752.8,249.6 L 736.3,244.4 L 714.6,240.7 L 721.4,238.0 L 710.1,231.3 L 700.6,230.7 L 692.1,227.1 L 686.3,230.2 L 666.9,231.6 L 627.7,229.2 L 605.0,226.1 L 587.5,224.4 L 578.6,220.7 L 589.8,215.8 L 574.6,215.7 L 571.2,204.8 L 579.4,195.2 L 590.5,190.8 L 618.2,188.0 L 610.3,194.9 L 618.8,201.6 L 628.7,192.9 L 656.0,188.5 L 674.4,199.7 L 672.8,206.7 L 694.1,203.6 L 704.3,199.3 L 728.1,204.7 L 743.0,209.9 L 744.3,214.6 L 764.3,212.1 Z M 527.5,207.1 L 515.2,206.7 L 508.5,197.2 L 508.7,191.9 L 514.3,187.3 L 524.9,184.4 L 547.3,184.8 L 567.9,187.4 L 551.8,197.0 L 539.0,199.1 L 527.5,207.1 Z M 720.2,195.5 L 721.2,198.5 L 709.8,198.2 L 698.2,197.9 L 686.4,199.4 L 683.3,198.7 L 671.5,193.0 L 671.9,189.1 L 677.1,188.4 L 701.7,189.6 L 720.2,195.5 Z M 521.2,168.1 L 530.6,171.9 L 534.5,175.3 L 528.7,179.5 L 513.1,178.7 L 500.0,175.9 L 505.7,171.0 L 521.2,168.1 Z M 531.5,160.9 L 509.3,159.6 L 496.8,156.3 L 500.8,151.9 L 523.0,152.5 L 534.9,156.0 L 556.1,156.0 L 565.4,159.5 L 562.9,163.5 L 575.3,166.0 L 582.1,168.5 L 596.6,169.0 L 612.3,169.9 L 629.4,167.6 L 651.3,166.7 L 668.8,167.4 L 680.3,171.5 L 682.7,175.9 L 676.0,178.8 L 659.9,181.1 L 646.2,179.8 L 615.3,181.4 L 593.3,181.6 L 575.9,180.3 L 547.3,176.8 L 543.6,170.9 L 542.3,165.6 L 531.5,160.9 Z M 533.4,146.8 L 532.1,148.0 L 527.2,148.3 L 507.0,147.6 L 504.2,144.6 L 525.8,144.8 L 533.4,146.8 Z M 635.1,93.4 L 646.7,96.4 L 654.9,90.6 L 669.1,88.9 L 688.3,87.7 L 721.2,87.2 L 726.9,88.4 L 758.0,86.6 L 781.3,87.3 L 804.5,87.9 L 833.3,88.8 L 856.4,90.2 L 876.1,93.1 L 875.6,95.9 L 849.3,100.6 L 823.3,102.8 L 813.6,105.2 L 837.0,105.1 L 811.6,111.7 L 794.1,114.7 L 775.7,123.5 L 753.6,125.3 L 746.7,127.5 L 714.1,128.6 L 729.0,130.0 L 721.5,131.9 L 730.4,137.2 L 720.2,140.9 L 703.6,143.9 L 698.5,148.1 L 683.5,151.3 L 685.0,153.8 L 703.4,153.4 L 703.6,156.0 L 674.9,162.4 L 646.8,159.5 L 615.2,161.1 L 599.2,159.8 L 578.8,159.3 L 577.5,154.1 L 597.4,151.7 L 592.1,143.9 L 598.6,143.2 L 627.4,147.8 L 612.7,140.9 L 595.3,138.8 L 604.0,134.7 L 623.1,132.1 L 626.1,128.4 L 610.9,124.2 L 606.4,118.6 L 635.7,119.1 L 644.2,120.3 L 661.0,116.3 L 636.8,115.1 L 599.2,115.8 L 580.2,112.1 L 571.2,107.8 L 558.7,104.6 L 556.3,101.0 L 572.3,98.9 L 584.8,98.6 L 605.9,96.8 L 621.8,92.8 L 635.1,93.4 Z M 561.2,113.6 L 579.3,115.9 L 596.9,117.9 L 605.4,125.0 L 618.4,128.5 L 603.6,131.7 L 583.7,139.8 L 564.7,140.5 L 542.4,139.1 L 530.9,134.8 L 531.0,130.9 L 539.5,128.0 L 519.9,128.1 L 508.0,124.5 L 501.2,119.6 L 508.7,114.9 L 516.1,111.6 L 527.1,110.8 L 522.4,108.4 L 547.5,107.8 L 561.2,113.6 Z"/></clipPath></defs>
<g clip-path="url(#clip)"><a href="../../region.html?country=canada&amp;region=Yukon" data-region="Yukon"><path class="division" d="M 218.5,336.4 L 46.1,336.4 L 35.6,333.4 L 25.0,333.1 L 25.1,271.9 L 25.1,232.0 L 25.1,232.0 L 45.2,234.5 L 62.1,239.7 L 73.3,240.7 L 82.8,236.2 L 95.8,232.9 L 111.8,234.2 L 127.9,229.5 L 131.8,228.9 L 148.9,228.9 L 152.9,231.2 L 160.4,228.9 L 178.4,228.9 L 188.9,234.4 L 199.9,228.9 L 203.5,228.9 L 204.7,235.3 L 217.9,233.6 L 218.5,233.0 L 218.5,336.4 Z"><title>Yukon</title></path></a><a href="../../region.html?country=canada&amp;region=Northwest%20Territories" data-region="Northwest Territories"><path class="division" d="M 444.3,336.4 L 78.7,336.4 L 78.7,238.1 L 82.8,236.2 L 95.8,232.9 L 111.8,234.2 L 127.9,229.5 L 145.5,226.8 L 152.9,231.2 L 160.9,228.7 L 163.3,223.7 L 170.7,224.8 L 188.9,234.4 L 203.2,227.2 L 204.7,235.3 L 217.9,233.6 L 221.9,230.4 L 235.0,231.0 L 251.4,235.6 L 276.6,239.5 L 291.4,241.3 L 301.9,240.6 L 316.4,246.1 L 301.3,251.4 L 320.7,253.7 L 349.7,252.5 L 358.9,250.6 L 370.4,257.0 L 382.0,251.6 L 371.1,247.0 L 378.0,243.3 L 391.1,242.8 L 399.7,241.8 L 408.4,244.3 L 419.2,250.2 L 431.2,249.3 L 444.3,252.7 L 444.3,336.4 Z M 444.3,233.8 L 436.5,234.2 L 443.3,238.3 L 439.7,242.3 L 420.2,240.6 L 401.8,237.7 L 389.3,238.3 L 369.1,242.0 L 341.8,243.6 L 322.7,244.6 L 316.9,239.5 L 302.2,236.6 L 292.6,237.8 L 279.4,229.3 L 286.5,228.1 L 303.1,226.3 L 318.3,226.8 L 332.3,224.9 L 311.5,222.4 L 288.6,223.3 L 273.3,223.0 L 267.6,219.1 L 292.6,214.8 L 276.0,214.9 L 257.2,212.1 L 266.2,204.0 L 273.7,199.8 L 287.6,196.6 L 312.1,196.6 L 308.1,200.3 L 332.1,197.1 L 347.0,202.5 L 359.2,197.0 L 369.0,200.5 L 377.8,211.1 L 383.2,206.7 L 376.2,196.6 L 398.0,196.6 L 407.7,200.1 L 414.5,210.6 L 417.8,218.2 L 435.9,223.5 L 444.3,225.7 L 444.3,233.8 Z M 444.3,203.5 L 439.0,201.9 L 439.2,198.4 L 444.3,198.7 L 444.3,203.5 Z M 411.4,196.6 L 408.0,199.2 L 402.2,196.6 L 411.4,196.6 Z M 277.2,196.6 L 259.2,201.8 L 245.8,209.3 L 245.8,214.0 L 217.5,219.2 L 211.9,214.5 L 187.0,208.8 L 191.6,204.2 L 198.9,196.6 L 277.2,196.6 Z"><title>Northwest Territories</title></path></a><a href="../../region.html?country=canada&amp;region=Nunavut" data-region="Nunavut"><path class="division" d="M 838.3,89.1 L 856.4,90.2 L 876.1,93.1 L 875.6,95.9 L 849.3,100.6 L 823.3,102.8 L 813.6,105.2 L 837.0,105.1 L 811.6,111.7 L 794.1,114.7 L 775.7,123.5 L 753.6,125.3 L 746.7,127.5 L 714.1,128.6 L 729.0,130.0 L 721.5,131.9 L 730.4,137.2 L 720.2,140.9 L 703.6,143.9 L 698.5,148.1 L 683.5,151.3 L 685.0,153.8 L 703.4,153.4 L 703.6,156.0 L 674.9,162.4 L 646.8,159.5 L 615.2,161.1 L 599.2,159.8 L 578.8,159.3 L 577.5,154.1 L 597.4,151.7 L 592.1,143.9 L 598.6,143.2 L 627.4,147.8 L 612.7,140.9 L 595.3,138.8 L 604.0,134.7 L 623.1,132.1 L 626.1,128.4 L 610.9,124.2 L 606.4,118.6 L 635.7,119.1 L 644.2,120.3 L 661.0,116.3 L 636.8,115.1 L 599.2,115.8 L 580.2,112.1 L 571.2,107.8 L 558.7,104.6 L 556.3,101.0 L 572.3,98.9 L 584.8,98.6 L 605.9,96.8 L 621.8,92.8 L 635.1,93.4 L 646.7,96.4 L 654.9,90.6 L 667.3,89.1 L 838.3,89.1 Z M 358.3,135.8 L 361.9,136.4 L 358.3,136.9 L 358.3,135.8 Z M 358.3,142.7 L 359.9,142.9 L 358.3,144.3 L 358.3,142.7 Z M 358.3,157.6 L 362.8,155.8 L 373.9,157.1 L 377.5,162.2 L 381.8,166.0 L 391.3,164.2 L 402.6,164.7 L 404.5,169.9 L 398.0,175.0 L 361.5,176.7 L 358.3,177.3 L 358.3,169.6 L 368.3,170.0 L 358.3,163.3 L 358.3,157.6 Z M 358.3,197.4 L 359.2,197.0 L 369.0,200.5 L 377.8,211.1 L 383.2,206.7 L 375.6,195.6 L 385.0,194.1 L 395.7,195.8 L 407.7,200.1 L 414.5,210.6 L 417.8,218.2 L 435.9,223.5 L 455.3,228.6 L 454.1,233.3 L 436.5,234.2 L 443.3,238.3 L 439.7,242.3 L 420.2,240.6 L 401.8,237.7 L 389.3,238.3 L 369.1,242.0 L 358.3,242.6 L 358.3,197.4 Z M 358.3,336.4 L 358.3,250.7 L 358.9,250.6 L 370.4,257.0 L 382.0,251.6 L 371.1,247.0 L 378.0,243.3 L 391.1,242.8 L 399.7,241.8 L 408.4,244.3 L 419.2,250.2 L 431.2,249.3 L 450.2,254.2 L 466.9,252.5 L 482.6,252.7 L 481.3,246.0 L 490.9,244.1 L 507.6,247.8 L 507.5,258.0 L 514.3,249.4 L 523.0,249.7 L 527.9,238.9 L 516.3,232.2 L 503.8,227.9 L 504.6,216.0 L 517.4,208.2 L 531.5,209.9 L 542.4,214.7 L 557.0,226.8 L 547.5,232.1 L 567.5,234.3 L 567.4,245.3 L 581.8,236.8 L 594.7,243.8 L 591.5,251.7 L 601.9,259.0 L 613.1,251.2 L 620.9,241.9 L 621.5,230.1 L 636.8,231.0 L 652.7,232.5 L 667.1,237.9 L 667.8,243.2 L 659.8,248.9 L 667.4,254.7 L 666.0,259.9 L 644.9,267.4 L 630.0,269.1 L 618.9,265.9 L 615.6,271.3 L 605.3,280.3 L 602.1,285.0 L 589.7,292.3 L 574.3,293.0 L 565.8,297.6 L 565.1,304.6 L 552.6,305.9 L 539.4,314.6 L 527.8,326.7 L 523.6,335.2 L 523.5,336.4 L 358.3,336.4 Z M 708.8,336.4 L 704.8,328.2 L 701.2,311.4 L 708.7,309.0 L 727.2,311.9 L 738.2,312.9 L 747.1,310.1 L 757.1,313.8 L 770.4,320.0 L 773.6,324.2 L 792.8,325.0 L 792.5,334.0 L 793.1,336.4 L 708.8,336.4 Z M 841.5,336.4 L 846.7,332.8 L 849.8,336.4 L 841.5,336.4 Z M 477.5,232.0 L 485.0,227.3 L 496.4,230.4 L 502.9,232.3 L 506.1,234.3 L 512.6,238.5 L 506.0,242.2 L 491.5,239.0 L 482.7,240.1 L 468.0,235.3 L 477.5,232.0 Z M 486.8,196.7 L 503.0,201.3 L 501.1,211.0 L 483.5,215.2 L 473.1,214.3 L 465.7,210.2 L 439.0,201.9 L 439.2,198.4 L 461.1,199.8 L 449.3,192.7 L 462.0,187.5 L 474.8,189.8 L 494.0,188.4 L 496.8,191.5 L 486.8,196.7 Z M 409.3,189.7 L 417.5,192.1 L 408.0,199.2 L 391.2,191.7 L 394.9,190.2 L 409.3,189.7 Z M 456.6,168.2 L 438.9,169.0 L 438.3,160.7 L 449.8,161.1 L 466.0,157.4 L 481.1,158.0 L 482.0,156.6 L 490.2,161.6 L 490.5,167.1 L 485.6,175.1 L 467.9,176.2 L 456.3,174.5 L 456.6,168.2 Z M 480.5,133.5 L 494.5,133.9 L 500.7,134.6 L 513.6,138.3 L 510.7,142.2 L 494.8,144.4 L 486.0,141.9 L 481.4,137.9 L 480.5,133.5 Z M 434.1,139.1 L 410.2,138.8 L 420.6,135.6 L 407.6,133.0 L 406.8,128.8 L 427.9,130.3 L 457.0,134.2 L 465.2,139.3 L 469.4,143.8 L 451.8,142.6 L 434.1,139.1 Z M 677.0,314.7 L 677.5,314.0 L 681.7,310.7 L 686.1,311.0 L 688.8,313.2 L 684.6,318.8 L 679.8,317.9 L 677.0,314.7 Z M 637.9,310.0 L 645.9,305.1 L 660.7,305.2 L 660.5,307.2 L 647.9,313.2 L 640.3,312.9 L 637.9,310.0 Z M 670.2,299.7 L 653.5,297.1 L 647.5,292.3 L 636.8,298.0 L 621.5,303.6 L 617.8,297.3 L 603.2,298.3 L 612.6,293.0 L 614.0,284.5 L 617.6,274.7 L 625.4,275.6 L 627.4,280.3 L 632.9,278.6 L 639.1,281.4 L 650.9,285.1 L 663.2,288.5 L 664.2,293.6 L 672.1,292.8 L 679.8,296.3 L 670.2,299.7 Z M 733.4,250.3 L 733.5,254.9 L 732.3,256.3 L 725.3,259.5 L 713.3,260.1 L 710.6,254.8 L 715.2,248.8 L 725.0,247.3 L 733.4,250.3 Z M 775.5,219.0 L 801.5,223.2 L 810.8,227.6 L 821.0,237.6 L 801.3,242.6 L 826.6,249.6 L 843.7,252.0 L 859.1,261.9 L 876.0,262.6 L 872.7,270.1 L 853.8,282.6 L 840.6,278.0 L 823.7,267.7 L 809.8,269.0 L 808.4,275.2 L 819.7,281.5 L 834.3,286.4 L 838.7,289.3 L 845.7,299.9 L 842.0,307.6 L 828.5,304.7 L 801.5,296.1 L 816.7,305.4 L 827.9,311.9 L 829.7,315.6 L 800.5,311.3 L 777.4,305.1 L 764.4,299.9 L 768.1,296.8 L 752.1,291.3 L 736.4,286.1 L 736.6,289.2 L 705.5,290.9 L 696.4,287.2 L 703.5,279.3 L 723.7,279.1 L 745.8,277.7 L 742.2,273.9 L 746.0,268.5 L 759.9,258.1 L 757.0,253.3 L 752.8,249.6 L 736.3,244.4 L 714.6,240.7 L 721.4,238.0 L 710.1,231.3 L 700.6,230.7 L 692.1,227.1 L 686.3,230.2 L 666.9,231.6 L 627.7,229.2 L 605.0,226.1 L 587.5,224.4 L 578.6,220.7 L 589.8,215.8 L 574.6,215.7 L 571.2,204.8 L 579.4,195.2 L 590.5,190.8 L 618.2,188.0 L 610.3,194.9 L 618.8,201.6 L 628.7,192.9 L 656.0,188.5 L 674.4,199.7 L 672.8,206.7 L 694.1,203.6 L 704.3,199.3 L 728.1,204.7 L 743.0,209.9 L 744.3,214.6 L 764.3,212.1 L 775.5,219.0 Z M 515.2,206.7 L 508.5,197.2 L 508.7,191.9 L 514.3,187.3 L 524.9,184.4 L 547.3,184.8 L 567.9,187.4 L 551.8,197.0 L 539.0,199.1 L 527.5,207.1 L 515.2,206.7 Z M 721.2,198.5 L 709.8,198.2 L 698.2,197.9 L 686.4,199.4 L 683.3,198.7 L 671.5,193.0 L 671.9,189.1 L 677.1,188.4 L 701.7,189.6 L 720.2,195.5 L 721.2,198.5 Z M 530.6,171.9 L 534.5,175.3 L 528.7,179.5 L 513.1,178.7 L 500.0,175.9 L 505.7,171.0 L 521.2,168.1 L 530.6,171.9 Z M 509.3,159.6 L 496.8,156.3 L 500.8,151.9 L 523.0,152.5 L 534.9,156.0 L 556.1,156.0 L 565.4,159.5 L 562.9,163.5 L 575.3,166.0 L 582.1,168.5 L 596.6,169.0 L 612.3,169.9 L 629.4,167.6 L 651.3,166.7 L 668.8,167.4 L 680.3,171.5 L 682.7,175.9 L 676.0,178.8 L 659.9,181.1 L 646.2,179.8 L 615.3,181.4 L 593.3,181.6 L 575.9,180.3 L 547.3,176.8 L 543.6,170.9 L 542.3,165.6 L 531.5,160.9 L 509.3,159.6 Z M 532.1,148.0 L 527.2,148.3 L 507.0,147.6 L 504.2,144.6 L 525.8,144.8 L 533.4,146.8 L 532.1,148.0 Z M 579.3,115.9 L 596.9,117.9 L 605.4,125.0 L 618.4,128.5 L 603.6,131.7 L 583.7,139.8 L 564.7,140.5 L 542.4,139.1 L 530.9,134.8 L 531.0,130.9 L 539.5,128.0 L 519.9,128.1 L 508.0,124.5 L 501.2,119.6 L 508.7,114.9 L 516.1,111.6 L 527.1,110.8 L 522.4,108.4 L 547.5,107.8 L 561.2,113.6 L 579.3,115.9 Z"><title>Nunavut</title></path></a><a href="../../region.html?country=canada&amp;region=British%20Columbia" data-region="British Columbia"><path class="division" d="M 46.5,336.4 L 315.3,336.4 L 315.3,454.7 L 293.3,454.7 L 282.7,454.7 L 250.8,454.7 L 220.2,454.7 L 218.8,454.6 L 198.0,444.1 L 190.3,439.4 L 170.8,435.0 L 164.8,425.5 L 166.4,418.9 L 152.6,414.3 L 150.7,405.6 L 137.7,397.8 L 137.5,392.3 L 137.5,392.3 L 143.5,387.1 L 143.2,380.3 L 124.9,373.5 L 113.9,361.2 L 107.2,353.5 L 97.3,348.6 L 90.1,344.2 L 84.4,338.7 L 73.6,342.2 L 63.1,348.2 L 53.6,341.1 L 46.5,336.7 L 46.5,336.4 Z M 175.2,445.9 L 164.1,444.0 L 160.0,438.1 L 160.9,435.6 L 172.2,438.0 L 178.8,439.6 L 188.9,440.7 L 192.6,444.5 L 197.9,449.6 L 208.6,454.0 L 213.0,459.9 L 207.6,461.4 L 190.0,456.6 L 186.8,452.7 L 177.1,449.0 L 175.2,445.9 Z M 115.8,410.6 L 110.4,407.2 L 108.4,402.5 L 109.1,399.1 L 114.1,400.5 L 124.4,399.6 L 121.2,411.8 L 130.6,420.5 L 126.3,420.4 L 119.8,415.5 L 115.8,410.6 Z"><title>British Columbia</title></path></a><a href="../../region.html?country=canada&amp;region=Alberta" data-region="Alberta"><path class="division" d="M 250.8,336.4 L 358.3,336.4 L 358.3,454.7 L 357.8,454.7 L 326.1,454.7 L 293.3,454.7 L 282.7,454.7 L 250.8,454.7 L 250.8,336.4 Z"><title>Alberta</title></path></a><a href="../../region.html?country=canada&amp;region=Saskatchewan" data-region="Saskatchewan"><path class="division" d="M 358.3,336.4 L 455.1,336.4 L 455.1,454.7 L 390.0,454.7 L 358.3,454.7 L 358.3,336.4 Z"><title>Saskatchewan</title></path></a><a href="../../region.html?country=canada&amp;region=Manitoba" data-region="Manitoba"><path class="division" d="M 584.1,454.7 L 522.9,454.7 L 521.6,450.5 L 517.9,450.5 L 517.9,454.7 L 495.6,454.7 L 458.8,454.7 L 458.8,454.7 L 455.1,454.7 L 455.1,336.4 L 523.5,336.4 L 523.0,347.7 L 538.8,349.5 L 543.6,359.6 L 548.7,367.7 L 563.7,365.6 L 583.7,370.2 L 584.1,370.4 L 584.1,454.7 Z"><title>Manitoba</title></path></a><a href="../../region.html?country=canada&amp;region=Ontario" data-region="Ontario"><path class="division" d="M 523.1,455.3 L 521.6,450.5 L 517.9,450.5 L 517.9,454.7 L 495.6,454.7 L 458.8,454.7 L 458.8,454.7 L 455.1,454.7 L 455.1,336.4 L 523.5,336.4 L 523.0,347.7 L 538.8,349.5 L 543.6,359.6 L 548.7,367.7 L 563.7,365.6 L 583.7,370.2 L 594.4,374.3 L 602.1,379.4 L 615.6,382.4 L 627.0,386.9 L 644.8,387.5 L 656.5,388.6 L 654.7,397.9 L 658.0,408.7 L 665.8,420.7 L 681.8,430.9 L 690.1,427.4 L 695.9,416.4 L 690.3,399.4 L 682.7,393.7 L 699.9,388.7 L 712.1,381.1 L 718.1,373.7 L 717.2,366.5 L 713.9,362.3 L 745.4,368.6 L 745.4,497.6 L 745.2,497.6 L 620.1,473.8 L 620.1,473.8 L 611.4,470.2 L 600.9,466.1 L 590.8,462.2 L 581.2,465.2 L 577.7,465.3 L 564.4,462.5 L 562.5,462.8 L 523.1,455.3 Z"><title>Ontario</title></path></a><a href="../../region.html?country=canada&amp;region=Quebec" data-region="Quebec"><path class="division" d="M 680.9,497.7 L 611.1,381.4 L 615.6,382.4 L 627.0,386.9 L 644.8,387.5 L 656.5,388.6 L 654.7,397.9 L 658.0,408.7 L 665.8,420.7 L 681.8,430.9 L 690.1,427.4 L 695.9,416.4 L 690.3,399.4 L 682.7,393.7 L 699.9,388.7 L 712.1,381.1 L 718.1,373.7 L 717.2,366.5 L 709.9,357.3 L 696.8,349.2 L 709.5,338.0 L 704.8,328.2 L 701.6,312.9 L 715.7,310.1 L 727.2,311.9 L 738.2,312.9 L 747.1,310.1 L 757.1,313.8 L 770.4,320.0 L 773.6,324.2 L 792.8,325.0 L 792.5,334.0 L 796.1,347.6 L 805.9,349.3 L 813.7,355.6 L 829.3,349.6 L 839.5,337.8 L 846.7,332.8 L 855.0,342.4 L 869.0,356.1 L 880.9,369.0 L 876.6,375.7 L 890.9,381.8 L 900.6,388.0 L 917.7,390.7 L 924.6,394.2 L 928.2,401.8 L 928.2,428.0 L 926.8,428.7 L 909.1,432.5 L 895.6,441.3 L 877.4,443.1 L 854.4,440.8 L 838.3,440.7 L 827.1,441.5 L 818.1,449.2 L 804.4,453.9 L 788.9,468.2 L 776.5,478.1 L 785.7,476.3 L 802.9,462.2 L 825.5,453.2 L 841.6,452.2 L 851.1,457.4 L 840.9,464.7 L 844.3,476.3 L 847.9,484.4 L 861.8,489.7 L 879.6,488.2 L 890.4,476.1 L 891.1,483.9 L 898.1,487.8 L 884.8,494.8 L 874.2,497.7 L 841.8,497.7 L 848.4,494.5 L 831.2,494.9 L 819.2,496.2 L 812.2,490.1 L 812.2,475.5 L 807.4,472.4 L 800.2,474.2 L 796.6,471.4 L 788.4,479.5 L 785.1,487.8 L 781.3,492.7 L 776.8,494.4 L 773.3,494.9 L 772.2,497.6 L 752.4,497.6 L 736.1,497.7 L 736.1,497.7 L 680.9,497.7 Z M 928.2,469.8 L 924.7,470.0 L 903.8,469.7 L 902.2,466.5 L 908.9,462.7 L 904.2,459.8 L 913.2,453.3 L 924.3,436.2 L 928.2,432.7 L 928.2,469.8 Z M 843.7,304.1 L 842.0,307.6 L 828.5,304.7 L 826.6,304.1 L 843.7,304.1 Z M 814.7,304.1 L 816.7,305.4 L 827.9,311.9 L 829.7,315.6 L 800.5,311.3 L 777.4,305.1 L 775.0,304.1 L 814.7,304.1 Z M 686.8,315.9 L 684.6,318.8 L 679.8,317.9 L 679.3,317.3 L 686.8,315.9 Z M 865.0,487.3 L 851.4,482.7 L 848.7,479.1 L 852.8,475.8 L 856.5,481.0 L 864.3,482.5 L 874.3,482.2 L 869.0,486.6 L 865.0,487.3 Z M 857.4,450.4 L 847.4,445.3 L 851.1,444.4 L 865.2,447.1 L 876.2,451.6 L 876.5,453.5 L 871.3,453.7 L 857.4,450.4 Z"><title>Quebec</title></path></a><a href="../../region.html?country=canada&amp;region=New%20Brunswick" data-region="New Brunswick"><path class="division" d="M 863.7,500.5 L 861.0,501.2 L 850.3,505.6 L 845.9,508.4 L 829.9,508.4 L 829.7,503.4 L 848.4,494.5 L 831.2,494.9 L 819.2,496.2 L 812.2,490.1 L 812.2,475.5 L 807.4,472.4 L 800.2,474.2 L 799.2,473.4 L 799.2,465.4 L 841.2,465.4 L 844.3,476.3 L 847.9,484.4 L 861.8,489.7 L 863.7,489.6 L 863.7,500.5 Z M 863.7,486.8 L 851.4,482.7 L 848.7,479.1 L 852.8,475.8 L 856.5,481.0 L 863.7,482.3 L 863.7,486.8 Z"><title>New Brunswick</title></path></a><a href="../../region.html?country=canada&amp;region=Nova%20Scotia" data-region="Nova Scotia"><path class="division" d="M 890.4,476.2 L 891.1,483.9 L 898.1,487.8 L 884.8,494.8 L 861.0,501.2 L 850.3,505.6 L 838.3,513.3 L 831.4,512.7 L 831.4,502.6 L 848.4,494.5 L 831.4,494.9 L 831.4,476.2 L 844.3,476.2 L 844.3,476.3 L 847.9,484.4 L 861.8,489.7 L 879.6,488.2 L 890.3,476.2 L 890.4,476.2 Z M 853.1,476.2 L 856.5,481.0 L 864.3,482.5 L 874.3,482.2 L 869.0,486.6 L 865.0,487.3 L 851.4,482.7 L 848.7,479.1 L 852.3,476.2 L 853.1,476.2 Z"><title>Nova Scotia</title></path></a><a href="../../region.html?country=canada&amp;region=Prince%20Edward%20Island" data-region="Prince Edward Island"><path class="division" d="M 876.6,489.1 L 869.3,489.1 L 876.6,488.4 L 876.6,489.1 Z M 845.4,489.1 L 845.4,478.7 L 847.9,484.4 L 860.1,489.1 L 845.4,489.1 Z M 865.0,487.3 L 851.4,482.7 L 848.7,479.1 L 852.8,475.8 L 856.5,481.0 L 864.3,482.5 L 874.3,482.2 L 869.0,486.6 L 865.0,487.3 Z"><title>Prince Edward Island</title></path></a><a href="../../region.html?country=canada&amp;region=Newfoundland%20and%20Labrador" data-region="Newfoundland and Labrador"><path class="division" d="M 842.2,335.9 L 846.7,332.8 L 855.0,342.4 L 869.0,356.1 L 880.9,369.0 L 876.6,375.7 L 890.9,381.8 L 900.6,388.0 L 917.7,390.7 L 924.6,394.2 L 928.9,403.3 L 937.3,404.7 L 941.6,408.8 L 942.4,420.8 L 934.6,424.9 L 926.8,428.7 L 909.1,432.5 L 895.6,441.3 L 877.4,443.1 L 854.4,440.8 L 842.2,440.7 L 842.2,335.9 Z M 842.2,452.5 L 851.1,457.4 L 842.2,463.8 L 842.2,452.5 Z M 842.2,486.9 L 842.2,468.9 L 844.3,476.3 L 847.9,484.4 L 854.5,486.9 L 842.2,486.9 Z M 864.0,486.9 L 851.4,482.7 L 848.7,479.1 L 852.8,475.8 L 856.5,481.0 L 864.3,482.5 L 874.3,482.2 L 869.0,486.6 L 867.0,486.9 L 864.0,486.9 Z M 880.7,486.9 L 890.4,476.1 L 891.1,483.9 L 896.5,486.9 L 880.7,486.9 Z M 950.4,451.3 L 955.4,448.7 L 966.1,452.0 L 962.8,459.9 L 970.3,458.0 L 971.7,463.7 L 975.0,470.4 L 970.5,479.9 L 965.6,480.3 L 958.5,478.2 L 960.9,469.5 L 957.9,468.1 L 945.4,477.4 L 939.0,477.0 L 946.6,472.0 L 936.3,469.4 L 924.7,470.0 L 903.8,469.7 L 902.2,466.5 L 908.9,462.7 L 904.2,459.8 L 913.2,453.3 L 924.3,436.2 L 931.0,430.1 L 940.3,426.4 L 945.3,426.8 L 943.3,429.8 L 937.5,436.5 L 930.4,445.9 L 937.4,442.3 L 944.6,444.6 L 940.9,448.4 L 950.4,451.3 Z M 857.4,450.4 L 847.4,445.3 L 851.1,444.4 L 865.2,447.1 L 876.2,451.6 L 876.5,453.5 L 871.3,453.7 L 857.4,450.4 Z"><title>Newfoundland and Labrador</title></path></a></g><path class="outline" d="M 177.1,449.0 L 175.2,445.9 L 164.1,444.0 L 160.0,438.1 L 160.9,435.6 L 172.2,438.0 L 178.8,439.6 L 188.9,440.7 L 192.6,444.5 L 197.9,449.6 L 208.6,454.0 L 213.0,459.9 L 207.6,461.4 L 190.0,456.6 L 186.8,452.7 L 177.1,449.0 Z M 119.8,415.5 L 115.8,410.6 L 110.4,407.2 L 108.4,402.5 L 109.1,399.1 L 114.1,400.5 L 124.4,399.6 L 121.2,411.8 L 130.6,420.5 L 126.3,420.4 L 119.8,415.5 Z M 164.8,425.5 L 166.4,418.9 L 152.6,414.3 L 150.7,405.6 L 137.7,397.8 L 137.5,392.3 L 137.5,392.3 L 143.5,387.1 L 143.2,380.3 L 124.9,373.5 L 113.9,361.2 L 107.2,353.5 L 97.3,348.6 L 90.1,344.2 L 84.4,338.7 L 73.6,342.2 L 63.1,348.2 L 53.6,341.1 L 46.1,336.4 L 35.6,333.4 L 25.0,333.1 L 25.1,271.9 L 25.1,232.0 L 25.1,232.0 L 45.2,234.5 L 62.1,239.7 L 73.3,240.7 L 82.8,236.2 L 95.8,232.9 L 111.8,234.2 L 127.9,229.5 L 145.5,226.8 L 152.9,231.2 L 160.9,228.7 L 163.3,223.7 L 170.7,224.8 L 188.9,234.4 L 203.2,227.2 L 204.7,235.3 L 217.9,233.6 L 221.9,230.4 L 235.0,231.0 L 251.4,235.6 L 276.6,239.5 L 291.4,241.3 L 301.9,240.6 L 316.4,246.1 L 301.3,251.4 L 320.7,253.7 L 349.7,252.5 L 358.9,250.6 L 370.4,257.0 L 382.0,251.6 L 371.1,247.0 L 378.0,243.3 L 391.1,242.8 L 399.7,241.8 L 408.4,244.3 L 419.2,250.2 L 431.2,249.3 L 450.2,254.2 L 466.9,252.5 L 482.6,252.7 L 481.3,246.0 L 490.9,244.1 L 507.6,247.8 L 507.5,258.0 L 514.3,249.4 L 523.0,249.7 L 527.9,238.9 L 516.3,232.2 L 503.8,227.9 L 504.6,216.0 L 517.4,208.2 L 531.5,209.9 L 542.4,214.7 L 557.0,226.8 L 547.5,232.1 L 567.5,234.3 L 567.4,245.3 L 581.8,236.8 L 594.7,243.8 L 591.5,251.7 L 601.9,259.0 L 613.1,251.2 L 620.9,241.9 L 621.5,230.1 L 636.8,231.0 L 652.7,232.5 L 667.1,237.9 L 667.8,243.2 L 659.8,248.9 L 667.4,254.7 L 666.0,259.9 L 644.9,267.4 L 630.0,269.1 L 618.9,265.9 L 615.6,271.3 L 605.3,280.3 L 602.1,285.0 L 589.7,292.3 L 574.3,293.0 L 565.8,297.6 L 565.1,304.6 L 552.6,305.9 L 539.4,314.6 L 527.8,326.7 L 523.6,335.2 L 523.0,347.7 L 538.8,349.5 L 543.6,359.6 L 548.7,367.7 L 563.7,365.6 L 583.7,370.2 L 594.4,374.3 L 602.1,379.4 L 615.6,382.4 L 627.0,386.9 L 644.8,387.5 L 656.5,388.6 L 654.7,397.9 L 658.0,408.7 L 665.8,420.7 L 681.8,430.9 L 690.1,427.4 L 695.9,416.4 L 690.3,399.4 L 682.7,393.7 L 699.9,388.7 L 712.1,381.1 L 718.1,373.7 L 717.2,366.5 L 709.9,357.3 L 696.8,349.2 L 709.5,338.0 L 704.8,328.2 L 701.2,311.4 L 708.7,309.0 L 727.2,311.9 L 738.2,312.9 L 747.1,310.1 L 757.1,313.8 L 770.4,320.0 L 773.6,324.2 L 792.8,325.0 L 792.5,334.0 L 796.1,347.6 L 805.9,349.3 L 813.7,355.6 L 829.3,349.6 L 839.5,337.8 L 846.7,332.8 L 855.0,342.4 L 869.0,356.1 L 880.9,369.0 L 876.6,375.7 L 890.9,381.8 L 900.6,388.0 L 917.7,390.7 L 924.6,394.2 L 928.9,403.3 L 937.3,404.7 L 941.6,408.8 L 942.4,420.8 L 934.6,424.9 L 926.8,428.7 L 909.1,432.5 L 895.6,441.3 L 877.4,443.1 L 854.4,440.8 L 838.3,440.7 L 827.1,441.5 L 818.1,449.2 L 804.4,453.9 L 788.9,468.2 L 776.5,478.1 L 785.7,476.3 L 802.9,462.2 L 825.5,453.2 L 841.6,452.2 L 851.1,457.4 L 840.9,464.7 L 844.3,476.3 L 847.9,484.4 L 861.8,489.7 L 879.6,488.2 L 890.4,476.1 L 891.1,483.9 L 898.1,487.8 L 884.8,494.8 L 861.0,501.2 L 850.3,505.6 L 838.3,513.3 L 830.1,512.5 L 829.7,503.4 L 848.4,494.5 L 831.2,494.9 L 819.2,496.2 L 812.2,490.1 L 812.2,475.5 L 807.4,472.4 L 800.2,474.2 L 796.6,471.4 L 788.4,479.5 L 785.1,487.8 L 781.3,492.7 L 776.8,494.4 L 773.3,494.9 L 772.2,497.6 L 752.4,497.6 L 736.1,497.7 L 731.2,499.7 L 719.9,507.4 L 718.5,508.2 L 715.1,512.4 L 705.2,512.4 L 694.7,512.5 L 689.8,514.2 L 691.5,516.3 L 692.5,519.6 L 692.3,520.7 L 678.2,526.0 L 667.2,527.7 L 654.7,533.4 L 652.0,533.4 L 648.3,531.7 L 647.1,530.2 L 647.3,529.1 L 649.7,525.3 L 654.8,519.4 L 657.9,513.0 L 655.8,503.7 L 653.5,493.9 L 642.3,488.9 L 643.6,487.0 L 642.0,485.7 L 639.1,485.7 L 636.9,484.0 L 636.4,481.4 L 634.3,482.5 L 631.4,482.2 L 632.0,481.1 L 629.5,480.1 L 628.5,477.2 L 620.1,473.8 L 611.4,470.2 L 600.9,466.1 L 590.8,462.2 L 581.2,465.2 L 577.7,465.3 L 564.4,462.5 L 555.7,463.9 L 545.3,460.6 L 534.3,458.9 L 526.8,458.2 L 523.5,456.4 L 521.6,450.5 L 517.9,450.5 L 517.9,454.7 L 495.6,454.7 L 458.8,454.7 L 422.3,454.7 L 390.0,454.7 L 357.8,454.7 L 326.1,454.7 L 293.3,454.7 L 282.7,454.7 L 250.8,454.7 L 220.2,454.7 L 218.8,454.6 L 198.0,444.1 L 190.3,439.4 L 170.8,435.0 L 164.8,425.5 Z M 468.0,235.3 L 477.5,232.0 L 485.0,227.3 L 496.4,230.4 L 502.9,232.3 L 506.1,234.3 L 512.6,238.5 L 506.0,242.2 L 491.5,239.0 L 482.7,240.1 L 468.0,235.3 Z M 455.3,228.6 L 454.1,233.3 L 436.5,234.2 L 443.3,238.3 L 439.7,242.3 L 420.2,240.6 L 401.8,237.7 L 389.3,238.3 L 369.1,242.0 L 341.8,243.6 L 322.7,244.6 L 316.9,239.5 L 302.2,236.6 L 292.6,237.8 L 279.4,229.3 L 286.5,228.1 L 303.1,226.3 L 318.3,226.8 L 332.3,224.9 L 311.5,222.4 L 288.6,223.3 L 273.3,223.0 L 267.6,219.1 L 292.6,214.8 L 276.0,214.9 L 257.2,212.1 L 266.2,204.0 L 273.7,199.8 L 302.5,193.2 L 313.5,195.3 L 308.1,200.3 L 332.1,197.1 L 347.0,202.5 L 359.2,197.0 L 369.0,200.5 L 377.8,211.1 L 383.2,206.7 L 375.6,195.6 L 385.0,194.1 L 395.7,195.8 L 407.7,200.1 L 414.5,210.6 L 417.8,218.2 L 435.9,223.5 L 455.3,228.6 Z M 496.8,191.5 L 486.8,196.7 L 503.0,201.3 L 501.1,211.0 L 483.5,215.2 L 473.1,214.3 L 465.7,210.2 L 439.0,201.9 L 439.2,198.4 L 461.1,199.8 L 449.3,192.7 L 462.0,187.5 L 474.8,189.8 L 494.0,188.4 L 496.8,191.5 Z M 285.5,194.2 L 259.2,201.8 L 245.8,209.3 L 245.8,214.0 L 217.5,219.2 L 211.9,214.5 L 187.0,208.8 L 191.6,204.2 L 199.1,196.4 L 208.4,189.3 L 197.9,182.7 L 234.2,181.0 L 249.6,183.3 L 277.1,183.9 L 287.5,187.0 L 299.1,191.5 L 285.5,194.2 Z M 394.9,190.2 L 409.3,189.7 L 417.5,192.1 L 408.0,199.2 L 391.2,191.7 L 394.9,190.2 Z M 361.5,176.7 L 334.4,181.4 L 318.1,181.6 L 316.7,178.1 L 339.0,173.4 L 290.4,174.6 L 275.4,172.7 L 290.1,162.2 L 300.2,159.2 L 330.5,162.8 L 349.6,169.2 L 368.3,170.0 L 353.0,159.7 L 362.8,155.8 L 373.9,157.1 L 377.5,162.2 L 381.8,166.0 L 391.3,164.2 L 402.6,164.7 L 404.5,169.9 L 398.0,175.0 L 361.5,176.7 Z M 456.3,174.5 L 456.6,168.2 L 438.9,169.0 L 438.3,160.7 L 449.8,161.1 L 466.0,157.4 L 481.1,158.0 L 482.0,156.6 L 490.2,161.6 L 490.5,167.1 L 485.6,175.1 L 467.9,176.2 L 456.3,174.5 Z M 291.7,146.7 L 290.2,154.9 L 281.9,158.6 L 271.9,159.2 L 251.9,163.8 L 234.7,165.4 L 220.1,163.1 L 220.1,163.1 L 238.3,155.0 L 260.4,148.1 L 276.9,148.2 L 291.7,146.7 Z M 329.0,142.3 L 344.7,141.2 L 359.9,142.9 L 356.3,146.1 L 336.3,149.2 L 320.3,145.7 L 329.0,142.3 Z M 481.4,137.9 L 480.5,133.5 L 494.5,133.9 L 500.7,134.6 L 513.6,138.3 L 510.7,142.2 L 494.8,144.4 L 486.0,141.9 L 481.4,137.9 Z M 451.8,142.6 L 434.1,139.1 L 410.2,138.8 L 420.6,135.6 L 407.6,133.0 L 406.8,128.8 L 427.9,130.3 L 457.0,134.2 L 465.2,139.3 L 469.4,143.8 L 451.8,142.6 Z M 342.2,133.7 L 347.9,134.2 L 361.9,136.4 L 348.8,138.5 L 331.0,138.5 L 331.2,136.9 L 342.2,133.7 Z M 869.0,486.6 L 865.0,487.3 L 851.4,482.7 L 848.7,479.1 L 852.8,475.8 L 856.5,481.0 L 864.3,482.5 L 874.3,482.2 L 869.0,486.6 Z M 940.9,448.4 L 950.4,451.3 L 955.4,448.7 L 966.1,452.0 L 962.8,459.9 L 970.3,458.0 L 971.7,463.7 L 975.0,470.4 L 970.5,479.9 L 965.6,480.3 L 958.5,478.2 L 960.9,469.5 L 957.9,468.1 L 945.4,477.4 L 939.0,477.0 L 946.6,472.0 L 936.3,469.4 L 924.7,470.0 L 903.8,469.7 L 902.2,466.5 L 908.9,462.7 L 904.2,459.8 L 913.2,453.3 L 924.3,436.2 L 931.0,430.1 L 940.3,426.4 L 945.3,426.8 L 943.3,429.8 L 937.5,436.5 L 930.4,445.9 L 937.4,442.3 L 944.6,444.6 L 940.9,448.4 Z M 871.3,453.7 L 857.4,450.4 L 847.4,445.3 L 851.1,444.4 L 865.2,447.1 L 876.2,451.6 L 876.5,453.5 L 871.3,453.7 Z M 679.8,317.9 L 677.0,314.7 L 677.5,314.0 L 681.7,310.7 L 686.1,311.0 L 688.8,313.2 L 684.6,318.8 L 679.8,317.9 Z M 640.3,312.9 L 637.9,310.0 L 645.9,305.1 L 660.7,305.2 L 660.5,307.2 L 647.9,313.2 L 640.3,312.9 Z M 679.8,296.3 L 670.2,299.7 L 653.5,297.1 L 647.5,292.3 L 636.8,298.0 L 621.5,303.6 L 617.8,297.3 L 603.2,298.3 L 612.6,293.0 L 614.0,284.5 L 617.6,274.7 L 625.4,275.6 L 627.4,280.3 L 632.9,278.6 L 639.1,281.4 L 650.9,285.1 L 663.2,288.5 L 664.2,293.6 L 672.1,292.8 L 679.8,296.3 Z M 725.0,247.3 L 733.4,250.3 L 733.5,254.9 L 732.3,256.3 L 725.3,259.5 L 713.3,260.1 L 710.6,254.8 L 715.2,248.8 L 725.0,247.3 Z M 764.3,212.1 L 775.5,219.0 L 801.5,223.2 L 810.8,227.6 L 821.0,237.6 L 801.3,242.6 L 826.6,249.6 L 843.7,252.0 L 859.1,261.9 L 876.0,262.6 L 872.7,270.1 L 853.8,282.6 L 840.6,278.0 L 823.7,267.7 L 809.8,269.0 L 808.4,275.2 L 819.7,281.5 L 834.3,286.4 L 838.7,289.3 L 845.7,299.9 L 842.0,307.6 L 828.5,304.7 L 801.5,296.1 L 816.7,305.4 L 827.9,311.9 L 829.7,315.6 L 800.5,311.3 L 777.4,305.1 L 764.4,299.9 L 768.1,296.8 L 752.1,291.3 L 736.4,286.1 L 736.6,289.2 L 705.5,290.9 L 696.4,287.2 L 703.5,279.3 L 723.7,279.1 L 745.8,277.7 L 742.2,273.9 L 746.0,268.5 L 759.9,258.1 L 757.0,253.3 L 752.8,249.6 L 736.3,244.4 L 714.6,240.7 L 721.4,238.0 L 710.1,231.3 L 700.6,230.7 L 692.1,227.1 L 686.3,230.2 L 666.9,231.6 L 627.7,229.2 L 605.0,226.1 L 587.5,224.4 L 578.6,220.7 L 589.8,215.8 L 574.6,215.7 L 571.2,204.8 L 579.4,195.2 L 590.5,190.8 L 618.2,188.0 L 610.3,194.9 L 618.8,201.6 L 628.7,192.9 L 656.0,188.5 L 674.4,199.7 L 672.8,206.7 L 694.1,203.6 L 704.3,199.3 L 728.1,204.7 L 743.0,209.9 L 744.3,214.6 L 764.3,212.1 Z M 527.5,207.1 L 515.2,206.7 L 508.5,197.2 L 508.7,191.9 L 514.3,187.3 L 524.9,184.4 L 547.3,184.8 L 567.9,187.4 L 551.8,197.0 L 539.0,199.1 L 527.5,207.1 Z M 720.2,195.5 L 721.2,198.5 L 709.8,198.2 L 698.2,197.9 L 686.4,199.4 L 683.3,198.7 L 671.5,193.0 L 671.9,189.1 L 677.1,188.4 L 701.7,189.6 L 720.2,195.5 Z M 521.2,168.1 L 530.6,171.9 L 534.5,175.3 L 528.7,179.5 L 513.1,178.7 L 500.0,175.9 L 505.7,171.0 L 521.2,168.1 Z M 531.5,160.9 L 509.3,159.6 L 496.8,156.3 L 500.8,151.9 L 523.0,152.5 L 534.9,156.0 L 556.1,156.0 L 565.4,159.5 L 562.9,163.5 L 575.3,166.0 L 582.1,168.5 L 596.6,169.0 L 612.3,169.9 L 629.4,167.6 L 651.3,166.7 L 668.8,167.4 L 680.3,171.5 L 682.7,175.9 L 676.0,178.8 L 659.9,181.1 L 646.2,179.8 L 615.3,181.4 L 593.3,181.6 L 575.9,180.3 L 547.3,176.8 L 543.6,170.9 L 542.3,165.6 L 531.5,160.9 Z M 533.4,146.8 L 532.1,148.0 L 527.2,148.3 L 507.0,147.6 L 504.2,144.6 L 525.8,144.8 L 533.4,146.8 Z M 635.1,93.4 L 646.7,96.4 L 654.9,90.6 L 669.1,88.9 L 688.3,87.7 L 721.2,87.2 L 726.9,88.4 L 758.0,86.6 L 781.3,87.3 L 804.5,87.9 L 833.3,88.8 L 856.4,90.2 L 876.1,93.1 L 875.6,95.9 L 849.3,100.6 L 823.3,102.8 L 813.6,105.2 L 837.0,105.1 L 811.6,111.7 L 794.1,114.7 L 775.7,123.5 L 753.6,125.3 L 746.7,127.5 L 714.1,128.6 L 729.0,130.0 L 721.5,131.9 L 730.4,137.2 L 720.2,140.9 L 703.6,143.9 L 698.5,148.1 L 683.5,151.3 L 685.0,153.8 L 703.4,153.4 L 703.6,156.0 L 674.9,162.4 L 646.8,159.5 L 615.2,161.1 L 599.2,159.8 L 578.8,159.3 L 577.5,154.1 L 597.4,151.7 L 592.1,143.9 L 598.6,143.2 L 627.4,147.8 L 612.7,140.9 L 595.3,138.8 L 604.0,134.7 L 623.1,132.1 L 626.1,128.4 L 610.9,124.2 L 606.4,118.6 L 635.7,119.1 L 644.2,120.3 L 661.0,116.3 L 636.8,115.1 L 599.2,115.8 L 580.2,112.1 L 571.2,107.8 L 558.7,104.6 L 556.3,101.0 L 572.3,98.9 L 584.8,98.6 L 605.9,96.8 L 621.8,92.8 L 635.1,93.4 Z M 561.2,113.6 L 579.3,115.9 L 596.9,117.9 L 605.4,125.0 L 618.4,128.5 L 603.6,131.7 L 583.7,139.8 L 564.7,140.5 L 542.4,139.1 L 530.9,134.8 L 531.0,130.9 L 539.5,128.0 L 519.9,128.1 L 508.0,124.5 L 501.2,119.6 L 508.7,114.9 L 516.1,111.6 L 527.1,110.8 L 522.4,108.4 L 547.5,107.8 L 561.2,113.6 Z"/><text class="division-label" x="121.8" y="302.5" text-anchor="middle">YT</text><text class="division-label" x="261.5" y="296.7" text-anchor="middle">NT</text><text class="division-label" x="484.4" y="275.8" text-anchor="middle">NU</text><text class="division-label" x="226.5" y="395.0" text-anchor="middle">BC</text><text class="division-label" x="304.5" y="395.5" text-anchor="middle">AB</text><text class="division-label" x="406.7" y="395.5" text-anchor="middle">SK</text><text class="division-label" x="519.6" y="410.4" text-anchor="middle">MB</text><text class="division-label" x="559.8" y="418.5" text-anchor="middle">ON</text><text class="division-label" x="810.2" y="405.2" text-anchor="middle">QC</text><text class="division-label" x="833.4" y="487.0" text-anchor="middle">NB</text><text class="division-label" x="866.5" y="494.7" text-anchor="middle">NS</text><text class="division-label" x="855.1" y="481.6" text-anchor="middle">PEI</text><text class="division-label" x="937.2" y="455.7" text-anchor="middle">NL</text>
<text class="map-note" x="20" y="600">Provinces and territories are individually outlined and clickable.</text></svg>