<svg class="local-country-map" viewBox="0 0 1000 600" role="img" aria-label="Canada interactive map" xmlns="http://www.w3.org/2000/svg">
<path class="country-shape" d="M 183.92,436.04 L 182.03,433.04 L 171.19,431.15 L 167.14,425.42 L 168.05,422.98 L 179.10,425.28 L 185.56,426.88 L 195.45,427.99 L 199.03,431.62 L 204.23,436.62 L 214.74,440.97 L 219.08,446.78 L 213.79,448.25 L 196.50,443.47 L 193.35,439.73 L 183.92,436.04 Z M 127.81,403.31 L 123.92,398.47 L 118.61,395.19 L 116.66,390.56 L 117.29,387.20 L 122.24,388.57 L 132.35,387.73 L 129.19,399.68 L 138.36,408.15 L 134.16,408.12 L 127.81,403.31 Z M 171.90,413.04 L 173.39,406.57 L 159.93,402.09 L 158.08,393.61 L 145.35,385.96 L 145.12,380.54 L 145.12,380.54 L 150.98,375.47 L 150.68,368.82 L 132.79,362.13 L 122.03,350.12 L 115.44,342.57 L 105.81,337.82 L 98.71,333.51 L 93.13,328.07 L 82.56,331.48 L 72.32,337.36 L 62.97,330.44 L 55.62,325.83 L 45.37,322.92 L 35.00,322.61 L 35.06,262.68 L 35.12,223.60 L 35.12,223.60 L 54.76,226.14 L 71.33,231.20 L 82.31,232.17 L 91.55,227.78 L 104.30,224.49 L 119.93,225.78 L 135.70,221.15 L 152.93,218.53 L 160.16,222.89 L 168.01,220.43 L 170.36,215.48 L 177.64,216.60 L 195.44,226.04 L 209.45,218.90 L 210.88,226.89 L 223.81,225.16 L 227.78,222.09 L 240.53,222.70 L 256.63,227.12 L 281.27,230.98 L 295.75,232.76 L 306.06,232.09 L 320.26,237.42 L 305.45,242.65 L 324.48,244.91 L 352.89,243.66 L 361.86,241.82 L 373.08,248.13 L 384.53,242.81 L 373.79,238.34 L 380.59,234.74 L 393.40,234.25 L 401.82,233.20 L 410.32,235.72 L 420.89,241.43 L 432.65,240.59 L 451.25,245.34 L 467.59,243.67 L 482.94,243.92 L 481.73,237.37 L 491.09,235.53 L 507.40,239.10 L 507.34,249.06 L 514.04,240.67 L 522.50,240.95 L 527.26,230.37 L 515.99,223.88 L 503.70,219.63 L 504.55,207.99 L 516.99,200.35 L 530.87,202.04 L 541.52,206.69 L 555.82,218.56 L 546.48,223.73 L 566.06,225.86 L 566.02,236.62 L 580.08,228.37 L 592.67,235.15 L 589.53,242.96 L 599.71,250.06 L 610.70,242.45 L 618.38,233.36 L 618.96,221.81 L 633.92,222.62 L 649.48,224.17 L 663.61,229.39 L 664.24,234.62 L 656.41,240.23 L 663.83,245.86 L 662.49,250.98 L 641.88,258.34 L 627.24,259.97 L 616.35,256.80 L 613.21,262.08 L 603.07,270.96 L 600.00,275.56 L 587.79,282.69 L 572.72,283.38 L 564.41,287.83 L 563.71,294.67 L 551.47,295.99 L 538.59,304.52 L 527.17,316.37 L 523.09,324.67 L 522.51,336.90 L 537.98,338.65 L 542.72,348.51 L 547.64,356.50 L 562.37,354.42 L 581.93,358.97 L 592.45,362.97 L 599.99,367.95 L 613.18,370.85 L 624.33,375.28 L 641.71,375.89 L 653.16,376.90 L 651.44,386.02 L 654.72,396.60 L 662.34,408.38 L 678.00,418.38 L 686.11,414.95 L 691.80,404.13 L 686.30,387.50 L 678.88,381.96 L 695.73,377.03 L 707.66,369.65 L 713.49,362.32 L 712.63,355.28 L 705.48,346.34 L 692.70,338.42 L 705.12,327.38 L 700.53,317.86 L 697.01,301.42 L 704.34,298.99 L 722.39,301.85 L 733.21,302.87 L 741.93,300.11 L 751.73,303.67 L 764.69,309.78 L 767.89,313.86 L 786.66,314.66 L 786.34,323.50 L 789.84,336.81 L 799.46,338.45 L 807.09,344.65 L 822.33,338.81 L 832.40,327.19 L 839.36,322.30 L 847.56,331.70 L 861.27,345.13 L 872.91,357.76 L 868.68,364.37 L 882.68,370.30 L 892.14,376.32 L 908.93,379.04 L 915.68,382.40 L 919.85,391.30 L 928.05,392.70 L 932.28,396.67 L 933.05,408.50 L 925.41,412.46 L 917.85,416.15 L 900.51,419.89 L 887.26,428.54 L 869.47,430.25 L 846.95,428.03 L 831.16,427.96 L 820.25,428.69 L 811.44,436.24 L 798.02,440.90 L 782.84,454.84 L 770.72,464.55 L 779.66,462.82 L 796.56,448.99 L 818.64,440.22 L 834.39,439.17 L 843.71,444.33 L 833.76,451.40 L 837.10,462.75 L 840.54,470.69 L 854.21,475.95 L 871.60,474.43 L 882.16,462.59 L 882.89,470.23 L 889.69,474.04 L 876.67,480.94 L 853.35,487.20 L 842.91,491.46 L 831.15,499.04 L 823.15,498.27 L 822.75,489.36 L 841.03,480.65 L 824.18,481.00 L 812.48,482.28 L 805.60,476.33 L 805.61,461.98 L 800.93,458.94 L 793.87,460.73 L 790.38,457.96 L 782.35,465.91 L 779.14,474.10 L 775.40,478.89 L 770.93,480.52 L 767.56,481.04 L 766.50,483.64 L 747.11,483.65 L 731.12,483.72 L 726.37,485.66 L 715.24,493.24 L 713.93,494.06 L 710.56,498.16 L 700.90,498.16 L 690.55,498.20 L 685.80,499.87 L 687.51,501.94 L 688.45,505.15 L 688.25,506.22 L 674.48,511.45 L 663.63,513.11 L 651.41,518.73 L 648.77,518.73 L 645.19,517.07 L 644.01,515.56 L 644.24,514.47 L 646.56,510.78 L 651.51,504.99 L 654.58,498.77 L 652.48,489.62 L 650.23,480.07 L 639.26,475.13 L 640.56,473.26 L 639.02,471.97 L 636.13,471.97 L 634.01,470.30 L 633.48,467.81 L 631.43,468.90 L 628.61,468.58 L 629.26,467.53 L 626.78,466.50 L 625.76,463.73 L 617.59,460.36 L 609.06,456.85 L 598.77,452.78 L 588.89,448.96 L 579.47,451.94 L 576.03,452.04 L 563.08,449.31 L 554.56,450.68 L 544.35,447.41 L 533.60,445.74 L 526.25,445.09 L 522.98,443.31 L 521.11,437.53 L 517.55,437.58 L 517.51,441.62 L 495.73,441.62 L 459.72,441.62 L 423.94,441.62 L 392.35,441.62 L 360.77,441.62 L 329.71,441.62 L 297.63,441.62 L 287.28,441.62 L 256.03,441.62 L 226.14,441.62 L 224.72,441.60 L 204.34,431.26 L 196.82,426.71 L 177.76,422.35 L 171.90,413.04 Z M 468.69,226.89 L 477.95,223.62 L 485.31,219.06 L 496.48,222.04 L 502.80,223.94 L 505.95,225.94 L 512.37,229.96 L 505.83,233.65 L 491.64,230.46 L 483.06,231.62 L 468.69,226.89 Z M 456.23,220.31 L 455.09,224.94 L 437.81,225.79 L 444.52,229.84 L 440.98,233.70 L 421.93,232.04 L 403.82,229.20 L 391.58,229.84 L 371.82,233.41 L 345.14,234.99 L 326.42,235.99 L 320.71,231.02 L 306.35,228.15 L 297.00,229.33 L 284.03,220.99 L 291.03,219.87 L 307.28,218.07 L 322.12,218.54 L 335.86,216.71 L 315.50,214.25 L 293.01,215.09 L 278.08,214.88 L 272.53,211.00 L 296.94,206.79 L 280.71,206.94 L 262.32,204.16 L 271.16,196.28 L 278.49,192.09 L 306.67,185.68 L 317.43,187.71 L 312.17,192.65 L 335.60,189.46 L 350.24,194.78 L 362.13,189.40 L 371.75,192.85 L 380.36,203.19 L 385.65,198.83 L 378.17,188.05 L 387.44,186.51 L 397.90,188.19 L 409.69,192.44 L 416.30,202.69 L 419.56,210.12 L 437.24,215.33 L 456.23,220.31 Z M 496.87,184.04 L 487.05,189.09 L 502.98,193.62 L 501.08,203.10 L 483.82,207.17 L 473.68,206.29 L 466.40,202.27 L 440.24,194.15 L 440.45,190.78 L 461.94,192.09 L 450.35,185.20 L 462.81,180.11 L 475.36,182.32 L 494.14,180.99 L 496.87,184.04 Z M 290.05,186.64 L 264.24,194.04 L 251.19,201.41 L 251.19,206.01 L 223.48,211.08 L 217.92,206.46 L 193.62,200.90 L 198.14,196.44 L 205.43,188.75 L 214.56,181.83 L 204.26,175.38 L 239.84,173.74 L 254.87,175.92 L 281.76,176.51 L 291.98,179.56 L 303.28,183.99 L 290.05,186.64 Z M 397.08,182.68 L 411.19,182.25 L 419.19,184.57 L 409.93,191.52 L 393.50,184.15 L 397.08,182.68 Z M 364.45,169.52 L 337.89,174.08 L 321.88,174.31 L 320.54,170.88 L 342.41,166.23 L 294.85,167.48 L 280.13,165.60 L 294.49,155.32 L 304.40,152.37 L 334.02,155.92 L 352.72,162.16 L 371.11,162.96 L 356.06,152.89 L 365.70,149.05 L 376.57,150.27 L 380.12,155.29 L 384.25,159.04 L 393.62,157.28 L 404.65,157.73 L 406.50,162.89 L 400.10,167.88 L 364.45,169.52 Z M 457.26,167.33 L 457.47,161.19 L 440.22,162.00 L 439.55,153.87 L 450.88,154.20 L 466.73,150.61 L 481.54,151.22 L 482.35,149.83 L 490.39,154.71 L 490.72,160.11 L 485.93,167.94 L 468.57,169.02 L 457.26,167.33 Z M 296.05,140.09 L 294.60,148.18 L 286.49,151.83 L 276.66,152.35 L 257.09,156.85 L 240.24,158.46 L 225.98,156.19 L 225.98,156.19 L 243.85,148.31 L 265.46,141.49 L 281.61,141.64 L 296.05,140.09 Z M 332.61,135.82 L 347.98,134.75 L 362.83,136.40 L 359.33,139.55 L 339.70,142.58 L 324.09,139.18 L 332.61,135.82 Z M 481.79,131.54 L 480.96,127.18 L 494.59,127.60 L 500.72,128.30 L 513.30,131.96 L 510.45,135.76 L 494.87,137.93 L 486.30,135.49 L 481.79,131.54 Z M 452.83,136.16 L 435.51,132.75 L 412.07,132.36 L 422.24,129.23 L 409.51,126.69 L 408.74,122.66 L 429.41,124.09 L 457.87,127.93 L 465.92,132.94 L 470.02,137.33 L 452.83,136.16 Z M 345.50,127.41 L 351.15,127.89 L 364.84,130.02 L 352.02,132.08 L 334.53,132.07 L 334.71,130.56 L 345.50,127.41 Z M 861.25,472.85 L 857.36,473.54 L 844.00,469.07 L 841.37,465.54 L 845.35,462.30 L 849.04,467.41 L 856.67,468.82 L 866.43,468.54 L 861.25,472.85 Z M 931.59,435.44 L 940.93,438.33 L 945.78,435.76 L 956.28,439.00 L 953.02,446.71 L 960.39,444.91 L 961.73,450.50 L 965.00,457.04 L 960.57,466.30 L 955.81,466.69 L 948.89,464.71 L 951.17,456.09 L 948.24,454.76 L 936.02,463.89 L 929.74,463.52 L 937.18,458.58 L 927.08,456.02 L 915.77,456.65 L 895.34,456.33 L 893.72,453.21 L 900.28,449.50 L 895.70,446.64 L 904.54,440.30 L 915.41,423.54 L 921.94,417.54 L 931.07,413.92 L 935.96,414.38 L 933.92,417.23 L 928.31,423.87 L 921.34,433.07 L 928.21,429.52 L 935.28,431.77 L 931.59,435.44 Z M 863.47,440.71 L 849.83,437.41 L 840.04,432.43 L 843.68,431.55 L 857.52,434.19 L 868.29,438.59 L 868.60,440.52 L 863.47,440.71 Z M 676.04,307.75 L 673.27,304.61 L 673.76,303.88 L 677.83,300.72 L 682.14,300.95 L 684.81,303.11 L 680.69,308.64 L 676.04,307.75 Z M 637.35,302.86 L 635.05,300.01 L 642.87,295.16 L 657.33,295.26 L 657.10,297.30 L 644.78,303.10 L 637.35,302.86 Z M 676.00,286.61 L 666.65,289.93 L 650.27,287.39 L 644.36,282.66 L 633.92,288.26 L 618.94,293.70 L 615.33,287.55 L 601.06,288.56 L 610.21,283.35 L 611.56,275.07 L 615.15,265.43 L 622.75,266.28 L 624.71,270.91 L 630.09,269.29 L 636.21,272.05 L 647.74,275.66 L 659.80,278.94 L 660.73,283.94 L 668.48,283.12 L 676.00,286.61 Z M 720.29,238.60 L 728.51,241.51 L 728.63,246.02 L 727.44,247.47 L 720.60,250.58 L 708.80,251.11 L 706.17,245.96 L 710.65,240.06 L 720.29,238.60 Z M 758.75,204.18 L 769.72,210.89 L 795.13,215.04 L 804.30,219.29 L 814.25,229.14 L 794.93,234.04 L 819.72,240.92 L 836.43,243.23 L 851.56,252.90 L 868.12,253.60 L 864.84,260.99 L 846.36,273.22 L 833.41,268.72 L 816.86,258.59 L 803.24,259.91 L 801.91,265.94 L 812.98,272.06 L 827.27,276.90 L 831.61,279.70 L 838.46,290.12 L 834.83,297.68 L 821.56,294.83 L 795.16,286.41 L 810.04,295.48 L 821.00,301.83 L 822.71,305.51 L 794.16,301.31 L 771.57,295.19 L 758.82,290.07 L 762.49,287.10 L 746.79,281.69 L 731.46,276.58 L 731.63,279.63 L 701.19,281.31 L 692.28,277.70 L 699.22,269.95 L 719.00,269.76 L 740.67,268.41 L 737.15,264.66 L 740.82,259.41 L 754.44,249.15 L 751.55,244.50 L 747.49,240.89 L 731.37,235.78 L 710.04,232.20 L 716.78,229.54 L 705.64,223.00 L 696.36,222.40 L 688.06,218.81 L 682.43,221.92 L 663.34,223.27 L 625.03,220.92 L 602.77,217.83 L 585.70,216.25 L 576.94,212.55 L 587.95,207.75 L 573.00,207.70 L 569.66,197.04 L 577.75,187.63 L 588.58,183.33 L 615.76,180.53 L 608.01,187.33 L 616.30,193.89 L 626.03,185.41 L 652.71,181.09 L 670.77,191.97 L 669.20,198.87 L 690.02,195.81 L 699.98,191.63 L 723.34,196.95 L 737.84,201.97 L 739.20,206.56 L 758.75,204.18 Z M 526.88,199.26 L 514.87,198.87 L 508.31,189.62 L 508.47,184.39 L 513.97,179.91 L 524.41,177.04 L 546.35,177.41 L 566.45,179.97 L 550.73,189.35 L 538.18,191.39 L 526.88,199.26 Z M 715.61,187.91 L 716.54,190.82 L 705.35,190.51 L 694.01,190.29 L 682.49,191.70 L 679.44,191.07 L 667.86,185.48 L 668.31,181.69 L 673.37,180.99 L 697.46,182.13 L 715.61,187.91 Z M 520.76,161.13 L 529.95,164.82 L 533.79,168.15 L 528.06,172.23 L 512.78,171.44 L 500.02,168.70 L 505.62,163.96 L 520.76,161.13 Z M 530.83,154.05 L 509.06,152.77 L 496.86,149.51 L 500.82,145.19 L 522.51,145.86 L 534.20,149.24 L 554.93,149.22 L 564.01,152.68 L 561.61,156.63 L 573.69,159.01 L 580.38,161.52 L 594.58,161.98 L 609.93,162.86 L 626.67,160.58 L 648.10,159.68 L 665.20,160.42 L 676.48,164.39 L 678.83,168.75 L 672.27,171.55 L 656.57,173.81 L 643.10,172.53 L 612.90,174.15 L 591.29,174.33 L 574.30,173.04 L 546.32,169.65 L 542.68,163.87 L 541.40,158.65 L 530.83,154.05 Z M 532.66,140.21 L 531.40,141.41 L 526.60,141.71 L 506.88,141.04 L 504.07,138.10 L 525.27,138.25 L 532.66,140.21 Z M 632.24,87.94 L 643.61,90.89 L 651.61,85.20 L 665.51,83.52 L 684.38,82.35 L 716.56,81.92 L 722.15,83.05 L 752.54,81.27 L 775.34,81.94 L 798.14,82.61 L 826.27,83.43 L 848.87,84.78 L 868.14,87.64 L 867.68,90.45 L 841.99,95.01 L 816.52,97.15 L 807.01,99.50 L 829.92,99.45 L 805.08,105.83 L 787.93,108.81 L 769.93,117.41 L 748.21,119.16 L 741.51,121.30 L 709.63,122.43 L 724.15,123.75 L 716.87,125.63 L 725.57,130.82 L 715.57,134.43 L 699.31,137.41 L 694.32,141.53 L 679.62,144.68 L 681.09,147.06 L 699.07,146.65 L 699.30,149.22 L 671.18,155.54 L 643.67,152.63 L 612.75,154.26 L 597.08,152.99 L 577.18,152.44 L 575.86,147.39 L 595.32,145.01 L 590.14,137.41 L 596.56,136.67 L 624.70,141.21 L 610.35,134.46 L 593.27,132.45 L 601.80,128.37 L 620.47,125.87 L 623.45,122.20 L 608.59,118.08 L 604.12,112.66 L 632.89,113.11 L 641.20,114.25 L 657.63,110.42 L 633.93,109.20 L 597.09,109.87 L 578.49,106.30 L 569.72,102.04 L 557.42,98.96 L 555.12,95.37 L 570.77,93.36 L 583.06,93.02 L 603.71,91.31 L 619.19,87.39 L 632.24,87.94 Z M 559.90,107.69 L 577.61,109.95 L 594.87,111.94 L 603.19,118.89 L 615.88,122.29 L 601.43,125.42 L 581.97,133.34 L 563.35,134.09 L 541.54,132.75 L 530.23,128.45 L 530.39,124.64 L 538.71,121.83 L 519.46,121.91 L 507.86,118.41 L 501.19,113.65 L 508.49,108.97 L 515.78,105.76 L 526.57,105.02 L 521.97,102.61 L 546.45,102.07 L 559.90,107.69 Z"/>
<a href="../../region.html?country=canada&amp;region=Alberta"><g class="map-marker"><circle cx="308.7" cy="378.5" r="11"/><text x="308.7" y="361.5" text-anchor="middle">Alberta</text></g></a><a href="../../region.html?country=canada&amp;region=British%20Columbia"><g class="map-marker"><circle cx="203.4" cy="389.0" r="11"/><text x="203.4" y="372.0" text-anchor="middle">British Columbia</text></g></a><a href="../../region.html?country=canada&amp;region=Manitoba"><g class="map-marker"><circle cx="487.6" cy="378.5" r="11"/><text x="487.6" y="361.5" text-anchor="middle">Manitoba</text></g></a><a href="../../region.html?country=canada&amp;region=New%20Brunswick"><g class="map-marker"><circle cx="821.3" cy="467.9" r="11"/><text x="821.3" y="450.9" text-anchor="middle">New Brunswick</text></g></a><a href="../../region.html?country=canada&amp;region=Newfoundland%20and%20Labrador"><g class="map-marker"><circle cx="908.7" cy="399.5" r="11"/><text x="908.7" y="382.5" text-anchor="middle">Newfoundland and Labrador</text></g></a><a href="../../region.html?country=canada&amp;region=Northwest%20Territories"><g class="map-marker"><circle cx="266.6" cy="273.2" r="11"/><text x="266.6" y="256.2" text-anchor="middle">Northwest Territories</text></g></a><a href="../../region.html?country=canada&amp;region=Nova%20Scotia"><g class="map-marker"><circle cx="856.0" cy="483.7" r="11"/><text x="856.0" y="466.7" text-anchor="middle">Nova Scotia</text></g></a><a href="../../region.html?country=canada&amp;region=Nunavut"><g class="map-marker"><circle cx="519.2" cy="252.1" r="11"/><text x="519.2" y="235.1" text-anchor="middle">Nunavut</text></g></a><a href="../../region.html?country=canada&amp;region=Ontario"><g class="map-marker"><circle cx="624.5" cy="431.1" r="11"/><text x="624.5" y="414.1" text-anchor="middle">Ontario</text></g></a><a href="../../region.html?country=canada&amp;region=Prince%20Edward%20Island"><g class="map-marker"><circle cx="852.9" cy="469.0" r="11"/><text x="852.9" y="452.0" text-anchor="middle">Prince Edward Island</text></g></a><a href="../../region.html?country=canada&amp;region=Quebec"><g class="map-marker"><circle cx="771.8" cy="399.5" r="11"/><text x="771.8" y="382.5" text-anchor="middle">Quebec</text></g></a><a href="../../region.html?country=canada&amp;region=Saskatchewan"><g class="map-marker"><circle cx="403.4" cy="389.0" r="11"/><text x="403.4" y="372.0" text-anchor="middle">Saskatchewan</text></g></a><a href="../../region.html?country=canada&amp;region=Yukon"><g class="map-marker"><circle cx="87.6" cy="283.7" r="11"/><text x="87.6" y="266.7" text-anchor="middle">Yukon</text></g></a>
</svg>