<svg class="defined-map" viewBox="0 0 1000 620" xmlns="http://www.w3.org/2000/svg" role="img">
<style>.background{fill:#0d1823}.outline{fill:none;stroke:#a5f3f7;stroke-width:3;vector-effect:non-scaling-stroke}.division{fill:#17384a;stroke:#39d8e3;stroke-width:1.7;vector-effect:non-scaling-stroke;transition:.15s;cursor:pointer}a:hover .division{fill:#2a8398;stroke:#fff;stroke-width:2.8}.division-label{fill:#f2fbff;font:600 13px Arial,sans-serif;pointer-events:none;paint-order:stroke;stroke:#071016;stroke-width:4px}.map-note{fill:#7790a2;font:11px Arial,sans-serif}</style>
<rect class="background" width="1000" height="620"/><defs><clipPath id="clip"><path d="M -479.2,1069.3 L -483.8,1073.4 L -490.4,1070.3 L -486.5,1064.0 L -485.2,1057.2 L -482.6,1050.7 L -488.5,1041.8 L -489.7,1031.5 L -481.9,1018.7 L -476.8,1020.3 L -465.7,1023.9 L -449.9,1036.5 L -447.4,1042.7 L -456.2,1056.4 L -460.8,1067.4 L -466.6,1073.1 L -473.8,1074.2 L -475.8,1070.0 L -479.2,1069.3 Z M 540.5,569.5 L 540.5,562.0 L 548.0,562.0 L 548.0,569.5 L 540.5,569.5 Z M 534.9,548.4 L 514.0,540.8 L 516.1,533.1 L 533.6,534.5 L 548.9,532.8 L 560.3,531.5 L 554.9,543.3 L 557.1,548.0 L 554.0,555.7 L 542.5,550.1 L 534.9,548.4 Z M 194.0,552.0 L 196.3,540.2 L 194.9,531.0 L 188.2,529.6 L 184.6,523.9 L 185.8,514.1 L 191.8,508.7 L 192.8,502.6 L 196.0,493.6 L 195.6,487.2 L 192.6,481.8 L 192.0,476.8 L 192.7,466.1 L 186.6,459.6 L 207.8,448.8 L 226.2,451.5 L 246.3,451.4 L 262.3,453.9 L 274.7,453.2 L 299.0,453.7 L 306.7,444.7 L 309.6,414.8 L 294.1,399.0 L 283.1,391.4 L 260.1,385.7 L 258.6,374.7 L 278.1,371.5 L 303.3,375.3 L 298.5,358.4 L 312.7,364.8 L 347.6,353.1 L 352.1,340.8 L 365.2,337.8 L 377.2,334.8 L 377.2,334.8 L 385.0,330.7 L 398.1,308.6 L 418.6,302.3 L 431.1,302.8 L 434.0,299.6 L 446.5,298.8 L 449.3,302.1 L 459.5,294.7 L 456.1,289.1 L 455.4,280.6 L 449.3,272.2 L 448.8,256.9 L 451.3,252.9 L 455.7,248.3 L 468.9,247.4 L 474.1,243.3 L 486.2,239.0 L 485.7,246.8 L 481.3,251.6 L 483.0,255.9 L 491.2,258.1 L 487.5,263.8 L 483.0,262.1 L 472.2,273.0 L 476.3,280.3 L 476.6,286.1 L 491.8,289.5 L 491.6,294.9 L 506.8,292.1 L 515.3,287.9 L 532.2,293.9 L 539.3,298.6 L 549.5,294.2 L 573.0,287.3 L 591.8,282.2 L 606.8,284.8 L 607.9,288.4 L 622.4,288.6 L 640.9,290.3 L 668.5,290.1 L 667.3,286.3 L 668.9,282.2 L 662.2,279.8 L 646.5,277.1 L 643.3,264.5 L 643.9,253.2 L 651.2,243.8 L 665.4,238.7 L 677.3,249.9 L 689.3,249.6 L 692.2,238.1 L 693.9,229.2 L 688.4,231.1 L 678.9,225.8 L 677.6,217.2 L 696.6,213.0 L 715.5,210.8 L 731.7,213.3 L 747.2,212.9 L 747.2,212.9 L 747.2,212.9 L 749.5,215.5 L 738.8,224.1 L 743.3,238.1 L 736.8,242.9 L 744.1,246.3 L 745.3,253.6 L 750.2,262.5 L 734.0,268.3 L 724.9,270.8 L 726.3,277.5 L 714.0,282.3 L 710.5,290.8 L 694.3,296.4 L 679.8,296.3 L 680.4,302.9 L 684.6,308.7 L 684.5,314.6 L 675.5,317.7 L 680.1,324.6 L 680.4,331.3 L 687.9,344.4 L 686.3,348.6 L 678.9,350.4 L 665.3,362.8 L 669.1,369.6 L 665.9,368.7 L 661.7,372.6 L 658.8,378.7 L 667.1,382.7 L 668.2,386.8 L 674.6,383.6 L 683.9,385.2 L 693.5,385.3 L 700.5,388.9 L 705.6,386.6 L 716.7,385.2 L 720.5,381.7 L 726.8,381.7 L 731.4,383.2 L 736.0,387.6 L 740.8,393.9 L 749.4,402.8 L 749.9,409.4 L 748.3,415.8 L 751.0,422.7 L 757.7,425.4 L 764.7,423.0 L 771.5,425.6 L 771.9,429.5 L 764.6,432.7 L 760.1,431.3 L 755.9,449.4 L 748.1,455.6 L 742.6,466.3 L 747.5,474.9 L 734.5,472.9 L 719.3,477.6 L 726.6,481.6 L 721.9,491.0 L 718.4,492.6 L 709.2,492.2 L 701.4,490.8 L 683.2,494.7 L 693.6,503.1 L 686.0,505.6 L 677.6,505.6 L 669.7,497.9 L 666.9,501.2 L 670.2,510.1 L 677.8,517.1 L 672.1,520.4 L 680.5,527.3 L 687.9,531.7 L 688.1,540.2 L 674.2,536.2 L 678.6,543.9 L 669.1,545.4 L 674.8,558.7 L 664.9,558.8 L 652.6,552.3 L 646.9,540.3 L 644.3,530.3 L 638.5,523.5 L 630.8,514.9 L 629.8,510.6 L 636.7,503.3 L 637.6,498.5 L 642.5,496.3 L 642.8,492.4 L 652.6,491.0 L 658.3,487.8 L 666.5,488.0 L 668.9,485.4 L 671.8,484.9 L 670.7,475.0 L 663.2,470.2 L 665.7,468.1 L 664.0,466.3 L 666.6,461.5 L 672.3,456.8 L 665.0,450.4 L 663.7,444.9 L 667.4,441.5 L 664.6,438.9 L 668.1,436.3 L 664.4,434.5 L 659.7,437.8 L 650.9,433.5 L 649.8,427.3 L 640.6,423.8 L 638.9,419.0 L 630.8,413.1 L 621.4,412.4 L 609.9,416.4 L 609.9,416.4 L 613.6,422.2 L 618.4,426.5 L 612.6,432.1 L 605.8,428.8 L 595.4,429.0 L 582.5,426.5 L 575.5,426.8 L 572.3,429.9 L 566.9,426.5 L 563.8,432.7 L 571.1,439.7 L 574.3,444.4 L 581.2,450.0 L 587.0,453.3 L 592.6,459.6 L 605.9,465.3 L 604.3,467.8 L 604.3,467.8 L 590.1,462.3 L 581.5,456.9 L 567.7,452.4 L 555.1,441.4 L 558.1,440.2 L 551.3,433.9 L 551.0,428.9 L 541.4,426.5 L 536.8,433.0 L 532.4,427.9 L 532.7,422.7 L 533.2,422.5 L 536.6,421.1 L 524.6,418.9 L 512.4,424.3 L 513.3,431.7 L 511.4,436.0 L 516.3,443.6 L 530.4,451.2 L 537.9,463.6 L 554.6,475.7 L 566.4,475.6 L 570.0,478.9 L 565.8,481.9 L 579.3,487.3 L 590.3,491.8 L 603.2,499.7 L 604.7,502.5 L 601.9,507.8 L 593.6,500.8 L 580.5,498.4 L 574.2,508.1 L 585.1,513.6 L 583.3,521.5 L 577.0,522.3 L 569.0,535.2 L 562.8,536.4 L 562.8,531.8 L 565.9,523.7 L 569.1,520.5 L 563.3,511.8 L 558.7,504.3 L 552.5,502.4 L 548.0,495.9 L 538.4,493.2 L 531.9,487.2 L 520.8,486.2 L 509.1,479.4 L 495.4,469.7 L 485.2,461.0 L 480.5,446.2 L 473.0,444.5 L 460.8,439.5 L 453.9,441.5 L 445.3,448.5 L 439.0,449.6 L 425.4,458.1 L 395.9,454.0 L 374.0,458.9 L 372.3,467.9 L 373.1,476.6 L 358.9,486.6 L 339.7,489.8 L 338.3,494.8 L 329.1,503.1 L 323.3,515.4 L 329.2,523.9 L 320.5,530.6 L 317.2,540.4 L 305.9,543.4 L 295.3,554.9 L 276.3,555.1 L 262.0,554.8 L 252.6,560.1 L 246.8,565.8 L 239.5,564.6 L 233.9,559.5 L 229.7,550.9 L 215.7,548.5 L 209.7,552.4 L 201.8,550.3 L 194.0,552.0 Z M 443.8,417.6 L 452.2,412.5 L 454.8,414.9 L 462.0,414.4 L 465.2,408.4 L 476.3,410.3 L 483.0,407.7 L 484.1,401.6 L 476.5,401.2 L 469.7,398.5 L 472.0,394.8 L 471.4,392.1 L 455.3,387.5 L 452.3,390.8 L 439.5,390.7 L 435.4,393.3 L 428.5,391.9 L 429.0,395.7 L 418.1,404.1 L 417.8,410.9 L 425.0,408.6 L 430.2,415.1 L 436.6,418.3 L 443.8,417.6 Z M 453.3,499.3 L 449.9,490.7 L 458.1,491.5 L 465.7,486.9 L 474.6,497.5 L 472.5,517.3 L 465.7,516.4 L 459.6,521.4 L 453.9,517.4 L 453.3,499.3 Z M 468.4,459.9 L 470.9,472.7 L 465.9,484.3 L 459.1,481.2 L 455.7,471.2 L 458.7,465.6 L 468.4,459.9 Z M 190.0,312.0 L 182.2,296.8 L 202.6,285.0 L 213.9,278.0 L 217.0,286.1 L 213.9,294.1 L 223.2,293.9 L 234.5,297.0 L 237.0,307.7 L 225.7,321.1 L 199.1,330.0 L 177.8,327.7 L 190.0,312.0 Z M 517.9,270.9 L 508.8,283.0 L 493.2,274.5 L 491.1,268.3 L 513.1,263.3 L 517.9,270.9 Z M 829.6,580.0 L 830.4,579.4 L 832.6,579.7 L 835.5,578.6 L 837.1,579.1 L 837.6,580.3 L 822.2,586.4 L 814.9,584.5 L 811.4,578.5 L 818.5,577.9 L 821.3,578.7 L 825.4,577.4 L 828.3,577.6 L 829.3,578.5 L 829.6,580.0 Z M 691.2,574.5 L 702.9,573.6 L 714.0,574.7 L 713.7,577.3 L 721.9,575.5 L 720.0,579.9 L 698.4,581.2 L 698.5,578.7 L 680.2,575.8 L 683.0,569.4 L 691.2,574.5 Z M 516.2,144.0 L 531.1,144.3 L 536.3,138.3 L 530.8,133.2 L 554.1,112.1 L 569.1,95.5 L 579.0,84.8 L 593.4,84.8 L 597.4,76.5 L 625.7,78.9 L 627.9,69.0 L 637.2,68.4 L 646.2,64.4 L 662.8,72.4 L 682.4,71.6 L 698.5,75.3 L 712.8,68.6 L 720.2,57.6 L 743.5,52.5 L 762.7,58.5 L 756.4,69.0 L 754.2,79.5 L 777.2,89.5 L 763.3,100.8 L 780.8,117.9 L 770.7,130.8 L 784.2,141.9 L 778.0,151.7 L 800.2,162.0 L 794.6,169.6 L 780.7,178.3 L 748.6,197.4 L 748.6,197.4 L 748.5,197.4 L 721.3,198.6 L 694.9,204.1 L 670.5,207.3 L 661.9,199.1 L 647.3,194.2 L 650.7,179.4 L 643.4,165.9 L 650.5,157.2 L 664.1,147.7 L 698.5,131.5 L 708.5,128.3 L 706.9,122.0 L 686.1,114.9 L 660.2,119.1 L 645.7,129.6 L 648.0,138.8 L 624.2,150.9 L 595.2,163.8 L 584.3,184.9 L 595.0,195.5 L 609.3,203.8 L 595.5,220.7 L 579.9,224.2 L 574.2,249.4 L 565.7,263.4 L 547.5,262.0 L 539.0,273.9 L 521.6,274.6 L 516.9,260.4 L 504.3,243.4 L 492.9,222.2 L 499.5,213.5 L 512.0,203.2 L 517.0,185.6 L 507.4,178.0 L 506.5,158.1 L 516.2,144.0 Z"/></clipPath></defs>
<g clip-path="url(#clip)"><a href="../../region.html?country=european-union&amp;region=Austria" data-region="Austria"><path class="division" d="M 581.1,389.3 L 572.6,389.3 L 575.5,392.6 L 570.5,402.2 L 567.7,404.7 L 554.6,405.1 L 547.0,408.5 L 534.6,407.4 L 513.1,403.5 L 509.8,398.3 L 495.0,400.9 L 493.2,403.7 L 484.1,401.6 L 476.5,401.2 L 469.7,398.5 L 472.0,394.8 L 471.4,392.1 L 475.9,391.3 L 483.5,395.5 L 485.7,391.5 L 498.9,392.1 L 509.6,389.5 L 516.8,389.9 L 521.5,393.0 L 522.9,390.4 L 520.8,380.7 L 526.2,378.8 L 531.4,371.8 L 542.6,376.7 L 551.0,370.5 L 556.3,369.4 L 567.9,374.0 L 575.0,373.2 L 581.9,376.0 L 580.7,377.9 L 582.2,383.1 L 581.1,389.3 Z"><title>Austria</title></path></a><a href="../../region.html?country=european-union&amp;region=Belgium" data-region="Belgium"><path class="division" d="M 418.1,353.1 L 414.2,353.6 L 412.6,362.1 L 399.5,355.2 L 391.8,356.4 L 381.3,349.3 L 374.3,343.3 L 367.4,343.0 L 365.2,337.8 L 377.2,334.8 L 377.2,334.8 L 377.2,334.8 L 388.2,336.0 L 402.1,332.9 L 411.6,339.4 L 419.8,342.9 L 418.1,353.1 Z"><title>Belgium</title></path></a><a href="../../region.html?country=european-union&amp;region=Bulgaria" data-region="Bulgaria"><path class="division" d="M 671.7,447.6 L 677.5,446.5 L 689.0,448.9 L 711.0,449.7 L 718.5,445.8 L 736.1,442.4 L 747.1,447.8 L 755.9,449.4 L 748.1,455.6 L 742.6,466.3 L 747.5,474.9 L 734.5,472.9 L 719.3,477.6 L 719.1,485.1 L 705.5,486.5 L 694.9,481.2 L 682.9,485.4 L 671.8,484.9 L 670.7,475.0 L 663.2,470.2 L 665.7,468.1 L 664.0,466.3 L 666.6,461.5 L 672.3,456.8 L 665.0,450.4 L 663.7,444.9 L 667.4,441.5 L 671.7,447.6 Z"><title>Bulgaria</title></path></a><a href="../../region.html?country=european-union&amp;region=Croatia" data-region="Croatia"><path class="division" d="M 580.7,409.3 L 592.0,415.7 L 604.3,418.6 L 609.9,416.4 L 613.6,422.2 L 618.4,426.5 L 612.6,432.1 L 605.8,428.8 L 595.4,429.0 L 582.5,426.5 L 575.5,426.8 L 572.3,429.9 L 566.9,426.5 L 563.8,432.7 L 571.1,439.7 L 574.3,444.4 L 581.2,450.0 L 587.0,453.3 L 592.6,459.6 L 605.9,465.3 L 604.3,467.8 L 604.3,467.8 L 590.1,462.3 L 581.5,456.9 L 567.7,452.4 L 555.1,441.4 L 558.1,440.2 L 551.3,433.9 L 551.0,428.9 L 541.4,426.5 L 536.8,433.0 L 532.4,427.9 L 532.7,422.7 L 533.2,422.5 L 543.7,423.0 L 546.4,420.5 L 551.5,422.9 L 557.4,423.2 L 557.4,419.0 L 562.6,417.5 L 564.0,411.4 L 576.0,407.4 L 580.7,409.3 Z"><title>Croatia</title></path></a><a href="../../region.html?country=european-union&amp;region=Cyprus" data-region="Cyprus"><path class="division" d="M 821.3,578.7 L 825.4,577.4 L 828.3,577.6 L 829.3,578.5 L 829.6,580.0 L 830.4,579.4 L 832.6,579.7 L 835.5,578.6 L 837.1,579.1 L 837.6,580.3 L 822.2,586.4 L 814.9,584.5 L 811.4,578.5 L 818.5,577.9 L 821.3,578.7 Z"><title>Cyprus</title></path></a><a href="../../region.html?country=european-union&amp;region=Czechia" data-region="Czechia"><path class="division" d="M 559.9,343.2 L 571.1,344.5 L 570.1,348.7 L 578.3,351.8 L 580.5,347.9 L 590.8,349.6 L 592.2,354.3 L 603.4,355.2 L 610.3,362.6 L 605.8,362.6 L 603.5,365.3 L 600.1,365.9 L 599.1,369.3 L 596.2,370.1 L 595.8,371.4 L 590.7,373.0 L 584.0,372.7 L 581.9,376.0 L 575.0,373.2 L 567.9,374.0 L 556.3,369.4 L 551.0,370.5 L 542.6,376.7 L 531.4,371.8 L 523.0,365.4 L 515.3,361.8 L 513.7,355.5 L 511.1,351.0 L 522.0,347.7 L 527.6,344.0 L 538.3,341.1 L 542.1,338.2 L 546.1,340.0 L 552.8,338.4 L 559.9,343.2 Z"><title>Czechia</title></path></a><a href="../../region.html?country=european-union&amp;region=Denmark" data-region="Denmark"><path class="division" d="M 508.8,283.0 L 493.2,274.5 L 491.1,268.3 L 513.1,263.3 L 517.9,270.9 L 508.8,283.0 Z M 455.4,280.6 L 449.3,272.2 L 448.8,256.9 L 451.3,252.9 L 455.7,248.3 L 468.9,247.4 L 474.1,243.3 L 486.2,239.0 L 485.7,246.8 L 481.3,251.6 L 483.0,255.9 L 491.2,258.1 L 487.5,263.8 L 483.0,262.1 L 472.2,273.0 L 476.3,280.3 L 466.7,282.5 L 455.4,280.6 Z"><title>Denmark</title></path></a><a href="../../region.html?country=european-union&amp;region=Estonia" data-region="Estonia"><path class="division" d="M 747.2,212.9 L 749.5,215.5 L 738.8,224.1 L 743.3,238.1 L 736.8,242.9 L 724.5,242.9 L 711.5,237.3 L 705.0,235.4 L 692.2,238.1 L 693.9,229.2 L 688.4,231.1 L 678.9,225.8 L 677.6,217.2 L 696.6,213.0 L 715.5,210.8 L 731.7,213.3 L 747.2,212.9 L 747.2,212.9 L 747.2,212.9 Z"><title>Estonia</title></path></a><a href="../../region.html?country=european-union&amp;region=Finland" data-region="Finland"><path class="division" d="M 754.2,79.5 L 777.2,89.5 L 763.3,100.8 L 780.8,117.9 L 770.7,130.8 L 784.2,141.9 L 778.0,151.7 L 800.2,162.0 L 794.6,169.6 L 780.7,178.3 L 748.6,197.4 L 748.6,197.4 L 748.5,197.4 L 721.3,198.6 L 694.9,204.1 L 670.5,207.3 L 661.9,199.1 L 647.3,194.2 L 650.7,179.4 L 643.4,165.9 L 650.5,157.2 L 664.1,147.7 L 698.5,131.5 L 708.5,128.3 L 706.9,122.0 L 686.1,114.9 L 681.0,109.1 L 680.6,86.0 L 657.2,75.7 L 637.2,68.4 L 646.2,64.4 L 662.8,72.4 L 682.4,71.6 L 698.5,75.3 L 712.8,68.6 L 720.2,57.6 L 743.5,52.5 L 762.7,58.5 L 756.4,69.0 L 754.2,79.5 Z"><title>Finland</title></path></a><a href="../../region.html?country=european-union&amp;region=France" data-region="France"><path class="division" d="M -460.8,1067.4 L -466.6,1073.1 L -473.8,1074.2 L -475.8,1070.0 L -479.2,1069.3 L -483.8,1073.4 L -490.4,1070.3 L -486.5,1064.0 L -485.2,1057.2 L -482.6,1050.7 L -488.5,1041.8 L -489.7,1031.5 L -481.9,1018.7 L -476.8,1020.3 L -465.7,1023.9 L -449.9,1036.5 L -447.4,1042.7 L -456.2,1056.4 L -460.8,1067.4 Z M 465.9,484.3 L 459.1,481.2 L 455.7,471.2 L 458.7,465.6 L 468.4,459.9 L 470.9,472.7 L 465.9,484.3 Z M 441.4,380.0 L 439.5,390.7 L 435.4,393.3 L 428.5,391.9 L 429.0,395.7 L 418.1,404.1 L 417.8,410.9 L 425.0,408.6 L 430.2,415.1 L 429.5,419.4 L 433.9,425.0 L 428.7,429.6 L 432.6,441.2 L 440.7,443.1 L 439.0,449.6 L 425.4,458.1 L 395.9,454.0 L 374.0,458.9 L 372.3,467.9 L 354.9,469.8 L 338.0,463.1 L 332.6,466.3 L 305.0,459.5 L 299.0,453.7 L 306.7,444.7 L 309.6,414.8 L 294.1,399.0 L 283.1,391.4 L 260.1,385.7 L 258.6,374.7 L 278.1,371.5 L 303.3,375.3 L 298.5,358.4 L 312.7,364.8 L 347.6,353.1 L 352.1,340.8 L 365.2,337.8 L 367.4,343.0 L 374.3,343.3 L 381.3,349.3 L 391.8,356.4 L 399.5,355.2 L 412.6,362.1 L 416.0,363.4 L 420.3,363.0 L 427.4,367.0 L 449.0,369.7 L 441.4,380.0 Z"><title>France</title></path></a><a href="../../region.html?country=european-union&amp;region=Germany" data-region="Germany"><path class="division" d="M 542.8,306.3 L 538.6,310.3 L 544.1,315.6 L 547.8,323.7 L 546.6,328.8 L 552.8,338.4 L 546.1,340.0 L 542.1,338.2 L 538.3,341.1 L 527.6,344.0 L 522.0,347.7 L 511.1,351.0 L 513.7,355.5 L 515.3,361.8 L 523.0,365.4 L 531.4,371.8 L 526.2,378.8 L 520.8,380.7 L 522.9,390.4 L 521.5,393.0 L 516.8,389.9 L 509.6,389.5 L 498.9,392.1 L 485.7,391.5 L 483.5,395.5 L 475.9,391.3 L 471.4,392.1 L 455.3,387.5 L 452.3,390.8 L 439.5,390.7 L 441.4,380.0 L 449.0,369.7 L 427.4,367.0 L 420.3,363.0 L 421.1,356.5 L 418.1,353.1 L 419.8,342.9 L 417.3,327.2 L 426.3,327.2 L 430.1,321.6 L 433.9,307.8 L 431.1,302.8 L 434.0,299.6 L 446.5,298.8 L 449.3,302.1 L 459.5,294.7 L 456.1,289.1 L 455.4,280.6 L 466.7,282.5 L 476.3,280.3 L 476.6,286.1 L 491.8,289.5 L 491.6,294.9 L 506.8,292.1 L 515.3,287.9 L 532.2,293.9 L 539.3,298.6 L 542.8,306.3 Z"><title>Germany</title></path></a><a href="../../region.html?country=european-union&amp;region=Greece" data-region="Greece"><path class="division" d="M 698.4,581.2 L 698.5,578.7 L 680.2,575.8 L 683.0,569.4 L 691.2,574.5 L 702.9,573.6 L 714.0,574.7 L 713.7,577.3 L 721.9,575.5 L 720.0,579.9 L 698.4,581.2 Z M 694.9,481.2 L 705.5,486.5 L 719.1,485.1 L 719.3,477.6 L 726.6,481.6 L 721.9,491.0 L 718.4,492.6 L 709.2,492.2 L 701.4,490.8 L 683.2,494.7 L 693.6,503.1 L 686.0,505.6 L 677.6,505.6 L 669.7,497.9 L 666.9,501.2 L 670.2,510.1 L 677.8,517.1 L 672.1,520.4 L 680.5,527.3 L 687.9,531.7 L 688.1,540.2 L 674.2,536.2 L 678.6,543.9 L 669.1,545.4 L 674.8,558.7 L 664.9,558.8 L 652.6,552.3 L 646.9,540.3 L 644.3,530.3 L 638.5,523.5 L 630.8,514.9 L 629.8,510.6 L 636.7,503.3 L 637.6,498.5 L 642.5,496.3 L 642.8,492.4 L 652.6,491.0 L 658.3,487.8 L 666.5,488.0 L 668.9,485.4 L 671.8,484.9 L 682.9,485.4 L 694.9,481.2 Z"><title>Greece</title></path></a><a href="../../region.html?country=european-union&amp;region=Hungary" data-region="Hungary"><path class="division" d="M 667.1,382.7 L 668.2,386.8 L 659.0,389.9 L 651.9,400.1 L 642.8,410.3 L 630.8,413.1 L 621.4,412.4 L 609.9,416.4 L 609.9,416.4 L 604.3,418.6 L 592.0,415.7 L 580.7,409.3 L 576.0,407.4 L 573.1,402.4 L 570.5,402.2 L 575.5,392.6 L 572.6,389.3 L 581.1,389.3 L 582.2,383.1 L 589.8,387.0 L 595.4,388.6 L 607.9,386.8 L 609.2,383.8 L 615.1,383.3 L 622.4,381.0 L 624.0,382.0 L 631.1,380.1 L 634.6,376.6 L 639.5,375.6 L 655.6,380.2 L 658.8,378.7 L 667.1,382.7 Z"><title>Hungary</title></path></a><a href="../../region.html?country=european-union&amp;region=Ireland" data-region="Ireland"><path class="division" d="M 237.0,307.7 L 225.7,321.1 L 199.1,330.0 L 177.8,327.7 L 190.0,312.0 L 182.2,296.8 L 202.6,285.0 L 213.9,278.0 L 217.0,286.1 L 213.9,294.1 L 223.2,293.9 L 234.5,297.0 L 237.0,307.7 Z"><title>Ireland</title></path></a><a href="../../region.html?country=european-union&amp;region=Italy" data-region="Italy"><path class="division" d="M 554.9,543.3 L 557.1,548.0 L 554.0,555.7 L 542.5,550.1 L 534.9,548.4 L 514.0,540.8 L 516.1,533.1 L 533.6,534.5 L 548.9,532.8 L 560.3,531.5 L 554.9,543.3 Z M 472.5,517.3 L 465.7,516.4 L 459.6,521.4 L 453.9,517.4 L 453.3,499.3 L 449.9,490.7 L 458.1,491.5 L 465.7,486.9 L 474.6,497.5 L 472.5,517.3 Z M 509.8,398.3 L 513.1,403.5 L 534.6,407.4 L 533.0,414.7 L 536.6,421.1 L 524.6,418.9 L 512.4,424.3 L 513.3,431.7 L 511.4,436.0 L 516.3,443.6 L 530.4,451.2 L 537.9,463.6 L 554.6,475.7 L 566.4,475.6 L 570.0,478.9 L 565.8,481.9 L 579.3,487.3 L 590.3,491.8 L 603.2,499.7 L 604.7,502.5 L 601.9,507.8 L 593.6,500.8 L 580.5,498.4 L 574.2,508.1 L 585.1,513.6 L 583.3,521.5 L 577.0,522.3 L 569.0,535.2 L 562.8,536.4 L 562.8,531.8 L 565.9,523.7 L 569.1,520.5 L 563.3,511.8 L 558.7,504.3 L 552.5,502.4 L 548.0,495.9 L 538.4,493.2 L 531.9,487.2 L 520.8,486.2 L 509.1,479.4 L 495.4,469.7 L 485.2,461.0 L 480.5,446.2 L 473.0,444.5 L 460.8,439.5 L 453.9,441.5 L 445.3,448.5 L 439.0,449.6 L 440.7,443.1 L 432.6,441.2 L 428.7,429.6 L 433.9,425.0 L 429.5,419.4 L 430.2,415.1 L 436.6,418.3 L 443.8,417.6 L 452.2,412.5 L 454.8,414.9 L 462.0,414.4 L 465.2,408.4 L 476.3,410.3 L 483.0,407.7 L 484.1,401.6 L 493.2,403.7 L 495.0,400.9 L 509.8,398.3 Z"><title>Italy</title></path></a><a href="../../region.html?country=european-union&amp;region=Latvia" data-region="Latvia"><path class="division" d="M 744.1,246.3 L 745.3,253.6 L 750.2,262.5 L 734.0,268.3 L 724.9,270.8 L 710.5,263.5 L 702.5,262.5 L 700.4,259.4 L 685.7,260.9 L 660.5,259.9 L 643.3,264.5 L 643.9,253.2 L 651.2,243.8 L 665.4,238.7 L 677.3,249.9 L 689.3,249.6 L 692.2,238.1 L 705.0,235.4 L 711.5,237.3 L 724.5,242.9 L 736.8,242.9 L 744.1,246.3 Z"><title>Latvia</title></path></a><a href="../../region.html?country=european-union&amp;region=Lithuania" data-region="Lithuania"><path class="division" d="M 726.3,277.5 L 714.0,282.3 L 710.5,290.8 L 694.3,296.4 L 679.8,296.3 L 676.2,291.7 L 668.5,290.1 L 667.3,286.3 L 668.9,282.2 L 662.2,279.8 L 646.5,277.1 L 643.3,264.5 L 660.5,259.9 L 685.7,260.9 L 700.4,259.4 L 702.5,262.5 L 710.5,263.5 L 724.9,270.8 L 726.3,277.5 Z"><title>Lithuania</title></path></a><a href="../../region.html?country=european-union&amp;region=Luxembourg" data-region="Luxembourg"><path class="division" d="M 421.1,356.5 L 420.3,363.0 L 416.0,363.4 L 412.6,362.1 L 414.2,353.6 L 418.1,353.1 L 421.1,356.5 Z"><title>Luxembourg</title></path></a><a href="../../region.html?country=european-union&amp;region=Netherlands" data-region="Netherlands"><path class="division" d="M 433.9,307.8 L 430.1,321.6 L 426.3,327.2 L 417.3,327.2 L 419.8,342.9 L 411.6,339.4 L 402.1,332.9 L 388.2,336.0 L 377.2,334.8 L 377.2,334.8 L 385.0,330.7 L 398.1,308.6 L 418.6,302.3 L 431.1,302.8 L 433.9,307.8 Z"><title>Netherlands</title></path></a><a href="../../region.html?country=european-union&amp;region=Poland" data-region="Poland"><path class="division" d="M 680.4,302.9 L 684.6,308.7 L 684.5,314.6 L 675.5,317.7 L 680.1,324.6 L 680.4,331.3 L 687.9,344.4 L 686.3,348.6 L 678.9,350.4 L 665.3,362.8 L 669.1,369.6 L 665.9,368.7 L 651.6,362.9 L 640.8,365.1 L 633.7,363.5 L 624.9,366.7 L 617.3,361.4 L 611.1,363.5 L 610.3,362.6 L 603.4,355.2 L 592.2,354.3 L 590.8,349.6 L 580.5,347.9 L 578.3,351.8 L 570.1,348.7 L 571.1,344.5 L 559.9,343.2 L 552.8,338.4 L 546.6,328.8 L 547.8,323.7 L 544.1,315.6 L 538.6,310.3 L 542.8,306.3 L 539.3,298.6 L 549.5,294.2 L 573.0,287.3 L 591.8,282.2 L 606.8,284.8 L 607.9,288.4 L 622.4,288.6 L 640.9,290.3 L 668.5,290.1 L 676.2,291.7 L 679.8,296.3 L 680.4,302.9 Z"><title>Poland</title></path></a><a href="../../region.html?country=european-union&amp;region=Portugal" data-region="Portugal"><path class="division" d="M 197.4,473.0 L 203.5,470.8 L 207.3,478.1 L 216.2,478.1 L 218.7,476.2 L 227.5,476.7 L 231.7,484.3 L 224.7,488.3 L 224.5,500.0 L 222.1,502.2 L 221.5,509.3 L 215.0,510.6 L 221.0,519.5 L 216.9,529.4 L 222.1,533.9 L 220.0,537.9 L 214.4,543.6 L 215.7,548.5 L 209.7,552.4 L 201.8,550.3 L 194.0,552.0 L 196.3,540.2 L 194.9,531.0 L 188.2,529.6 L 184.6,523.9 L 185.8,514.1 L 191.8,508.7 L 192.8,502.6 L 196.0,493.6 L 195.6,487.2 L 192.6,481.8 L 192.0,476.8 L 197.4,473.0 Z"><title>Portugal</title></path></a><a href="../../region.html?country=european-union&amp;region=Romania" data-region="Romania"><path class="division" d="M 757.7,425.4 L 764.7,423.0 L 771.5,425.6 L 771.9,429.5 L 764.6,432.7 L 760.1,431.3 L 755.9,449.4 L 747.1,447.8 L 736.1,442.4 L 718.5,445.8 L 711.0,449.7 L 689.0,448.9 L 677.5,446.5 L 671.7,447.6 L 667.4,441.5 L 664.6,438.9 L 668.1,436.3 L 664.4,434.5 L 659.7,437.8 L 650.9,433.5 L 649.8,427.3 L 640.6,423.8 L 638.9,419.0 L 630.8,413.1 L 642.8,410.3 L 651.9,400.1 L 659.0,389.9 L 668.2,386.8 L 674.6,383.6 L 683.9,385.2 L 693.5,385.3 L 700.5,388.9 L 705.6,386.6 L 716.7,385.2 L 720.5,381.7 L 726.8,381.7 L 731.4,383.2 L 736.0,387.6 L 740.8,393.9 L 749.4,402.8 L 749.9,409.4 L 748.3,415.8 L 751.0,422.7 L 757.7,425.4 Z"><title>Romania</title></path></a><a href="../../region.html?country=european-union&amp;region=Slovakia" data-region="Slovakia"><path class="division" d="M 661.7,372.6 L 658.8,378.7 L 655.6,380.2 L 639.5,375.6 L 634.6,376.6 L 631.1,380.1 L 624.0,382.0 L 622.4,381.0 L 615.1,383.3 L 609.2,383.8 L 607.9,386.8 L 595.4,388.6 L 589.8,387.0 L 582.2,383.1 L 580.7,377.9 L 581.9,376.0 L 584.0,372.7 L 590.7,373.0 L 595.8,371.4 L 596.2,370.1 L 599.1,369.3 L 600.1,365.9 L 603.5,365.3 L 605.8,362.6 L 610.3,362.6 L 611.1,363.5 L 617.3,361.4 L 624.9,366.7 L 633.7,363.5 L 640.8,365.1 L 651.6,362.9 L 665.9,368.7 L 661.7,372.6 Z"><title>Slovakia</title></path></a><a href="../../region.html?country=european-union&amp;region=Slovenia" data-region="Slovenia"><path class="division" d="M 547.0,408.5 L 554.6,405.1 L 567.7,404.7 L 570.5,402.2 L 573.1,402.4 L 576.0,407.4 L 564.0,411.4 L 562.6,417.5 L 557.4,419.0 L 557.4,423.2 L 551.5,422.9 L 546.4,420.5 L 543.7,423.0 L 533.2,422.5 L 536.6,421.1 L 533.0,414.7 L 534.6,407.4 L 547.0,408.5 Z"><title>Slovenia</title></path></a><a href="../../region.html?country=european-union&amp;region=Spain" data-region="Spain"><path class="division" d="M 214.4,543.6 L 220.0,537.9 L 222.1,533.9 L 216.9,529.4 L 221.0,519.5 L 215.0,510.6 L 221.5,509.3 L 222.1,502.2 L 224.5,500.0 L 224.7,488.3 L 231.7,484.3 L 227.5,476.7 L 218.7,476.2 L 216.2,478.1 L 207.3,478.1 L 203.5,470.8 L 197.4,473.0 L 192.0,476.8 L 192.7,466.1 L 186.6,459.6 L 207.8,448.8 L 226.2,451.5 L 246.3,451.4 L 262.3,453.9 L 274.7,453.2 L 299.0,453.7 L 305.0,459.5 L 332.6,466.3 L 338.0,463.1 L 354.9,469.8 L 372.3,467.9 L 373.1,476.6 L 358.9,486.6 L 339.7,489.8 L 338.3,494.8 L 329.1,503.1 L 323.3,515.4 L 329.2,523.9 L 320.5,530.6 L 317.2,540.4 L 305.9,543.4 L 295.3,554.9 L 276.3,555.1 L 262.0,554.8 L 252.6,560.1 L 246.8,565.8 L 239.5,564.6 L 233.9,559.5 L 229.7,550.9 L 215.7,548.5 L 214.4,543.6 Z"><title>Spain</title></path></a><a href="../../region.html?country=european-union&amp;region=Sweden" data-region="Sweden"><path class="division" d="M 499.5,213.5 L 512.0,203.2 L 517.0,185.6 L 507.4,178.0 L 506.5,158.1 L 516.2,144.0 L 531.1,144.3 L 536.3,138.3 L 530.8,133.2 L 554.1,112.1 L 569.1,95.5 L 579.0,84.8 L 593.4,84.8 L 597.4,76.5 L 625.7,78.9 L 627.9,69.0 L 637.2,68.4 L 657.2,75.7 L 680.6,86.0 L 681.0,109.1 L 686.1,114.9 L 660.2,119.1 L 645.7,129.6 L 648.0,138.8 L 624.2,150.9 L 595.2,163.8 L 584.3,184.9 L 595.0,195.5 L 609.3,203.8 L 595.5,220.7 L 579.9,224.2 L 574.2,249.4 L 565.7,263.4 L 547.5,262.0 L 539.0,273.9 L 521.6,274.6 L 516.9,260.4 L 504.3,243.4 L 492.9,222.2 L 499.5,213.5 Z"><title>Sweden</title></path></a><a href="../../region.html?country=european-union&amp;region=Malta" data-region="Malta"><path class="division" d="M 548.0,569.5 L 540.5,569.5 L 540.5,562.0 L 548.0,562.0 L 548.0,569.5 Z"><title>Malta</title></path></a></g><path class="outline" d="M -479.2,1069.3 L -483.8,1073.4 L -490.4,1070.3 L -486.5,1064.0 L -485.2,1057.2 L -482.6,1050.7 L -488.5,1041.8 L -489.7,1031.5 L -481.9,1018.7 L -476.8,1020.3 L -465.7,1023.9 L -449.9,1036.5 L -447.4,1042.7 L -456.2,1056.4 L -460.8,1067.4 L -466.6,1073.1 L -473.8,1074.2 L -475.8,1070.0 L -479.2,1069.3 Z M 540.5,569.5 L 540.5,562.0 L 548.0,562.0 L 548.0,569.5 L 540.5,569.5 Z M 534.9,548.4 L 514.0,540.8 L 516.1,533.1 L 533.6,534.5 L 548.9,532.8 L 560.3,531.5 L 554.9,543.3 L 557.1,548.0 L 554.0,555.7 L 542.5,550.1 L 534.9,548.4 Z M 194.0,552.0 L 196.3,540.2 L 194.9,531.0 L 188.2,529.6 L 184.6,523.9 L 185.8,514.1 L 191.8,508.7 L 192.8,502.6 L 196.0,493.6 L 195.6,487.2 L 192.6,481.8 L 192.0,476.8 L 192.7,466.1 L 186.6,459.6 L 207.8,448.8 L 226.2,451.5 L 246.3,451.4 L 262.3,453.9 L 274.7,453.2 L 299.0,453.7 L 306.7,444.7 L 309.6,414.8 L 294.1,399.0 L 283.1,391.4 L 260.1,385.7 L 258.6,374.7 L 278.1,371.5 L 303.3,375.3 L 298.5,358.4 L 312.7,364.8 L 347.6,353.1 L 352.1,340.8 L 365.2,337.8 L 377.2,334.8 L 377.2,334.8 L 385.0,330.7 L 398.1,308.6 L 418.6,302.3 L 431.1,302.8 L 434.0,299.6 L 446.5,298.8 L 449.3,302.1 L 459.5,294.7 L 456.1,289.1 L 455.4,280.6 L 449.3,272.2 L 448.8,256.9 L 451.3,252.9 L 455.7,248.3 L 468.9,247.4 L 474.1,243.3 L 486.2,239.0 L 485.7,246.8 L 481.3,251.6 L 483.0,255.9 L 491.2,258.1 L 487.5,263.8 L 483.0,262.1 L 472.2,273.0 L 476.3,280.3 L 476.6,286.1 L 491.8,289.5 L 491.6,294.9 L 506.8,292.1 L 515.3,287.9 L 532.2,293.9 L 539.3,298.6 L 549.5,294.2 L 573.0,287.3 L 591.8,282.2 L 606.8,284.8 L 607.9,288.4 L 622.4,288.6 L 640.9,290.3 L 668.5,290.1 L 667.3,286.3 L 668.9,282.2 L 662.2,279.8 L 646.5,277.1 L 643.3,264.5 L 643.9,253.2 L 651.2,243.8 L 665.4,238.7 L 677.3,249.9 L 689.3,249.6 L 692.2,238.1 L 693.9,229.2 L 688.4,231.1 L 678.9,225.8 L 677.6,217.2 L 696.6,213.0 L 715.5,210.8 L 731.7,213.3 L 747.2,212.9 L 747.2,212.9 L 747.2,212.9 L 749.5,215.5 L 738.8,224.1 L 743.3,238.1 L 736.8,242.9 L 744.1,246.3 L 745.3,253.6 L 750.2,262.5 L 734.0,268.3 L 724.9,270.8 L 726.3,277.5 L 714.0,282.3 L 710.5,290.8 L 694.3,296.4 L 679.8,296.3 L 680.4,302.9 L 684.6,308.7 L 684.5,314.6 L 675.5,317.7 L 680.1,324.6 L 680.4,331.3 L 687.9,344.4 L 686.3,348.6 L 678.9,350.4 L 665.3,362.8 L 669.1,369.6 L 665.9,368.7 L 661.7,372.6 L 658.8,378.7 L 667.1,382.7 L 668.2,386.8 L 674.6,383.6 L 683.9,385.2 L 693.5,385.3 L 700.5,388.9 L 705.6,386.6 L 716.7,385.2 L 720.5,381.7 L 726.8,381.7 L 731.4,383.2 L 736.0,387.6 L 740.8,393.9 L 749.4,402.8 L 749.9,409.4 L 748.3,415.8 L 751.0,422.7 L 757.7,425.4 L 764.7,423.0 L 771.5,425.6 L 771.9,429.5 L 764.6,432.7 L 760.1,431.3 L 755.9,449.4 L 748.1,455.6 L 742.6,466.3 L 747.5,474.9 L 734.5,472.9 L 719.3,477.6 L 726.6,481.6 L 721.9,491.0 L 718.4,492.6 L 709.2,492.2 L 701.4,490.8 L 683.2,494.7 L 693.6,503.1 L 686.0,505.6 L 677.6,505.6 L 669.7,497.9 L 666.9,501.2 L 670.2,510.1 L 677.8,517.1 L 672.1,520.4 L 680.5,527.3 L 687.9,531.7 L 688.1,540.2 L 674.2,536.2 L 678.6,543.9 L 669.1,545.4 L 674.8,558.7 L 664.9,558.8 L 652.6,552.3 L 646.9,540.3 L 644.3,530.3 L 638.5,523.5 L 630.8,514.9 L 629.8,510.6 L 636.7,503.3 L 637.6,498.5 L 642.5,496.3 L 642.8,492.4 L 652.6,491.0 L 658.3,487.8 L 666.5,488.0 L 668.9,485.4 L 671.8,484.9 L 670.7,475.0 L 663.2,470.2 L 665.7,468.1 L 664.0,466.3 L 666.6,461.5 L 672.3,456.8 L 665.0,450.4 L 663.7,444.9 L 667.4,441.5 L 664.6,438.9 L 668.1,436.3 L 664.4,434.5 L 659.7,437.8 L 650.9,433.5 L 649.8,427.3 L 640.6,423.8 L 638.9,419.0 L 630.8,413.1 L 621.4,412.4 L 609.9,416.4 L 609.9,416.4 L 613.6,422.2 L 618.4,426.5 L 612.6,432.1 L 605.8,428.8 L 595.4,429.0 L 582.5,426.5 L 575.5,426.8 L 572.3,429.9 L 566.9,426.5 L 563.8,432.7 L 571.1,439.7 L 574.3,444.4 L 581.2,450.0 L 587.0,453.3 L 592.6,459.6 L 605.9,465.3 L 604.3,467.8 L 604.3,467.8 L 590.1,462.3 L 581.5,456.9 L 567.7,452.4 L 555.1,441.4 L 558.1,440.2 L 551.3,433.9 L 551.0,428.9 L 541.4,426.5 L 536.8,433.0 L 532.4,427.9 L 532.7,422.7 L 533.2,422.5 L 536.6,421.1 L 524.6,418.9 L 512.4,424.3 L 513.3,431.7 L 511.4,436.0 L 516.3,443.6 L 530.4,451.2 L 537.9,463.6 L 554.6,475.7 L 566.4,475.6 L 570.0,478.9 L 565.8,481.9 L 579.3,487.3 L 590.3,491.8 L 603.2,499.7 L 604.7,502.5 L 601.9,507.8 L 593.6,500.8 L 580.5,498.4 L 574.2,508.1 L 585.1,513.6 L 583.3,521.5 L 577.0,522.3 L 569.0,535.2 L 562.8,536.4 L 562.8,531.8 L 565.9,523.7 L 569.1,520.5 L 563.3,511.8 L 558.7,504.3 L 552.5,502.4 L 548.0,495.9 L 538.4,493.2 L 531.9,487.2 L 520.8,486.2 L 509.1,479.4 L 495.4,469.7 L 485.2,461.0 L 480.5,446.2 L 473.0,444.5 L 460.8,439.5 L 453.9,441.5 L 445.3,448.5 L 439.0,449.6 L 425.4,458.1 L 395.9,454.0 L 374.0,458.9 L 372.3,467.9 L 373.1,476.6 L 358.9,486.6 L 339.7,489.8 L 338.3,494.8 L 329.1,503.1 L 323.3,515.4 L 329.2,523.9 L 320.5,530.6 L 317.2,540.4 L 305.9,543.4 L 295.3,554.9 L 276.3,555.1 L 262.0,554.8 L 252.6,560.1 L 246.8,565.8 L 239.5,564.6 L 233.9,559.5 L 229.7,550.9 L 215.7,548.5 L 209.7,552.4 L 201.8,550.3 L 194.0,552.0 Z M 443.8,417.6 L 452.2,412.5 L 454.8,414.9 L 462.0,414.4 L 465.2,408.4 L 476.3,410.3 L 483.0,407.7 L 484.1,401.6 L 476.5,401.2 L 469.7,398.5 L 472.0,394.8 L 471.4,392.1 L 455.3,387.5 L 452.3,390.8 L 439.5,390.7 L 435.4,393.3 L 428.5,391.9 L 429.0,395.7 L 418.1,404.1 L 417.8,410.9 L 425.0,408.6 L 430.2,415.1 L 436.6,418.3 L 443.8,417.6 Z M 453.3,499.3 L 449.9,490.7 L 458.1,491.5 L 465.7,486.9 L 474.6,497.5 L 472.5,517.3 L 465.7,516.4 L 459.6,521.4 L 453.9,517.4 L 453.3,499.3 Z M 468.4,459.9 L 470.9,472.7 L 465.9,484.3 L 459.1,481.2 L 455.7,471.2 L 458.7,465.6 L 468.4,459.9 Z M 190.0,312.0 L 182.2,296.8 L 202.6,285.0 L 213.9,278.0 L 217.0,286.1 L 213.9,294.1 L 223.2,293.9 L 234.5,297.0 L 237.0,307.7 L 225.7,321.1 L 199.1,330.0 L 177.8,327.7 L 190.0,312.0 Z M 517.9,270.9 L 508.8,283.0 L 493.2,274.5 L 491.1,268.3 L 513.1,263.3 L 517.9,270.9 Z M 829.6,580.0 L 830.4,579.4 L 832.6,579.7 L 835.5,578.6 L 837.1,579.1 L 837.6,580.3 L 822.2,586.4 L 814.9,584.5 L 811.4,578.5 L 818.5,577.9 L 821.3,578.7 L 825.4,577.4 L 828.3,577.6 L 829.3,578.5 L 829.6,580.0 Z M 691.2,574.5 L 702.9,573.6 L 714.0,574.7 L 713.7,577.3 L 721.9,575.5 L 720.0,579.9 L 698.4,581.2 L 698.5,578.7 L 680.2,575.8 L 683.0,569.4 L 691.2,574.5 Z M 516.2,144.0 L 531.1,144.3 L 536.3,138.3 L 530.8,133.2 L 554.1,112.1 L 569.1,95.5 L 579.0,84.8 L 593.4,84.8 L 597.4,76.5 L 625.7,78.9 L 627.9,69.0 L 637.2,68.4 L 646.2,64.4 L 662.8,72.4 L 682.4,71.6 L 698.5,75.3 L 712.8,68.6 L 720.2,57.6 L 743.5,52.5 L 762.7,58.5 L 756.4,69.0 L 754.2,79.5 L 777.2,89.5 L 763.3,100.8 L 780.8,117.9 L 770.7,130.8 L 784.2,141.9 L 778.0,151.7 L 800.2,162.0 L 794.6,169.6 L 780.7,178.3 L 748.6,197.4 L 748.6,197.4 L 748.5,197.4 L 721.3,198.6 L 694.9,204.1 L 670.5,207.3 L 661.9,199.1 L 647.3,194.2 L 650.7,179.4 L 643.4,165.9 L 650.5,157.2 L 664.1,147.7 L 698.5,131.5 L 708.5,128.3 L 706.9,122.0 L 686.1,114.9 L 660.2,119.1 L 645.7,129.6 L 648.0,138.8 L 624.2,150.9 L 595.2,163.8 L 584.3,184.9 L 595.0,195.5 L 609.3,203.8 L 595.5,220.7 L 579.9,224.2 L 574.2,249.4 L 565.7,263.4 L 547.5,262.0 L 539.0,273.9 L 521.6,274.6 L 516.9,260.4 L 504.3,243.4 L 492.9,222.2 L 499.5,213.5 L 512.0,203.2 L 517.0,185.6 L 507.4,178.0 L 506.5,158.1 L 516.2,144.0 Z"/><text class="division-label" x="551.8" y="386.2" text-anchor="middle">Austria</text><text class="division-label" x="398.6" y="346.3" text-anchor="middle">Belgium</text><text class="division-label" x="704.6" y="463.9" text-anchor="middle">Bulgaria</text><text class="division-label" x="561.3" y="436.8" text-anchor="middle">Croatia</text><text class="division-label" x="823.0" y="582.4" text-anchor="middle">Cyprus</text><text class="division-label" x="560.6" y="358.6" text-anchor="middle">Czechia</text><text class="division-label" x="469.4" y="260.1" text-anchor="middle">Denmark</text><text class="division-label" x="710.9" y="227.5" text-anchor="middle">Estonia</text><text class="division-label" x="738.1" y="129.5" text-anchor="middle">Finland</text><text class="division-label" x="359.0" y="401.6" text-anchor="middle">France</text><text class="division-label" x="484.0" y="333.5" text-anchor="middle">Germany</text><text class="division-label" x="654.6" y="518.8" text-anchor="middle">Greece</text><text class="division-label" x="614.0" y="396.3" text-anchor="middle">Hungary</text><text class="division-label" x="210.4" y="302.3" text-anchor="middle">Ireland</text><text class="division-label" x="517.0" y="466.6" text-anchor="middle">Italy</text><text class="division-label" x="695.1" y="251.6" text-anchor="middle">Latvia</text><text class="division-label" x="689.4" y="278.6" text-anchor="middle">Lithuania</text><text class="division-label" x="417.0" y="359.3" text-anchor="middle">LUX</text><text class="division-label" x="408.5" y="324.4" text-anchor="middle">NET</text><text class="division-label" x="613.6" y="326.7" text-anchor="middle">Poland</text><text class="division-label" x="202.0" y="512.3" text-anchor="middle">Portugal</text><text class="division-label" x="690.7" y="414.5" text-anchor="middle">Romania</text><text class="division-label" x="622.0" y="374.3" text-anchor="middle">Slovakia</text><text class="division-label" x="548.5" y="413.1" text-anchor="middle">Slovenia</text><text class="division-label" x="274.7" y="506.2" text-anchor="middle">Spain</text><text class="division-label" x="549.3" y="170.9" text-anchor="middle">Sweden</text><text class="division-label" x="544.2" y="565.8" text-anchor="middle">MAL</text>
<text class="map-note" x="20" y="600">EU member states are individually outlined and clickable.</text></svg>