<svg class="local-country-map" viewBox="0 0 1000 650" role="img" aria-label="European Union member state map" xmlns="http://www.w3.org/2000/svg"><a href="../../region.html?country=european-union&amp;region=Austria"><path class="eu-state" d="M 608.4,400.7 L 607.2,407.1 L 598.4,407.1 L 601.5,410.5 L 596.3,420.4 L 593.3,423.1 L 579.8,423.5 L 571.9,427.0 L 559.1,425.8 L 536.9,421.8 L 533.4,416.4 L 518.1,419.1 L 516.3,422.0 L 506.9,419.8 L 499.0,419.4 L 491.9,416.6 L 494.3,412.8 L 493.7,410.0 L 498.4,409.1 L 506.2,413.5 L 508.5,409.4 L 522.1,410.0 L 533.2,407.2 L 540.7,407.7 L 545.5,410.9 L 547.0,408.3 L 544.8,398.1 L 550.4,396.2 L 555.8,389.0 L 567.4,394.0 L 576.1,387.7 L 581.6,386.5 L 593.6,391.2 L 600.9,390.4 L 608.1,393.4 L 606.8,395.3 L 608.4,400.7 Z"><title>Austria</title></path></a><a href="../../region.html?country=european-union&amp;region=Belgium"><path class="eu-state" d="M 440.3,359.1 L 438.6,369.6 L 434.5,370.2 L 432.8,378.9 L 419.3,371.8 L 411.3,373.0 L 400.4,365.7 L 393.2,359.5 L 386.0,359.2 L 383.8,353.7 L 396.2,350.7 L 396.2,350.7 L 396.2,350.7 L 407.6,351.9 L 422.0,348.7 L 431.8,355.5 L 440.3,359.1 Z"><title>Belgium</title></path></a><a href="../../region.html?country=european-union&amp;region=Bulgaria"><path class="eu-state" d="M 696.5,461.1 L 701.0,467.5 L 707.0,466.3 L 718.9,468.8 L 741.7,469.6 L 749.4,465.6 L 767.7,462.0 L 779.0,467.6 L 788.1,469.3 L 780.1,475.7 L 774.4,486.8 L 779.4,495.7 L 766.1,493.6 L 750.2,498.5 L 750.1,506.2 L 736.0,507.7 L 725.0,502.3 L 712.6,506.5 L 701.1,506.1 L 700.0,495.8 L 692.2,490.8 L 694.8,488.6 L 693.1,486.8 L 695.7,481.8 L 701.6,477.0 L 694.1,470.3 L 692.7,464.6 L 696.5,461.1 Z"><title>Bulgaria</title></path></a><a href="../../region.html?country=european-union&amp;region=Croatia"><path class="eu-state" d="M 601.9,425.9 L 606.9,427.8 L 618.5,434.4 L 631.3,437.4 L 637.1,435.1 L 640.9,441.1 L 645.8,445.5 L 639.8,451.4 L 632.8,447.9 L 622.1,448.2 L 608.7,445.6 L 601.5,445.9 L 598.1,449.1 L 592.5,445.6 L 589.3,452.0 L 596.9,459.3 L 600.2,464.1 L 607.4,469.9 L 613.3,473.3 L 619.2,479.8 L 632.9,485.7 L 631.2,488.3 L 631.2,488.3 L 616.6,482.6 L 607.6,477.0 L 593.4,472.4 L 580.3,461.0 L 583.5,459.8 L 576.4,453.3 L 576.1,448.0 L 566.1,445.6 L 561.4,452.3 L 556.8,447.1 L 557.1,441.7 L 557.7,441.4 L 568.5,442.0 L 571.3,439.4 L 576.6,441.9 L 582.7,442.2 L 582.7,437.8 L 588.1,436.3 L 589.6,430.0 L 601.9,425.9 Z"><title>Croatia</title></path></a><a href="../../region.html?country=european-union&amp;region=Cyprus"><path class="eu-state" d="M 852.9,602.3 L 855.9,603.1 L 860.1,601.8 L 863.1,601.9 L 864.2,602.9 L 864.5,604.5 L 865.3,603.9 L 867.6,604.2 L 870.6,603.0 L 872.2,603.6 L 872.7,604.8 L 856.8,611.1 L 849.2,609.1 L 845.6,602.9 L 852.9,602.3 Z"><title>Cyprus</title></path></a><a href="../../region.html?country=european-union&amp;region=Czechia"><path class="eu-state" d="M 577.9,354.4 L 585.3,359.4 L 596.9,360.7 L 595.9,365.0 L 604.3,368.2 L 606.6,364.2 L 617.3,366.0 L 618.8,370.8 L 630.3,371.8 L 637.5,379.4 L 632.8,379.4 L 630.4,382.2 L 626.9,382.9 L 625.8,386.4 L 622.9,387.2 L 622.4,388.6 L 617.1,390.2 L 610.3,389.9 L 608.1,393.4 L 600.9,390.4 L 593.6,391.2 L 581.6,386.5 L 576.1,387.7 L 567.4,394.0 L 555.8,389.0 L 547.1,382.3 L 539.1,378.6 L 537.5,372.1 L 534.8,367.4 L 546.1,364.1 L 551.8,360.2 L 563.0,357.2 L 566.9,354.2 L 571.0,356.0 L 577.9,354.4 Z"><title>Czechia</title></path></a><a href="../../region.html?country=european-union&amp;region=Denmark"><path class="eu-state" d="M 541.8,284.5 L 532.4,297.1 L 516.2,288.3 L 514.0,281.8 L 536.8,276.7 L 541.8,284.5 Z M 488.9,296.6 L 477.1,294.5 L 470.8,285.9 L 470.3,270.0 L 472.9,265.8 L 477.4,261.2 L 491.1,260.2 L 496.5,255.9 L 509.0,251.6 L 508.5,259.5 L 503.9,264.6 L 505.7,269.0 L 514.2,271.3 L 510.4,277.2 L 505.7,275.5 L 494.6,286.7 L 498.8,294.2 L 488.9,296.6 Z"><title>Denmark</title></path></a><a href="../../region.html?country=european-union&amp;region=Estonia"><path class="eu-state" d="M 779.2,224.5 L 779.2,224.5 L 781.5,227.2 L 770.5,236.1 L 775.1,250.6 L 768.4,255.5 L 755.6,255.5 L 742.3,249.7 L 735.5,247.8 L 722.2,250.6 L 724.0,241.4 L 718.3,243.4 L 708.5,237.9 L 707.1,228.9 L 726.7,224.6 L 746.3,222.4 L 763.2,224.9 L 779.2,224.5 L 779.2,224.5 Z"><title>Estonia</title></path></a><a href="../../region.html?country=european-union&amp;region=Finland"><path class="eu-state" d="M 788.7,75.6 L 786.4,86.4 L 810.2,96.8 L 795.8,108.5 L 813.9,126.2 L 803.5,139.5 L 817.4,151.0 L 811.1,161.2 L 834.1,171.8 L 828.2,179.7 L 813.8,188.7 L 780.6,208.5 L 780.6,208.5 L 780.6,208.5 L 752.4,209.7 L 725.1,215.4 L 699.8,218.7 L 690.8,210.2 L 675.8,205.1 L 679.2,189.8 L 671.7,175.8 L 679.1,166.8 L 693.2,157.0 L 728.7,140.2 L 739.1,137.0 L 737.5,130.4 L 715.9,123.1 L 710.6,117.0 L 710.2,93.1 L 686.0,82.5 L 665.3,74.9 L 674.6,70.8 L 691.8,79.0 L 712.1,78.3 L 728.8,82.0 L 743.6,75.1 L 751.2,63.8 L 775.3,58.5 L 795.2,64.7 L 788.7,75.6 Z"><title>Finland</title></path></a><a href="../../region.html?country=european-union&amp;region=France"><path class="eu-state" d="M -466.5,1097.6 L -471.3,1109.0 L -477.2,1114.9 L -484.7,1116.0 L -486.8,1111.6 L -490.2,1111.0 L -495.1,1115.2 L -501.8,1112.0 L -497.9,1105.5 L -496.5,1098.4 L -493.8,1091.7 L -499.9,1082.5 L -501.1,1071.9 L -493.0,1058.5 L -487.8,1060.2 L -476.3,1063.9 L -459.9,1077.0 L -457.3,1083.4 L -466.5,1097.6 Z M 493.2,493.4 L 488.0,505.4 L 481.0,502.3 L 477.4,491.8 L 480.5,486.0 L 490.5,480.1 L 493.2,493.4 Z M 470.5,386.8 L 462.6,397.5 L 460.7,408.5 L 456.4,411.2 L 449.3,409.7 L 449.8,413.7 L 438.5,422.4 L 438.2,429.4 L 445.7,427.0 L 451.0,433.8 L 450.4,438.2 L 454.9,444.0 L 449.5,448.8 L 453.5,460.8 L 462.0,462.8 L 460.2,469.5 L 446.1,478.3 L 415.5,474.1 L 392.9,479.1 L 391.1,488.4 L 373.1,490.5 L 355.6,483.4 L 350.0,486.8 L 321.4,479.7 L 315.2,473.7 L 323.2,464.4 L 326.2,433.5 L 310.2,417.2 L 298.7,409.3 L 275.0,403.3 L 273.4,392.0 L 293.6,388.6 L 319.6,392.6 L 314.7,375.1 L 329.4,381.7 L 365.5,369.6 L 370.2,356.9 L 383.8,353.7 L 386.0,359.2 L 393.2,359.5 L 400.4,365.7 L 411.3,373.0 L 419.3,371.8 L 432.8,378.9 L 436.3,380.2 L 440.8,379.9 L 448.1,384.0 L 470.5,386.8 Z"><title>France</title></path></a><a href="../../region.html?country=european-union&amp;region=Germany"><path class="eu-state" d="M 564.0,313.2 L 567.6,321.1 L 563.3,325.3 L 568.9,330.8 L 572.7,339.1 L 571.5,344.5 L 577.9,354.4 L 571.0,356.0 L 566.9,354.2 L 563.0,357.2 L 551.8,360.2 L 546.1,364.1 L 534.8,367.4 L 537.5,372.1 L 539.1,378.6 L 547.1,382.3 L 555.8,389.0 L 550.4,396.2 L 544.8,398.1 L 547.0,408.3 L 545.5,410.9 L 540.7,407.7 L 533.2,407.2 L 522.1,410.0 L 508.5,409.4 L 506.2,413.5 L 498.4,409.1 L 493.7,410.0 L 477.1,405.3 L 473.9,408.6 L 460.7,408.5 L 462.6,397.5 L 470.5,386.8 L 448.1,384.0 L 440.8,379.9 L 441.7,373.1 L 438.6,369.6 L 440.3,359.1 L 437.7,342.8 L 447.0,342.8 L 451.0,337.0 L 454.9,322.8 L 451.9,317.5 L 455.0,314.2 L 468.0,313.4 L 470.8,316.8 L 481.4,309.2 L 477.8,303.3 L 477.1,294.5 L 488.9,296.6 L 498.8,294.2 L 499.1,300.2 L 514.8,303.8 L 514.6,309.3 L 530.4,306.4 L 539.1,302.2 L 556.6,308.3 L 564.0,313.2 Z"><title>Germany</title></path></a><a href="../../region.html?country=european-union&amp;region=Greece"><path class="eu-state" d="M 751.0,604.4 L 728.6,605.7 L 728.8,603.2 L 709.8,600.1 L 712.7,593.5 L 721.2,598.8 L 733.3,597.9 L 744.8,599.0 L 744.5,601.7 L 752.9,599.8 L 751.0,604.4 Z M 712.6,506.5 L 725.0,502.3 L 736.0,507.7 L 750.1,506.2 L 750.2,498.5 L 757.8,502.6 L 753.0,512.3 L 749.3,514.0 L 739.8,513.6 L 731.7,512.1 L 712.9,516.2 L 723.7,524.9 L 715.8,527.4 L 707.2,527.4 L 699.0,519.5 L 696.0,522.9 L 699.5,532.1 L 707.3,539.4 L 701.4,542.8 L 710.1,550.0 L 717.8,554.5 L 718.0,563.3 L 703.6,559.1 L 708.2,567.1 L 698.3,568.7 L 704.2,582.4 L 693.9,582.6 L 681.2,575.8 L 675.4,563.4 L 672.7,553.1 L 666.6,545.9 L 658.6,537.1 L 657.6,532.7 L 664.8,525.1 L 665.7,520.1 L 670.8,517.8 L 671.1,513.8 L 681.3,512.4 L 687.2,509.0 L 695.6,509.3 L 698.1,506.6 L 701.1,506.1 L 712.6,506.5 Z"><title>Greece</title></path></a><a href="../../region.html?country=european-union&amp;region=Hungary"><path class="eu-state" d="M 687.6,396.1 L 696.3,400.3 L 697.3,404.5 L 687.9,407.7 L 680.5,418.2 L 671.1,428.8 L 658.7,431.7 L 649.0,431.0 L 637.1,435.1 L 637.1,435.1 L 631.3,437.4 L 618.5,434.4 L 606.9,427.8 L 601.9,425.9 L 598.9,420.6 L 596.3,420.4 L 601.5,410.5 L 598.4,407.1 L 607.2,407.1 L 608.4,400.7 L 616.3,404.7 L 622.0,406.4 L 635.0,404.5 L 636.3,401.4 L 642.4,400.9 L 650.0,398.5 L 651.7,399.5 L 659.0,397.5 L 662.6,393.9 L 667.7,392.9 L 684.3,397.7 L 687.6,396.1 Z"><title>Hungary</title></path></a><a href="../../region.html?country=european-union&amp;region=Ireland"><path class="eu-state" d="M 248.5,311.5 L 251.1,322.6 L 239.3,336.5 L 211.8,345.7 L 189.8,343.3 L 202.4,327.1 L 194.3,311.3 L 215.4,299.2 L 227.2,291.9 L 230.4,300.2 L 227.2,308.5 L 236.8,308.3 L 248.5,311.5 Z"><title>Ireland</title></path></a><a href="../../region.html?country=european-union&amp;region=Italy"><path class="eu-state" d="M 585.7,554.3 L 580.1,566.5 L 582.4,571.3 L 579.2,579.3 L 567.3,573.5 L 559.4,571.8 L 537.7,563.9 L 539.9,555.9 L 558.1,557.4 L 573.9,555.7 L 585.7,554.3 Z M 497.0,519.1 L 494.9,539.6 L 487.8,538.6 L 481.5,543.8 L 475.6,539.7 L 475.0,521.0 L 471.4,512.1 L 480.0,512.9 L 487.7,508.1 L 497.0,519.1 Z M 518.1,419.1 L 533.4,416.4 L 536.9,421.8 L 559.1,425.8 L 557.4,433.4 L 561.1,440.0 L 548.8,437.8 L 536.2,443.3 L 537.0,451.0 L 535.1,455.4 L 540.2,463.3 L 554.8,471.1 L 562.6,484.0 L 579.8,496.5 L 592.0,496.4 L 595.8,499.8 L 591.4,502.9 L 605.3,508.5 L 616.7,513.2 L 630.1,521.3 L 631.7,524.2 L 628.8,529.8 L 620.1,522.5 L 606.7,520.0 L 600.1,530.0 L 611.3,535.8 L 609.5,543.9 L 603.0,544.8 L 594.7,558.1 L 588.3,559.3 L 588.3,554.6 L 591.5,546.2 L 594.9,542.9 L 588.8,533.9 L 584.1,526.1 L 577.6,524.2 L 573.0,517.5 L 563.0,514.6 L 556.3,508.4 L 544.8,507.4 L 532.7,500.4 L 518.5,490.3 L 507.9,481.3 L 503.1,466.0 L 495.4,464.2 L 482.7,459.0 L 475.6,461.1 L 466.6,468.4 L 460.2,469.5 L 462.0,462.8 L 453.5,460.8 L 449.5,448.8 L 454.9,444.0 L 450.4,438.2 L 451.0,433.8 L 457.7,437.1 L 465.2,436.4 L 473.9,431.1 L 476.6,433.6 L 484.0,433.1 L 487.3,426.8 L 498.8,428.8 L 505.6,426.2 L 506.9,419.8 L 516.3,422.0 L 518.1,419.1 Z"><title>Italy</title></path></a><a href="../../region.html?country=european-union&amp;region=Latvia"><path class="eu-state" d="M 768.4,255.5 L 775.9,259.1 L 777.2,266.6 L 782.2,275.8 L 765.5,281.8 L 756.1,284.4 L 741.2,276.9 L 732.9,275.9 L 730.7,272.6 L 715.5,274.2 L 689.4,273.2 L 671.7,277.9 L 672.2,266.3 L 679.8,256.5 L 694.5,251.2 L 706.8,262.8 L 719.2,262.5 L 722.2,250.6 L 735.5,247.8 L 742.3,249.7 L 755.6,255.5 L 768.4,255.5 Z"><title>Latvia</title></path></a><a href="../../region.html?country=european-union&amp;region=Lithuania"><path class="eu-state" d="M 756.1,284.4 L 757.6,291.4 L 744.8,296.3 L 741.2,305.1 L 724.4,310.9 L 709.4,310.8 L 705.6,306.0 L 697.7,304.4 L 696.4,300.4 L 698.1,296.2 L 691.2,293.7 L 675.0,291.0 L 671.7,277.9 L 689.4,273.2 L 715.5,274.2 L 730.7,272.6 L 732.9,275.9 L 741.2,276.9 L 756.1,284.4 Z"><title>Lithuania</title></path></a><a href="../../region.html?country=european-union&amp;region=Luxembourg"><path class="eu-state" d="M 438.6,369.6 L 441.7,373.1 L 440.8,379.9 L 436.3,380.2 L 432.8,378.9 L 434.5,370.2 L 438.6,369.6 Z"><title>Luxembourg</title></path></a><a href="../../region.html?country=european-union&amp;region=Netherlands"><path class="eu-state" d="M 451.9,317.5 L 454.9,322.8 L 451.0,337.0 L 447.0,342.8 L 437.7,342.8 L 440.3,359.1 L 431.8,355.5 L 422.0,348.7 L 407.6,351.9 L 396.2,350.7 L 396.2,350.7 L 404.2,346.4 L 417.8,323.6 L 439.0,317.1 L 451.9,317.5 Z"><title>Netherlands</title></path></a><a href="../../region.html?country=european-union&amp;region=Poland"><path class="eu-state" d="M 709.4,310.8 L 710.0,317.7 L 714.3,323.6 L 714.3,329.8 L 704.9,333.0 L 709.7,340.2 L 710.0,347.1 L 717.8,360.6 L 716.2,365.0 L 708.5,366.8 L 694.4,379.7 L 698.4,386.7 L 695.0,385.8 L 680.2,379.8 L 669.0,382.0 L 661.7,380.4 L 652.5,383.7 L 644.7,378.2 L 638.3,380.3 L 637.5,379.4 L 630.3,371.8 L 618.8,370.8 L 617.3,366.0 L 606.6,364.2 L 604.3,368.2 L 595.9,365.0 L 596.9,360.7 L 585.3,359.4 L 577.9,354.4 L 571.5,344.5 L 572.7,339.1 L 568.9,330.8 L 563.3,325.3 L 567.6,321.1 L 564.0,313.2 L 574.6,308.7 L 598.8,301.5 L 618.4,296.3 L 633.9,298.9 L 635.0,302.7 L 650.0,302.9 L 669.1,304.6 L 697.7,304.4 L 705.6,306.0 L 709.4,310.8 Z"><title>Poland</title></path></a><a href="../../region.html?country=european-union&amp;region=Portugal"><path class="eu-state" d="M 204.5,497.6 L 210.1,493.7 L 216.4,491.4 L 220.3,499.0 L 229.5,499.0 L 232.2,497.1 L 241.2,497.6 L 245.5,505.4 L 238.4,509.6 L 238.2,521.7 L 235.6,524.0 L 235.0,531.3 L 228.3,532.6 L 234.5,541.9 L 230.2,552.1 L 235.6,556.7 L 233.5,560.9 L 227.7,566.8 L 229.0,571.9 L 222.8,575.9 L 214.6,573.7 L 206.6,575.5 L 208.9,563.3 L 207.5,553.8 L 200.5,552.3 L 196.8,546.4 L 198.1,536.3 L 204.2,530.6 L 205.4,524.4 L 208.6,515.0 L 208.2,508.5 L 205.1,502.9 L 204.5,497.6 Z"><title>Portugal</title></path></a><a href="../../region.html?country=european-union&amp;region=Romania"><path class="eu-state" d="M 783.1,441.6 L 790.0,444.5 L 797.3,442.0 L 804.4,444.7 L 804.7,448.7 L 797.2,452.0 L 792.5,450.5 L 788.1,469.3 L 779.0,467.6 L 767.7,462.0 L 749.4,465.6 L 741.7,469.6 L 718.9,468.8 L 707.0,466.3 L 701.0,467.5 L 696.5,461.1 L 693.7,458.4 L 697.3,455.8 L 693.4,453.8 L 688.6,457.3 L 679.5,452.8 L 678.3,446.4 L 668.8,442.7 L 667.1,437.8 L 658.7,431.7 L 671.1,428.8 L 680.5,418.2 L 687.9,407.7 L 697.3,404.5 L 704.1,401.1 L 713.7,402.9 L 723.6,402.9 L 730.8,406.7 L 736.1,404.3 L 747.6,402.8 L 751.5,399.2 L 758.0,399.2 L 762.8,400.7 L 767.6,405.3 L 772.5,411.9 L 781.5,421.1 L 782.0,427.9 L 780.3,434.5 L 783.1,441.6 Z"><title>Romania</title></path></a><a href="../../region.html?country=european-union&amp;region=Slovakia"><path class="eu-state" d="M 695.0,385.8 L 690.7,389.8 L 687.6,396.1 L 684.3,397.7 L 667.7,392.9 L 662.6,393.9 L 659.0,397.5 L 651.7,399.5 L 650.0,398.5 L 642.4,400.9 L 636.3,401.4 L 635.0,404.5 L 622.0,406.4 L 616.3,404.7 L 608.4,400.7 L 606.8,395.3 L 608.1,393.4 L 610.3,389.9 L 617.1,390.2 L 622.4,388.6 L 622.9,387.2 L 625.8,386.4 L 626.9,382.9 L 630.4,382.2 L 632.8,379.4 L 637.5,379.4 L 638.3,380.3 L 644.7,378.2 L 652.5,383.7 L 661.7,380.4 L 669.0,382.0 L 680.2,379.8 L 695.0,385.8 Z"><title>Slovakia</title></path></a><a href="../../region.html?country=european-union&amp;region=Slovenia"><path class="eu-state" d="M 559.1,425.8 L 571.9,427.0 L 579.8,423.5 L 593.3,423.1 L 596.3,420.4 L 598.9,420.6 L 601.9,425.9 L 589.6,430.0 L 588.1,436.3 L 582.7,437.8 L 582.7,442.2 L 576.6,441.9 L 571.3,439.4 L 568.5,442.0 L 557.7,441.4 L 561.1,440.0 L 557.4,433.4 L 559.1,425.8 Z"><title>Slovenia</title></path></a><a href="../../region.html?country=european-union&amp;region=Spain"><path class="eu-state" d="M 229.0,571.9 L 227.7,566.8 L 233.5,560.9 L 235.6,556.7 L 230.2,552.1 L 234.5,541.9 L 228.3,532.6 L 235.0,531.3 L 235.6,524.0 L 238.2,521.7 L 238.4,509.6 L 245.5,505.4 L 241.2,497.6 L 232.2,497.1 L 229.5,499.0 L 220.3,499.0 L 216.4,491.4 L 210.1,493.7 L 204.5,497.6 L 205.2,486.6 L 198.9,479.8 L 220.9,468.6 L 239.9,471.4 L 260.7,471.3 L 277.2,474.0 L 290.1,473.2 L 315.2,473.7 L 321.4,479.7 L 350.0,486.8 L 355.6,483.4 L 373.1,490.5 L 391.1,488.4 L 391.9,497.5 L 377.2,507.8 L 357.3,511.1 L 355.9,516.3 L 346.4,524.9 L 340.4,537.6 L 346.5,546.4 L 337.5,553.4 L 334.1,563.4 L 322.4,566.5 L 311.4,578.5 L 291.7,578.7 L 276.9,578.4 L 267.2,583.9 L 261.2,589.8 L 253.7,588.5 L 247.9,583.2 L 243.5,574.3 L 229.0,571.9 Z"><title>Spain</title></path></a><a href="../../region.html?country=european-union&amp;region=Sweden"><path class="eu-state" d="M 516.0,234.1 L 522.8,225.1 L 535.7,214.5 L 540.9,196.2 L 530.9,188.4 L 530.0,167.7 L 540.1,153.2 L 555.5,153.4 L 560.9,147.3 L 555.2,142.0 L 579.3,120.1 L 594.8,102.9 L 605.1,91.9 L 620.0,91.9 L 624.1,83.3 L 653.4,85.8 L 655.7,75.6 L 665.3,74.9 L 686.0,82.5 L 710.2,93.1 L 710.6,117.0 L 715.9,123.1 L 689.2,127.4 L 674.1,138.3 L 676.5,147.8 L 651.8,160.3 L 621.8,173.6 L 610.5,195.5 L 621.6,206.4 L 636.4,215.0 L 622.2,232.6 L 606.0,236.2 L 600.1,262.3 L 591.3,276.8 L 572.5,275.3 L 563.7,287.6 L 545.7,288.3 L 540.8,273.7 L 527.8,256.0 L 516.0,234.1 Z"><title>Sweden</title></path></a><a href="../../region.html?country=european-union&amp;region=Malta"><g class="map-marker"><circle cx="568.3157894736842" cy="590.5" r="8"/><text x="568.3157894736842" y="577.5" text-anchor="middle">Malta</text></g></a><a href="../../region.html?country=european-union&amp;region=Cyprus"><g class="map-marker"><circle cx="860.2105263157896" cy="602.921052631579" r="8"/><text x="860.2105263157896" y="589.921052631579" text-anchor="middle">Cyprus</text></g></a></svg>