<svg class="defined-map" viewBox="0 0 1000 620" xmlns="http://www.w3.org/2000/svg" role="img">
<style>.background{fill:#0d1823}.outline{fill:none;stroke:#a5f3f7;stroke-width:3;vector-effect:non-scaling-stroke}.division{fill:#17384a;stroke:#39d8e3;stroke-width:1.7;vector-effect:non-scaling-stroke;transition:.15s;cursor:pointer}a:hover .division{fill:#2a8398;stroke:#fff;stroke-width:2.8}.division-label{fill:#f2fbff;font:600 13px Arial,sans-serif;pointer-events:none;paint-order:stroke;stroke:#071016;stroke-width:4px}.map-note{fill:#7790a2;font:11px Arial,sans-serif}</style>
<rect class="background" width="1000" height="620"/><defs><clipPath id="clip"><path d="M 130.9,315.4 L 152.3,293.3 L 170.0,305.6 L 177.6,324.7 L 197.6,328.0 L 225.8,336.4 L 249.9,333.2 L 289.8,310.3 L 289.9,144.9 L 302.0,151.6 L 328.5,194.1 L 324.4,221.4 L 334.4,237.2 L 366.5,232.6 L 388.9,212.6 L 410.1,199.1 L 421.0,177.7 L 442.9,167.3 L 461.8,172.7 L 483.1,185.3 L 519.6,187.5 L 548.2,177.1 L 552.8,163.1 L 560.6,141.7 L 585.0,138.1 L 598.5,121.3 L 613.4,91.4 L 653.6,58.0 L 717.0,25.0 L 735.2,25.5 L 756.8,33.1 L 771.9,27.7 L 795.7,32.2 L 817.2,95.2 L 828.8,127.0 L 820.9,176.9 L 824.7,193.0 L 802.1,184.8 L 789.1,188.0 L 784.9,201.1 L 772.7,217.9 L 773.1,233.4 L 799.8,257.6 L 826.0,252.8 L 835.2,232.9 L 869.1,233.3 L 857.9,265.9 L 852.7,303.1 L 841.1,323.3 L 810.5,345.9 L 801.8,352.4 L 782.8,375.1 L 770.3,398.2 L 744.9,430.2 L 694.3,476.5 L 662.7,503.3 L 628.8,523.7 L 582.0,541.1 L 559.2,543.4 L 553.4,555.8 L 526.2,549.2 L 504.0,557.7 L 455.5,549.1 L 428.4,554.6 L 409.8,552.2 L 363.6,569.9 L 325.4,577.0 L 297.7,593.9 L 277.4,595.0 L 258.4,579.0 L 243.3,578.2 L 224.0,558.2 L 221.9,564.4 L 215.9,552.4 L 216.2,526.1 L 201.6,496.1 L 216.1,488.0 L 214.9,453.6 L 185.6,411.7 L 163.1,373.7 L 163.0,373.6 L 130.9,315.4 Z M 696.6,332.4 L 677.1,318.6 L 656.2,327.7 L 631.9,345.3 L 608.0,373.6 L 641.6,408.1 L 657.6,403.6 L 665.9,389.3 L 690.8,382.3 L 698.4,367.7 L 712.2,345.9 L 696.6,332.4 Z"/></clipPath></defs>
<g clip-path="url(#clip)"><a href="../../region.html?country=south-africa&amp;region=Western%20Cape" data-region="Western Cape"><path class="division" d="M 384.1,379.2 L 518.5,468.7 L 463.9,550.6 L 455.5,549.1 L 428.4,554.6 L 409.8,552.2 L 363.6,569.9 L 325.4,577.0 L 297.7,593.9 L 277.4,595.0 L 258.4,579.0 L 243.3,578.2 L 224.0,558.2 L 221.9,564.4 L 215.9,552.4 L 216.2,526.1 L 201.6,496.1 L 216.1,488.0 L 214.9,453.6 L 185.6,411.7 L 166.3,379.2 L 384.1,379.2 Z"><title>Western Cape</title></path></a><a href="../../region.html?country=south-africa&amp;region=Northern%20Cape" data-region="Northern Cape"><path class="division" d="M 518.5,468.7 L 384.1,379.2 L 166.3,379.2 L 163.1,373.7 L 163.0,373.6 L 139.5,331.0 L 156.8,296.4 L 170.0,305.6 L 177.6,324.7 L 197.6,328.0 L 225.8,336.4 L 249.9,333.2 L 289.8,310.3 L 289.9,144.9 L 302.0,151.6 L 328.5,194.1 L 324.4,221.4 L 334.4,237.2 L 366.5,232.6 L 388.9,212.6 L 410.1,199.1 L 421.0,177.7 L 442.9,167.3 L 461.8,172.7 L 483.1,185.3 L 519.6,187.5 L 548.2,177.1 L 552.8,163.1 L 560.6,141.7 L 585.0,138.1 L 598.5,121.3 L 604.4,109.4 L 608.0,110.5 L 652.1,330.7 L 631.9,345.3 L 608.0,373.6 L 610.8,376.5 L 518.5,468.7 Z"><title>Northern Cape</title></path></a><a href="../../region.html?country=south-africa&amp;region=Eastern%20Cape" data-region="Eastern Cape"><path class="division" d="M 742.4,424.0 L 739.6,435.1 L 694.3,476.5 L 662.7,503.3 L 628.8,523.7 L 582.0,541.1 L 559.2,543.4 L 553.4,555.8 L 526.2,549.2 L 504.0,557.7 L 463.9,550.6 L 518.5,468.7 L 610.8,376.5 L 641.6,408.1 L 657.6,403.6 L 665.9,389.3 L 690.8,382.3 L 694.2,375.8 L 742.4,424.0 Z"><title>Eastern Cape</title></path></a><a href="../../region.html?country=south-africa&amp;region=Free%20State" data-region="Free State"><path class="division" d="M 518.5,468.7 L 428.9,289.6 L 537.6,180.9 L 548.2,177.1 L 551.5,167.0 L 563.3,155.3 L 697.6,200.0 L 654.7,328.8 L 631.9,345.3 L 608.0,373.6 L 610.8,376.5 L 518.5,468.7 Z"><title>Free State</title></path></a><a href="../../region.html?country=south-africa&amp;region=North%20West" data-region="North West"><path class="division" d="M 384.1,289.6 L 397.9,206.8 L 410.1,199.1 L 421.0,177.7 L 442.9,167.3 L 461.8,172.7 L 483.1,185.3 L 519.6,187.5 L 520.9,187.0 L 384.1,289.6 Z M 652.8,155.3 L 563.3,155.3 L 552.8,163.1 L 552.8,163.1 L 560.6,141.7 L 585.0,138.1 L 598.5,121.3 L 613.4,91.4 L 627.6,79.6 L 652.8,155.3 Z"><title>North West</title></path></a><a href="../../region.html?country=south-africa&amp;region=Gauteng" data-region="Gauteng"><path class="division" d="M 617.0,235.9 L 617.0,164.2 L 697.6,164.2 L 697.6,235.9 L 617.0,235.9 Z"><title>Gauteng</title></path></a><a href="../../region.html?country=south-africa&amp;region=Limpopo" data-region="Limpopo"><path class="division" d="M 697.6,164.2 L 652.8,155.3 L 627.6,79.6 L 653.6,58.0 L 717.0,25.0 L 735.2,25.5 L 756.8,33.1 L 771.9,27.7 L 795.7,32.2 L 817.2,95.2 L 828.8,127.0 L 824.3,155.8 L 697.6,164.2 Z"><title>Limpopo</title></path></a><a href="../../region.html?country=south-africa&amp;region=Mpumalanga" data-region="Mpumalanga"><path class="division" d="M 824.3,155.8 L 820.9,176.9 L 824.7,193.0 L 802.1,184.8 L 789.1,188.0 L 784.9,201.1 L 772.7,217.9 L 773.1,233.4 L 799.8,257.6 L 826.0,252.8 L 832.0,239.9 L 832.0,289.6 L 697.6,289.6 L 697.6,164.2 L 824.3,155.8 Z"><title>Mpumalanga</title></path></a><a href="../../region.html?country=south-africa&amp;region=KwaZulu-Natal" data-region="KwaZulu-Natal"><path class="division" d="M 832.0,289.6 L 841.4,322.7 L 841.1,323.3 L 810.5,345.9 L 801.8,352.4 L 782.8,375.1 L 770.3,398.2 L 749.0,425.1 L 742.4,424.0 L 694.2,375.8 L 698.4,367.7 L 712.2,345.9 L 696.6,332.4 L 677.1,318.6 L 662.0,325.2 L 697.6,289.6 L 832.0,289.6 Z"><title>KwaZulu-Natal</title></path></a></g><path class="outline" d="M 130.9,315.4 L 152.3,293.3 L 170.0,305.6 L 177.6,324.7 L 197.6,328.0 L 225.8,336.4 L 249.9,333.2 L 289.8,310.3 L 289.9,144.9 L 302.0,151.6 L 328.5,194.1 L 324.4,221.4 L 334.4,237.2 L 366.5,232.6 L 388.9,212.6 L 410.1,199.1 L 421.0,177.7 L 442.9,167.3 L 461.8,172.7 L 483.1,185.3 L 519.6,187.5 L 548.2,177.1 L 552.8,163.1 L 560.6,141.7 L 585.0,138.1 L 598.5,121.3 L 613.4,91.4 L 653.6,58.0 L 717.0,25.0 L 735.2,25.5 L 756.8,33.1 L 771.9,27.7 L 795.7,32.2 L 817.2,95.2 L 828.8,127.0 L 820.9,176.9 L 824.7,193.0 L 802.1,184.8 L 789.1,188.0 L 784.9,201.1 L 772.7,217.9 L 773.1,233.4 L 799.8,257.6 L 826.0,252.8 L 835.2,232.9 L 869.1,233.3 L 857.9,265.9 L 852.7,303.1 L 841.1,323.3 L 810.5,345.9 L 801.8,352.4 L 782.8,375.1 L 770.3,398.2 L 744.9,430.2 L 694.3,476.5 L 662.7,503.3 L 628.8,523.7 L 582.0,541.1 L 559.2,543.4 L 553.4,555.8 L 526.2,549.2 L 504.0,557.7 L 455.5,549.1 L 428.4,554.6 L 409.8,552.2 L 363.6,569.9 L 325.4,577.0 L 297.7,593.9 L 277.4,595.0 L 258.4,579.0 L 243.3,578.2 L 224.0,558.2 L 221.9,564.4 L 215.9,552.4 L 216.2,526.1 L 201.6,496.1 L 216.1,488.0 L 214.9,453.6 L 185.6,411.7 L 163.1,373.7 L 163.0,373.6 L 130.9,315.4 Z M 696.6,332.4 L 677.1,318.6 L 656.2,327.7 L 631.9,345.3 L 608.0,373.6 L 641.6,408.1 L 657.6,403.6 L 665.9,389.3 L 690.8,382.3 L 698.4,367.7 L 712.2,345.9 L 696.6,332.4 Z"/><text class="division-label" x="363.9" y="478.4" text-anchor="middle">WC</text><text class="division-label" x="464.6" y="266.8" text-anchor="middle">NC</text><text class="division-label" x="628.2" y="451.9" text-anchor="middle">EC</text><text class="division-label" x="550.0" y="309.2" text-anchor="middle">FS</text><text class="division-label" x="618.0" y="129.7" text-anchor="middle">NW</text><text class="division-label" x="657.3" y="200.0" text-anchor="middle">GP</text><text class="division-label" x="722.4" y="87.4" text-anchor="middle">LP</text><text class="division-label" x="735.3" y="225.6" text-anchor="middle">MP</text><text class="division-label" x="749.3" y="360.1" text-anchor="middle">KZN</text>
<text class="map-note" x="20" y="600">Provinces are individually outlined and clickable.</text></svg>