<svg class="local-country-map" viewBox="0 0 1000 600" role="img" aria-label="South Africa interactive map" xmlns="http://www.w3.org/2000/svg">
<path class="country-shape" d="M 156.77,305.06 L 176.72,284.46 L 193.16,295.87 L 200.18,313.67 L 218.87,316.70 L 245.05,324.58 L 267.42,321.54 L 304.59,300.24 L 304.63,146.45 L 315.87,152.70 L 340.56,192.27 L 336.72,217.64 L 346.01,232.26 L 375.84,228.02 L 396.66,209.43 L 416.38,196.91 L 426.58,176.96 L 446.89,167.31 L 464.44,172.37 L 484.33,184.03 L 518.22,186.09 L 544.85,176.39 L 549.07,163.40 L 556.39,143.48 L 579.04,140.14 L 591.56,124.50 L 605.43,96.75 L 642.82,65.67 L 701.74,35.00 L 718.68,35.45 L 738.82,42.51 L 752.86,37.51 L 774.99,41.67 L 794.94,100.28 L 805.77,129.86 L 798.35,176.29 L 801.91,191.24 L 780.89,183.61 L 768.86,186.58 L 764.92,198.70 L 753.55,214.34 L 753.94,228.74 L 778.80,251.31 L 803.17,246.81 L 811.65,228.32 L 843.23,228.67 L 832.82,258.98 L 827.91,293.58 L 817.13,312.37 L 788.72,333.40 L 780.58,339.42 L 762.93,360.58 L 751.31,381.97 L 727.70,411.81 L 680.64,454.77 L 651.25,479.75 L 619.80,498.70 L 576.28,514.86 L 555.05,517.02 L 549.68,528.58 L 524.37,522.43 L 503.76,530.36 L 458.63,522.33 L 433.40,527.41 L 416.16,525.23 L 373.21,541.67 L 337.66,548.26 L 311.94,564.00 L 293.00,565.00 L 275.38,550.15 L 261.30,549.39 L 243.37,530.80 L 241.40,536.57 L 235.87,525.38 L 236.10,500.97 L 222.57,473.06 L 236.01,465.48 L 234.92,433.52 L 207.65,394.55 L 186.73,359.27 L 186.67,359.16 L 156.77,305.06 Z M 682.83,320.84 L 664.65,308.01 L 645.19,316.50 L 622.63,332.79 L 600.43,359.16 L 631.66,391.19 L 646.56,387.05 L 654.22,373.75 L 677.43,367.24 L 684.51,353.66 L 697.28,333.40 L 682.83,320.84 Z"/>
<a href="../../region.html?country=south-africa&amp;region=Eastern%20Cape"><g class="map-marker"><circle cx="558.8" cy="447.6" r="11"/><text x="558.8" y="430.6" text-anchor="middle">Eastern Cape</text></g></a><a href="../../region.html?country=south-africa&amp;region=Free%20State"><g class="map-marker"><circle cx="579.6" cy="322.7" r="11"/><text x="579.6" y="305.7" text-anchor="middle">Free State</text></g></a><a href="../../region.html?country=south-africa&amp;region=Gauteng"><g class="map-marker"><circle cx="650.4" cy="197.8" r="11"/><text x="650.4" y="180.8" text-anchor="middle">Gauteng</text></g></a><a href="../../region.html?country=south-africa&amp;region=KwaZulu-Natal"><g class="map-marker"><circle cx="746.2" cy="322.7" r="11"/><text x="746.2" y="305.7" text-anchor="middle">KwaZulu-Natal</text></g></a><a href="../../region.html?country=south-africa&amp;region=Limpopo"><g class="map-marker"><circle cx="704.6" cy="106.2" r="11"/><text x="704.6" y="89.2" text-anchor="middle">Limpopo</text></g></a><a href="../../region.html?country=south-africa&amp;region=Mpumalanga"><g class="map-marker"><circle cx="746.2" cy="176.9" r="11"/><text x="746.2" y="159.9" text-anchor="middle">Mpumalanga</text></g></a><a href="../../region.html?country=south-africa&amp;region=North%20West"><g class="map-marker"><circle cx="538.0" cy="218.6" r="11"/><text x="538.0" y="201.6" text-anchor="middle">North West</text></g></a><a href="../../region.html?country=south-africa&amp;region=Northern%20Cape"><g class="map-marker"><circle cx="350.6" cy="322.7" r="11"/><text x="350.6" y="305.7" text-anchor="middle">Northern Cape</text></g></a><a href="../../region.html?country=south-africa&amp;region=Western%20Cape"><g class="map-marker"><circle cx="309.0" cy="489.2" r="11"/><text x="309.0" y="472.2" text-anchor="middle">Western Cape</text></g></a>
</svg>