<svg class="local-country-map" viewBox="0 0 1000 600" role="img" aria-label="United Kingdom interactive map" xmlns="http://www.w3.org/2000/svg">
<path class="country-shape" d="M 491.03,354.56 L 500.02,319.09 L 459.10,281.46 L 458.17,280.60 L 383.99,269.85 L 369.43,253.32 L 391.63,226.02 L 371.54,209.18 L 338.64,238.07 L 335.06,179.18 L 304.21,148.03 L 326.40,84.86 L 373.86,35.30 L 422.64,40.14 L 496.35,35.00 L 431.05,101.10 L 493.30,92.73 L 560.24,93.05 L 544.31,142.83 L 489.39,197.59 L 552.56,201.48 L 557.41,207.91 L 611.82,279.99 L 653.64,289.80 L 691.25,359.41 L 708.66,383.55 L 782.68,395.18 L 775.25,434.26 L 744.13,452.17 L 768.52,483.78 L 713.57,515.77 L 631.83,515.21 L 527.82,532.01 L 499.33,519.98 L 458.94,548.60 L 402.42,541.67 L 359.50,565.00 L 327.02,552.80 L 416.63,488.63 L 471.31,475.43 L 470.83,475.38 L 375.42,465.20 L 358.14,440.89 L 421.98,421.95 L 388.52,389.05 L 400.13,349.03 L 490.93,354.56 L 491.03,354.56 Z M 255.11,313.67 L 217.32,314.51 L 229.92,281.77 L 217.32,249.04 L 268.54,246.52 L 334.03,284.29 L 301.28,326.27 L 255.11,313.67 Z"/>
<a href="../../region.html?country=united-kingdom&amp;region=England"><g class="map-marker"><circle cx="588.3" cy="397.6" r="11"/><text x="588.3" y="380.6" text-anchor="middle">England</text></g></a><a href="../../region.html?country=united-kingdom&amp;region=Scotland"><g class="map-marker"><circle cx="435.6" cy="134.9" r="11"/><text x="435.6" y="117.9" text-anchor="middle">Scotland</text></g></a><a href="../../region.html?country=united-kingdom&amp;region=Wales"><g class="map-marker"><circle cx="460.0" cy="428.1" r="11"/><text x="460.0" y="411.1" text-anchor="middle">Wales</text></g></a><a href="../../region.html?country=united-kingdom&amp;region=Northern%20Ireland"><g class="map-marker"><circle cx="270.6" cy="275.4" r="11"/><text x="270.6" y="258.4" text-anchor="middle">Northern Ireland</text></g></a>
</svg>