<svg class="defined-map" viewBox="0 0 1000 620" xmlns="http://www.w3.org/2000/svg" role="img">
<style>.background{fill:#0d1823}.outline{fill:none;stroke:#a5f3f7;stroke-width:3;vector-effect:non-scaling-stroke}.division{fill:#17384a;stroke:#39d8e3;stroke-width:1.7;vector-effect:non-scaling-stroke;transition:.15s;cursor:pointer}a:hover .division{fill:#2a8398;stroke:#fff;stroke-width:2.8}.division-label{fill:#f2fbff;font:600 13px Arial,sans-serif;pointer-events:none;paint-order:stroke;stroke:#071016;stroke-width:4px}.map-note{fill:#7790a2;font:11px Arial,sans-serif}</style>
<rect class="background" width="1000" height="620"/><defs><clipPath id="clip"><path d="M 490.4,368.7 L 500.0,330.5 L 456.0,290.1 L 455.0,289.1 L 375.2,277.6 L 359.6,259.8 L 383.5,230.4 L 361.8,212.3 L 326.5,243.4 L 322.6,180.1 L 289.4,146.6 L 313.3,78.6 L 364.3,25.3 L 416.8,30.5 L 496.1,25.0 L 425.9,96.1 L 492.8,87.1 L 564.8,87.4 L 547.7,141.0 L 488.6,199.9 L 556.5,204.0 L 561.7,211.0 L 620.3,288.5 L 665.2,299.0 L 705.7,373.9 L 724.4,399.9 L 804.0,412.4 L 796.0,454.4 L 762.6,473.7 L 788.8,507.6 L 729.7,542.1 L 641.8,541.5 L 529.9,559.5 L 499.3,546.6 L 455.8,577.4 L 395.1,569.9 L 348.9,595.0 L 314.0,581.9 L 410.3,512.9 L 469.1,498.7 L 468.6,498.6 L 366.0,487.7 L 347.4,461.5 L 416.1,441.2 L 380.1,405.8 L 392.6,362.7 L 490.2,368.7 L 490.4,368.7 Z M 236.6,324.7 L 196.0,325.6 L 209.5,290.4 L 196.0,255.2 L 251.1,252.5 L 321.5,293.1 L 286.3,338.2 L 236.6,324.7 Z"/></clipPath></defs>
<g clip-path="url(#clip)"><a href="../../region.html?country=united-kingdom&amp;region=Northumberland" data-region="Northumberland"><path class="division" d="M 315.0,76.8 L 317.6,74.1 L 317.6,76.8 L 315.0,76.8 Z"><title>Northumberland</title></path></a><a href="../../region.html?country=united-kingdom&amp;region=Tyne%20and%20Wear" data-region="Tyne and Wear"><path class="division" d="M 317.6,76.8 L 317.6,74.1 L 364.3,25.3 L 416.8,30.5 L 439.2,29.0 L 439.2,76.8 L 317.6,76.8 Z"><title>Tyne and Wear</title></path></a><a href="../../region.html?country=united-kingdom&amp;region=County%20Durham" data-region="County Durham"><path class="division" d="M 439.2,29.0 L 496.1,25.0 L 444.9,76.8 L 439.2,76.8 L 439.2,29.0 Z"><title>County Durham</title></path></a><a href="../../region.html?country=united-kingdom&amp;region=Cumbria" data-region="Cumbria"><path class="division" d="M 317.6,128.6 L 295.7,128.6 L 313.3,78.6 L 315.0,76.8 L 317.6,76.8 L 317.6,128.6 Z"><title>Cumbria</title></path></a><a href="../../region.html?country=united-kingdom&amp;region=Lancashire" data-region="Lancashire"><path class="division" d="M 317.6,128.6 L 317.6,76.8 L 439.2,76.8 L 439.2,82.6 L 425.9,96.1 L 439.2,94.3 L 439.2,128.6 L 317.6,128.6 Z"><title>Lancashire</title></path></a><a href="../../region.html?country=united-kingdom&amp;region=North%20Yorkshire" data-region="North Yorkshire"><path class="division" d="M 553.1,123.9 L 551.6,128.6 L 439.2,128.6 L 439.2,94.3 L 492.8,87.1 L 560.8,87.4 L 560.8,99.9 L 553.1,123.9 Z M 444.9,76.8 L 444.2,77.5 L 439.2,82.6 L 439.2,76.8 L 444.9,76.8 Z"><title>North Yorkshire</title></path></a><a href="../../region.html?country=united-kingdom&amp;region=West%20Yorkshire" data-region="West Yorkshire"><path class="division" d="M 564.8,87.4 L 560.8,99.9 L 560.8,87.4 L 564.8,87.4 Z"><title>West Yorkshire</title></path></a><a href="../../region.html?country=united-kingdom&amp;region=South%20Yorkshire" data-region="South Yorkshire"><path class="division" d="M 317.6,175.0 L 289.4,146.6 L 295.7,128.6 L 317.6,128.6 L 317.6,175.0 Z"><title>South Yorkshire</title></path></a><a href="../../region.html?country=united-kingdom&amp;region=Greater%20Manchester" data-region="Greater Manchester"><path class="division" d="M 439.2,128.6 L 439.2,180.5 L 322.6,180.5 L 322.6,180.1 L 317.6,175.0 L 317.6,128.6 L 439.2,128.6 Z"><title>Greater Manchester</title></path></a><a href="../../region.html?country=united-kingdom&amp;region=Merseyside" data-region="Merseyside"><path class="division" d="M 439.2,128.6 L 551.6,128.6 L 547.7,141.0 L 508.1,180.5 L 439.2,180.5 L 439.2,128.6 Z"><title>Merseyside</title></path></a><a href="../../region.html?country=united-kingdom&amp;region=Cheshire" data-region="Cheshire"><path class="division" d="M 439.2,232.3 L 382.0,232.3 L 383.5,230.4 L 361.8,212.3 L 339.1,232.3 L 325.8,232.3 L 324.5,210.3 L 322.6,180.5 L 439.2,180.5 L 439.2,232.3 Z"><title>Cheshire</title></path></a><a href="../../region.html?country=united-kingdom&amp;region=Derbyshire" data-region="Derbyshire"><path class="division" d="M 439.2,232.3 L 439.2,180.5 L 508.1,180.5 L 488.6,199.9 L 556.5,204.0 L 560.8,209.7 L 560.8,232.3 L 439.2,232.3 Z"><title>Derbyshire</title></path></a><a href="../../region.html?country=united-kingdom&amp;region=Nottinghamshire" data-region="Nottinghamshire"><path class="division" d="M 560.8,209.7 L 561.7,211.0 L 577.8,232.3 L 560.8,232.3 L 560.8,209.7 Z"><title>Nottinghamshire</title></path></a><a href="../../region.html?country=united-kingdom&amp;region=Lincolnshire" data-region="Lincolnshire"><path class="division" d="M 196.0,255.2 L 251.1,252.5 L 305.9,284.1 L 207.1,284.1 L 196.0,255.2 Z"><title>Lincolnshire</title></path></a><a href="../../region.html?country=united-kingdom&amp;region=Leicestershire" data-region="Leicestershire"><path class="division" d="M 439.2,284.1 L 420.2,284.1 L 375.2,277.6 L 359.6,259.8 L 382.0,232.3 L 439.2,232.3 L 439.2,284.1 Z M 326.5,243.4 L 325.8,232.3 L 339.1,232.3 L 326.5,243.4 Z"><title>Leicestershire</title></path></a><a href="../../region.html?country=united-kingdom&amp;region=Rutland" data-region="Rutland"><path class="division" d="M 439.2,232.3 L 560.8,232.3 L 560.8,284.1 L 439.2,284.1 L 439.2,232.3 Z"><title>Rutland</title></path></a><a href="../../region.html?country=united-kingdom&amp;region=Staffordshire" data-region="Staffordshire"><path class="division" d="M 560.8,232.3 L 577.8,232.3 L 601.8,264.0 L 616.9,284.1 L 560.8,284.1 L 560.8,232.3 Z"><title>Staffordshire</title></path></a><a href="../../region.html?country=united-kingdom&amp;region=West%20Midlands" data-region="West Midlands"><path class="division" d="M 288.1,335.9 L 277.7,335.9 L 236.6,324.7 L 196.0,325.6 L 209.5,290.4 L 207.1,284.1 L 305.9,284.1 L 306.8,284.6 L 317.6,290.9 L 317.6,298.1 L 288.1,335.9 Z"><title>West Midlands</title></path></a><a href="../../region.html?country=united-kingdom&amp;region=Warwickshire" data-region="Warwickshire"><path class="division" d="M 439.2,286.8 L 420.2,284.1 L 439.2,284.1 L 439.2,286.8 Z M 321.5,293.1 L 317.6,298.1 L 317.6,290.9 L 321.5,293.1 Z"><title>Warwickshire</title></path></a><a href="../../region.html?country=united-kingdom&amp;region=Worcestershire" data-region="Worcestershire"><path class="division" d="M 560.8,284.1 L 560.8,335.9 L 498.7,335.9 L 500.0,330.5 L 456.0,290.1 L 455.0,289.1 L 439.2,286.8 L 439.2,284.1 L 560.8,284.1 Z"><title>Worcestershire</title></path></a><a href="../../region.html?country=united-kingdom&amp;region=Shropshire" data-region="Shropshire"><path class="division" d="M 560.8,335.9 L 560.8,284.1 L 616.9,284.1 L 620.3,288.5 L 665.2,299.0 L 682.4,330.8 L 682.4,335.9 L 560.8,335.9 Z"><title>Shropshire</title></path></a><a href="../../region.html?country=united-kingdom&amp;region=Herefordshire" data-region="Herefordshire"><path class="division" d="M 682.4,330.8 L 685.2,335.9 L 682.4,335.9 L 682.4,330.8 Z"><title>Herefordshire</title></path></a><a href="../../region.html?country=united-kingdom&amp;region=Norfolk" data-region="Norfolk"><path class="division" d="M 286.3,338.2 L 277.7,335.9 L 288.1,335.9 L 286.3,338.2 Z"><title>Norfolk</title></path></a><a href="../../region.html?country=united-kingdom&amp;region=Suffolk" data-region="Suffolk"><path class="division" d="M 385.3,387.7 L 392.6,362.7 L 439.2,365.6 L 439.2,387.7 L 385.3,387.7 Z"><title>Suffolk</title></path></a><a href="../../region.html?country=united-kingdom&amp;region=Cambridgeshire" data-region="Cambridgeshire"><path class="division" d="M 560.8,387.7 L 439.2,387.7 L 439.2,365.6 L 490.2,368.7 L 490.4,368.7 L 498.7,335.9 L 560.8,335.9 L 560.8,387.7 Z"><title>Cambridgeshire</title></path></a><a href="../../region.html?country=united-kingdom&amp;region=Essex" data-region="Essex"><path class="division" d="M 560.8,335.9 L 682.4,335.9 L 682.4,387.7 L 560.8,387.7 L 560.8,335.9 Z"><title>Essex</title></path></a><a href="../../region.html?country=united-kingdom&amp;region=Hertfordshire" data-region="Hertfordshire"><path class="division" d="M 682.4,335.9 L 685.2,335.9 L 705.7,373.9 L 715.7,387.7 L 682.4,387.7 L 682.4,335.9 Z"><title>Hertfordshire</title></path></a><a href="../../region.html?country=united-kingdom&amp;region=Bedfordshire" data-region="Bedfordshire"><path class="division" d="M 439.2,439.5 L 414.5,439.5 L 380.1,405.8 L 385.3,387.7 L 439.2,387.7 L 439.2,439.5 Z"><title>Bedfordshire</title></path></a><a href="../../region.html?country=united-kingdom&amp;region=Buckinghamshire" data-region="Buckinghamshire"><path class="division" d="M 439.2,387.7 L 560.8,387.7 L 560.8,439.5 L 439.2,439.5 L 439.2,387.7 Z"><title>Buckinghamshire</title></path></a><a href="../../region.html?country=united-kingdom&amp;region=Oxfordshire" data-region="Oxfordshire"><path class="division" d="M 560.8,387.7 L 682.4,387.7 L 682.4,439.5 L 560.8,439.5 L 560.8,387.7 Z"><title>Oxfordshire</title></path></a><a href="../../region.html?country=united-kingdom&amp;region=Gloucestershire" data-region="Gloucestershire"><path class="division" d="M 682.4,387.7 L 715.7,387.7 L 724.4,399.9 L 804.0,412.4 L 798.8,439.5 L 682.4,439.5 L 682.4,387.7 Z"><title>Gloucestershire</title></path></a><a href="../../region.html?country=united-kingdom&amp;region=Somerset" data-region="Somerset"><path class="division" d="M 439.2,491.4 L 400.6,491.4 L 366.0,487.7 L 347.4,461.5 L 416.1,441.2 L 414.5,439.5 L 439.2,439.5 L 439.2,491.4 Z"><title>Somerset</title></path></a><a href="../../region.html?country=united-kingdom&amp;region=Wiltshire" data-region="Wiltshire"><path class="division" d="M 439.2,439.5 L 560.8,439.5 L 560.8,491.4 L 439.2,491.4 L 439.2,439.5 Z"><title>Wiltshire</title></path></a><a href="../../region.html?country=united-kingdom&amp;region=Bristol" data-region="Bristol"><path class="division" d="M 560.8,439.5 L 682.4,439.5 L 682.4,491.4 L 560.8,491.4 L 560.8,439.5 Z"><title>Bristol</title></path></a><a href="../../region.html?country=united-kingdom&amp;region=Dorset" data-region="Dorset"><path class="division" d="M 682.4,439.5 L 798.8,439.5 L 796.0,454.4 L 762.6,473.7 L 776.2,491.4 L 682.4,491.4 L 682.4,439.5 Z"><title>Dorset</title></path></a><a href="../../region.html?country=united-kingdom&amp;region=Devon" data-region="Devon"><path class="division" d="M 368.0,543.2 L 410.3,512.9 L 439.2,505.9 L 439.2,543.2 L 368.0,543.2 Z M 439.2,495.5 L 401.2,491.4 L 400.6,491.4 L 439.2,491.4 L 439.2,495.5 Z"><title>Devon</title></path></a><a href="../../region.html?country=united-kingdom&amp;region=Cornwall" data-region="Cornwall"><path class="division" d="M 560.8,491.4 L 560.8,543.2 L 439.2,543.2 L 439.2,505.9 L 469.1,498.7 L 468.6,498.6 L 439.2,495.5 L 439.2,491.4 L 560.8,491.4 Z"><title>Cornwall</title></path></a><a href="../../region.html?country=united-kingdom&amp;region=Hampshire" data-region="Hampshire"><path class="division" d="M 560.8,491.4 L 682.4,491.4 L 682.4,541.7 L 641.8,541.5 L 631.1,543.2 L 560.8,543.2 L 560.8,491.4 Z"><title>Hampshire</title></path></a><a href="../../region.html?country=united-kingdom&amp;region=Berkshire" data-region="Berkshire"><path class="division" d="M 776.2,491.4 L 788.8,507.6 L 729.7,542.1 L 682.4,541.7 L 682.4,491.4 L 776.2,491.4 Z"><title>Berkshire</title></path></a><a href="../../region.html?country=united-kingdom&amp;region=Surrey" data-region="Surrey"><path class="division" d="M 314.0,581.9 L 317.6,579.3 L 317.6,583.2 L 314.0,581.9 Z"><title>Surrey</title></path></a><a href="../../region.html?country=united-kingdom&amp;region=Kent" data-region="Kent"><path class="division" d="M 439.2,575.3 L 395.1,569.9 L 348.9,595.0 L 317.6,583.2 L 317.6,579.3 L 362.7,547.0 L 368.0,543.2 L 439.2,543.2 L 439.2,575.3 Z"><title>Kent</title></path></a><a href="../../region.html?country=united-kingdom&amp;region=East%20Sussex" data-region="East Sussex"><path class="division" d="M 560.8,543.2 L 560.8,554.5 L 529.9,559.5 L 499.3,546.6 L 455.8,577.4 L 439.2,575.3 L 439.2,543.2 L 560.8,543.2 Z"><title>East Sussex</title></path></a><a href="../../region.html?country=united-kingdom&amp;region=West%20Sussex" data-region="West Sussex"><path class="division" d="M 631.1,543.2 L 560.8,554.5 L 560.8,543.2 L 631.1,543.2 Z"><title>West Sussex</title></path></a></g><path class="outline" d="M 490.4,368.7 L 500.0,330.5 L 456.0,290.1 L 455.0,289.1 L 375.2,277.6 L 359.6,259.8 L 383.5,230.4 L 361.8,212.3 L 326.5,243.4 L 322.6,180.1 L 289.4,146.6 L 313.3,78.6 L 364.3,25.3 L 416.8,30.5 L 496.1,25.0 L 425.9,96.1 L 492.8,87.1 L 564.8,87.4 L 547.7,141.0 L 488.6,199.9 L 556.5,204.0 L 561.7,211.0 L 620.3,288.5 L 665.2,299.0 L 705.7,373.9 L 724.4,399.9 L 804.0,412.4 L 796.0,454.4 L 762.6,473.7 L 788.8,507.6 L 729.7,542.1 L 641.8,541.5 L 529.9,559.5 L 499.3,546.6 L 455.8,577.4 L 395.1,569.9 L 348.9,595.0 L 314.0,581.9 L 410.3,512.9 L 469.1,498.7 L 468.6,498.6 L 366.0,487.7 L 347.4,461.5 L 416.1,441.2 L 380.1,405.8 L 392.6,362.7 L 490.2,368.7 L 490.4,368.7 Z M 236.6,324.7 L 196.0,325.6 L 209.5,290.4 L 196.0,255.2 L 251.1,252.5 L 321.5,293.1 L 286.3,338.2 L 236.6,324.7 Z"/><text class="division-label" x="317.0" y="75.5" text-anchor="middle">Northumberland</text><text class="division-label" x="388.8" y="52.3" text-anchor="middle">Tyne</text><text class="division-label" x="453.9" y="52.9" text-anchor="middle">County</text><text class="division-label" x="311.1" y="103.6" text-anchor="middle">Cumbria</text><text class="division-label" x="378.4" y="112.4" text-anchor="middle">Lancashire</text><text class="division-label" x="498.1" y="111.9" text-anchor="middle">North</text><text class="division-label" x="561.8" y="93.7" text-anchor="middle">West</text><text class="division-label" x="310.6" y="160.8" text-anchor="middle">South</text><text class="division-label" x="378.4" y="151.8" text-anchor="middle">Greater</text><text class="division-label" x="483.5" y="160.7" text-anchor="middle">Merseyside</text><text class="division-label" x="381.4" y="195.4" text-anchor="middle">Cheshire</text><text class="division-label" x="498.9" y="206.9" text-anchor="middle">Derbyshire</text><text class="division-label" x="565.3" y="221.6" text-anchor="middle">Nottinghamshire</text><text class="division-label" x="241.2" y="269.6" text-anchor="middle">Lincolnshire</text><text class="division-label" x="405.0" y="246.0" text-anchor="middle">Leicestershire</text><text class="division-label" x="500.0" y="258.2" text-anchor="middle">Rutland</text><text class="division-label" x="575.3" y="248.1" text-anchor="middle">Staffordshire</text><text class="division-label" x="254.3" y="311.4" text-anchor="middle">West</text><text class="division-label" x="434.4" y="285.5" text-anchor="middle">Warwickshire</text><text class="division-label" x="519.4" y="310.3" text-anchor="middle">Worcestershire</text><text class="division-label" x="617.3" y="314.9" text-anchor="middle">Shropshire</text><text class="division-label" x="683.1" y="333.4" text-anchor="middle">Herefordshire</text><text class="division-label" x="284.6" y="337.1" text-anchor="middle">Norfolk</text><text class="division-label" x="413.9" y="376.6" text-anchor="middle">Suffolk</text><text class="division-label" x="527.9" y="350.7" text-anchor="middle">Cambridgeshire</text><text class="division-label" x="621.6" y="361.8" text-anchor="middle">Essex</text><text class="division-label" x="688.9" y="354.9" text-anchor="middle">Hertfordshire</text><text class="division-label" x="418.2" y="422.7" text-anchor="middle">Bedfordshire</text><text class="division-label" x="500.0" y="413.6" text-anchor="middle">Buckinghamshire</text><text class="division-label" x="621.6" y="413.6" text-anchor="middle">Oxfordshire</text><text class="division-label" x="741.9" y="426.0" text-anchor="middle">Gloucestershire</text><text class="division-label" x="398.0" y="474.6" text-anchor="middle">Somerset</text><text class="division-label" x="500.0" y="465.5" text-anchor="middle">Wiltshire</text><text class="division-label" x="621.6" y="465.5" text-anchor="middle">Bristol</text><text class="division-label" x="730.8" y="464.0" text-anchor="middle">Dorset</text><text class="division-label" x="414.2" y="528.0" text-anchor="middle">Devon</text><text class="division-label" x="500.0" y="524.5" text-anchor="middle">Cornwall</text><text class="division-label" x="621.6" y="516.4" text-anchor="middle">Hampshire</text><text class="division-label" x="721.0" y="524.7" text-anchor="middle">Berkshire</text><text class="division-label" x="316.7" y="580.6" text-anchor="middle">Surrey</text><text class="division-label" x="392.9" y="558.4" text-anchor="middle">Kent</text><text class="division-label" x="454.5" y="567.4" text-anchor="middle">East</text><text class="division-label" x="578.4" y="548.9" text-anchor="middle">West</text>
<text class="map-note" x="20" y="600">County-level operational navigation. Each area is individually clickable.</text></svg>